<?xml version="1.0" encoding="UTF-8"?>
<svg width="800px" height="600px" viewBox="0 0 800 600" version="1.1" xmlns="http://www.w3.org/2000/svg" xmlns:xlink="http://www.w3.org/1999/xlink">
    <!-- Generator: Sketch 45.2 (43514) - http://www.bohemiancoding.com/sketch -->
    <title>map-hi-sf</title>
    <desc>Created with Sketch.</desc>
    <defs>
        <linearGradient x1="1.26020729%" y1="100%" x2="97.9770307%" y2="100%" id="linearGradient-1">
            <stop stop-color="#FFFFFF" stop-opacity="0" offset="0%"></stop>
            <stop stop-color="#FFFFFF" stop-opacity="0.25" offset="100%"></stop>
        </linearGradient>
    </defs>
    <g id="Page-1" stroke="none" stroke-width="1" fill="none" fill-rule="evenodd">
        <g id="map-hi-sf">
            <path d="M201.076141,516.278955 C203.596896,517.83224 206.195243,519.534405 208.898822,521.049379 C210.036993,521.68757 211.389996,521.95429 212.661042,522.335459 C213.034936,522.447967 213.492241,522.284539 213.86371,522.399957 C221.624318,524.799475 228.628409,528.500106 233.904633,534.825755 C234.829912,535.934829 234.851734,537.835337 235.179074,539.393957 C235.509322,540.9647 235.793016,542.314308 237.962185,541.391454 C239.215288,540.858012 239.952892,541.542272 240.110985,542.855024 C240.168694,543.335606 240.334546,543.830252 240.271018,544.294347 C239.900518,547.000351 241.202601,548.264608 243.664192,549.248566 C248.331808,551.113672 248.575251,552.905552 244.410041,555.835602 C240.804944,558.371875 236.848746,560.429505 232.951227,562.519142 C231.790263,563.140844 230.213701,563.606878 228.98533,563.36004 C225.932103,562.747067 223.747416,563.907545 221.582128,565.806113 C220.514759,566.742061 219.113262,567.331757 217.800996,567.945215 C215.604185,568.971848 214.384544,570.116323 213.921904,572.993514 C213.50291,575.601559 210.840066,577.88469 208.995812,580.173155 C208.802803,580.412234 207.059903,579.968507 206.704437,579.413243 C205.034279,576.805682 202.778306,575.137465 200.044659,573.686503 C196.855162,571.994038 196.536067,568.528606 197.455042,565.546667 C198.793496,561.202996 198.094202,557.582866 196.205333,553.514645 C194.842632,550.580715 194.008523,547.474629 191.957682,544.787538 C190.217207,542.506832 190.832605,539.875024 193.62687,538.777589 C198.035038,537.046328 199.276503,532.531471 202.46115,529.78667 C202.857352,529.445268 202.610514,528.031162 202.28463,527.276584 C201.989782,526.593294 201.18574,526.12629 200.597014,525.572965 C197.177652,522.360676 197.19705,520.006743 201.076141,516.278955 Z M185.270116,511.000888 C183.814305,510.740472 182.869629,510.543098 181.916223,510.406828 C180.258674,510.170659 179.69177,509.246835 179.668978,507.583951 C179.640851,505.496254 179.313512,503.410982 179.076858,501.329104 C178.889183,499.680769 178.082231,499.242377 176.3951,499.62985 C175.423266,499.85341 174.115364,499.560502 173.237125,499.03482 C171.658137,498.089658 170.374483,496.657124 168.811013,495.678501 C166.521578,494.245482 166.687915,491.893004 167.279066,490.119553 C167.673812,488.933857 169.71544,487.960568 171.194528,487.592009 C172.168302,487.34905 173.579983,488.168611 174.557636,488.852386 C175.370892,489.421229 175.847595,490.478414 176.454749,491.33192 C178.577362,494.317255 179.223312,494.45304 182.30515,492.534589 C185.97232,490.251943 187.867493,490.37027 191.308677,493.037479 C194.470532,495.488402 197.278861,498.382566 201.445526,499.39756 C203.842619,499.981436 204.331446,502.989078 202.260722,504.276127 C199.793311,505.809045 196.95928,506.77312 194.239212,507.87104 C192.496798,508.574698 190.666122,509.058675 188.886852,509.673103 C187.547913,510.134773 186.226917,510.647847 185.270116,511.000888 Z M90.1762172,460.498889 C91.6262089,460.311215 92.5805847,460.098808 93.539325,460.08038 C96.1483402,460.029461 98.1118909,458.871407 99.8096905,456.936953 C101.025938,455.551459 102.418221,454.278473 103.896339,453.175704 C105.717801,451.816397 106.523783,452.314438 107.560114,454.241133 C108.681312,456.32592 110.063411,458.332631 111.652098,460.08232 C112.786874,461.331543 113.74125,462.214632 112.686005,463.995358 C112.420254,464.443449 112.831489,465.387156 113.107909,466.026801 C113.28346,466.433672 113.806717,466.679055 114.135997,467.032096 C116.526301,469.594556 116.523391,469.597466 118.243013,466.091784 C119.162958,468.13923 119.913656,469.823451 120.676962,471.501853 C121.208949,472.67203 121.809314,473.814566 122.277288,475.00899 C122.507153,475.597231 122.505213,476.276642 122.608022,476.914347 C122.040149,476.925986 121.471306,476.921137 120.904403,476.952658 C119.788539,477.014731 118.334668,476.676238 117.621796,477.250416 C115.607326,478.872564 114.2873,478.090344 112.885318,476.553062 C111.90233,475.475994 111.124475,473.850937 109.138132,474.965345 C109.023685,475.029358 108.118288,474.209313 108.068339,473.748613 C107.979109,472.923233 108.261348,472.057118 108.388404,471.20846 C107.204648,471.188092 106.020407,471.148327 104.837622,471.16724 C104.641703,471.170634 104.450634,471.430566 104.129599,471.664795 C104.474881,472.331113 104.821133,472.9984 105.284258,473.892157 C103.439034,474.659344 101.703894,475.444958 99.9134692,476.070055 C99.5507288,476.197111 98.7379575,475.852798 98.5352496,475.496362 C95.7734761,470.640102 93.0829898,465.743592 90.1762172,460.498889 Z M66.059121,453.289327 C66.0469973,453.368858 66.0605758,453.465848 66.0193553,453.525496 C63.2779496,457.533099 63.8991668,463.547412 58.51092,466.000759 C57.3392879,466.534201 56.4920854,466.937192 55.2331628,465.988636 C54.3937195,465.35675 53.0135601,465.148707 51.9093357,465.227269 C49.9268721,465.368388 48.4647567,464.865983 47.4279399,463.113384 C46.3833639,461.347692 44.8097107,460.432597 42.7448062,460.068887 C40.3564419,459.647953 40.4350033,458.676604 41.2841456,456.473004 C43.0149217,451.982395 46.3484478,449.37241 50.4554644,447.513607 C51.2881185,447.136804 52.455871,447.500999 53.4689254,447.523306 C54.2293224,447.54028 55.1041669,447.811365 55.7326583,447.531066 C59.9347246,445.658685 66.0339037,449.012579 66.059121,453.289327 Z M170.165955,478.885221 C169.341545,479.904094 168.897334,480.654308 168.271752,481.193569 C163.833032,485.017861 159.048544,487.119137 153.284948,484.021295 C152.650153,483.679892 151.944555,483.472335 151.278237,483.188641 C148.058189,481.816726 145.177118,480.26732 141.288328,482.351137 C138.937305,483.611515 135.516973,482.87585 132.208179,483.056735 C133.600462,480.086435 134.62758,477.690796 135.872439,475.41397 C136.117337,474.966364 137.251629,474.711766 137.892729,474.827669 C140.061412,475.221931 142.184025,475.862546 144.34107,476.332944 C146.227999,476.744664 148.125596,477.190816 150.041622,477.354243 C151.047887,477.440563 152.095858,476.904212 153.139464,476.74321 C153.772805,476.64525 154.655409,476.456121 155.044821,476.774246 C156.98073,478.356143 159.1756,478.332381 161.4694,478.225693 C163.47902,478.132098 165.49931,478.186412 167.51087,478.269338 C168.250899,478.29989 168.97929,478.599587 170.165955,478.885221 Z M142.876336,494.020855 C145.183714,491.653828 147.580807,490.644168 150.62094,491.978743 C151.421103,492.330329 152.335228,492.64409 153.187765,492.620328 C158.677366,492.466115 160.952737,496.48875 163.336252,500.347474 C163.618006,500.803324 163.757671,501.842566 163.499194,502.059822 C161.012871,504.152369 159.118667,507.133338 155.56546,507.693937 C152.607768,508.160456 151.499664,507.403939 151.734379,504.455461 C152.037955,500.641352 150.2582,498.411081 147.132231,496.761776 C145.714731,496.013987 144.422832,495.027605 142.876336,494.020855 Z M21.1993842,474.841781 C18.691723,468.737267 20.1586878,464.772825 25.2026222,461.920366 C26.5226481,461.174033 27.5066057,459.789024 28.5521515,458.614482 C29.4512434,457.603852 30.0855541,456.316318 31.1005483,455.466206 C31.589375,455.057395 32.7852544,455.154385 33.4617556,455.461356 C33.7633926,455.598111 33.8943283,457.071866 33.5529256,457.500559 C32.1218468,459.293893 31.2906476,461.025154 32.2750901,463.386846 C32.4336678,463.76753 31.1626216,465.345062 30.5433442,465.350397 C26.6172128,465.384828 24.9548143,468.023425 23.4354751,470.978207 C22.8307461,472.154204 22.1130245,473.272007 21.1993842,474.841781 Z M164.048251,519.156437 C162.839763,514.257502 163.629257,513.003914 169.489842,509.909951 C172.21379,508.471598 172.885926,508.704373 176.073968,512.16641 C175.69571,513.112542 175.0066,514.041215 175.020663,514.95922 C175.055095,517.216649 173.658932,517.555627 172.21573,516.910162 C168.959795,515.452896 166.447284,516.366051 164.048251,519.156437 Z" id="hawaii" fill-opacity="0.2" fill="#FFFFFF"></path>
            <path d="M679.854661,396.139629 C679.8241,395.816883 679.826337,395.362951 679.731674,394.930636 C679.18159,392.403824 679.646702,389.832289 679.407437,387.321876 C679.209168,385.234088 678.452616,383.132138 677.598419,381.188207 C675.243788,375.831217 671.519163,371.551289 666.807665,368.089035 C665.422018,367.071602 664.204825,365.82683 662.881789,364.720698 C662.149088,364.108747 661.423096,363.431204 660.579334,363.02274 C658.015254,361.78244 655.741868,360.172436 653.902289,358.007875 C652.609814,356.487316 650.933472,355.908162 649.054388,355.667406 C648.078696,355.542184 647.303509,355.756106 646.898026,356.754159 C646.549937,357.609847 645.923825,357.764139 645.116587,357.42574 C644.690979,357.24685 644.269098,357.05678 643.833056,356.910687 C642.791771,356.560362 642.362436,355.866421 642.57114,354.781904 C643.258374,351.207099 641.848129,348.374684 639.311627,346.03347 C638.722038,345.489348 637.781378,345.113681 636.976376,345.062995 C635.531845,344.970569 634.042591,345.042125 632.616694,345.294806 C628.611063,346.005146 625.07949,344.588939 621.459962,343.211491 C618.338343,342.022622 615.687799,340.534859 614.732977,337.057697 C614.650241,336.757312 614.356564,336.445747 614.077795,336.278038 C610.470939,331.878105 606.098585,329.970698 600.959989,330.553579 C598.538274,331.254974 596.113578,330.938191 593.685901,329.603229 C588.766444,327.690604 583.797047,327.619794 578.724789,328.605921 C576.18456,327.934341 573.958878,326.698514 572.045508,324.89844 C570.331897,324.325248 570.117975,323.943618 570.622592,322.279947 C571.180131,320.44335 571.473807,318.629859 570.859621,316.735868 C571.089195,315.131827 570.889436,313.561327 570.258851,312.021388 C569.5664,311.188808 569.625284,310.328648 569.851132,309.320905 C570.232763,307.614748 570.578615,305.872067 570.649426,304.133114 C570.726199,302.277882 569.714729,301.247778 567.890058,300.838568 C567.029153,300.644772 566.140669,300.539674 565.304361,300.272831 C558.683219,298.156719 567.252019,292.008143 561.395629,290.254282 C558.627316,289.425428 556.91296,287.568706 555.505697,285.239418 C554.5792,283.706187 553.278525,282.623161 551.567896,282.034317 C550.277656,281.58933 549.435386,280.720971 549.135001,279.350977 C548.729518,277.503199 547.546612,276.116807 546.254882,274.851165 C545.007875,273.630245 544.113428,272.275903 543.760121,270.543658 C543.488061,269.205715 542.713619,268.249402 541.479282,267.530864 C540.704095,267.080659 539.956487,266.295782 539.591254,265.484071 C538.375552,262.779115 536.509885,260.756175 533.944314,259.310898 C531.703725,258.046747 530.354601,256.160955 529.964026,253.566314 C529.73147,252.015195 529.287228,250.496126 528.973426,248.955442 C528.687204,247.548924 528.388309,246.140916 528.210165,244.719491 C528.093142,243.784794 528.778139,243.460557 529.601775,243.415835 C531.998147,243.288376 531.998147,243.292103 532.58401,241.020208 C532.622769,240.871134 532.646621,240.71386 532.715195,240.578948 C534.293148,234.528761 532.99471,230.899544 528.819134,229.689805 C528.3898,229.609305 527.907544,229.767323 527.455103,229.850805 C524.16503,230.46052 521.606912,229.219475 519.51018,226.754529 C518.216959,225.234715 516.927465,223.708192 515.567161,222.249499 C514.001879,220.572411 513.395146,218.802898 513.739508,216.395345 C514.191204,213.234967 513.281104,210.242297 510.945853,207.872013 C510.154268,207.069247 509.92842,206.124115 510.217624,205.118608 C508.895334,209.723518 512.95165,187.591925 514.294811,197.491214 C513.831934,200.152193 514.516932,202.54931 516.349802,204.684802 C518.606789,206.054796 520.749734,207.612624 522.941874,209.090697 C523.228097,209.283748 523.489723,209.558791 523.805015,209.648235 C527.631011,210.742442 518.712632,198.076331 518.062667,197.521774 C517.040762,196.649689 516.413904,195.692631 516.543599,194.250335 C516.662858,192.944443 516.051653,191.902413 514.949993,191.119026 C513.494281,190.085195 513.528568,188.972354 515.008877,187.942995 C515.983824,187.264706 517.010947,186.658719 517.97844,185.968504 C518.511381,184.528445 518.069376,183.475979 516.654659,182.811107 C515.097577,181.550683 513.25278,181.529812 511.662156,182.710482 C510.600746,183.49834 510.225078,184.488195 510.467324,185.831356 C510.34881,185.173937 513.0724,197.389098 508.509976,193.825473 C507.906225,193.353652 507.403844,192.733503 506.759097,192.336219 C506.131494,191.949371 505.400283,191.6065 504.680254,191.519291 C503.634497,191.391833 502.874962,190.981878 502.309225,190.112774 C501.059235,188.191204 499.229346,186.926307 497.322684,185.748619 C496.130834,185.855953 495.356392,186.496973 494.999359,187.672425 L494.569279,187.517388 C494.612511,187.116377 494.622201,186.708659 494.702701,186.315848 C495.153651,184.109546 495.729824,181.922623 496.050334,179.699178 C496.322395,177.812641 495.539008,176.333822 493.926023,175.162842 C491.912772,172.111288 489.546961,169.345957 486.827097,166.866849 C485.922961,166.480001 485.12094,165.688416 484.467249,164.916955 C480.779147,159.935633 476.707178,155.300162 472.252088,151.011291 C471.108687,149.835838 470.940233,148.563488 471.618522,147.007896 C471.986736,142.527463 471.047567,138.326545 468.80176,134.405887 C468.000485,132.315118 467.982596,130.181117 468.603491,128.068732 C469.892985,123.683707 469.61198,119.526021 467.712771,115.284853 C466.457564,112.482998 465.608585,109.517162 463.527506,107.153587 C463.122023,106.692947 462.672564,106.268085 462.295406,105.785829 C460.445392,103.067456 458.292757,100.6122 455.839737,98.4193146 C454.609872,97.2669691 453.269693,96.2309017 452.030139,95.088246 C450.283732,93.4774965 449.698614,84.6552705 450.142111,83.3173273 C453.255531,73.9338359 455.060823,74.8916393 458.156353,64.2156724 C458.508915,62.9984795 458.393382,61.8446432 457.826899,60.7504367 C456.94736,59.0487519 457.056929,57.4022246 457.748635,55.649109 C459.18124,52.0131831 460.07196,48.2244559 460.013076,44.306034 C459.985497,42.4858349 459.582996,40.6544553 459.193912,38.8625803 C459.006078,35.4569745 457.708385,32.6036895 455.301578,30.3034707 C454.298307,27.7274642 454.42502,25.1298418 455.682463,22.5106037 C455.663083,20.2573434 455.929181,20.0039168 458.204057,20.0039168 C501.537764,20.0009353 544.870726,19.9994446 588.204433,20.0001899 C590.667888,20.0001899 590.971255,20.3244269 590.971255,22.9451557 C590.973491,62.9753729 590.972746,103.006336 590.974982,143.036553 C590.974982,143.766272 590.838579,144.546677 591.051755,145.21304 C591.355122,146.161153 591.710664,147.261323 592.410569,147.888181 C599.695837,154.425841 607.062351,160.873311 614.390106,167.363267 C620.827886,173.06462 627.238833,178.795787 633.672141,184.501612 C640.162843,190.258121 646.679632,195.985562 653.159153,201.755489 C655.480242,203.823151 657.746174,205.954916 659.999435,208.097861 C665.424254,213.257328 670.813295,218.453318 676.240351,223.610549 C681.723309,228.81921 687.243536,233.989112 692.729476,239.193301 C697.743595,243.949521 702.744297,248.719159 707.730838,253.503703 C712.274627,257.863385 716.792328,262.252137 721.320465,266.628963 C726.013329,271.166044 730.69203,275.717287 735.400547,280.23797 C740.304351,284.94276 745.213373,289.642332 750.161154,294.299418 C754.130261,298.035223 758.153035,301.71289 762.170592,305.398011 C763.703077,306.803783 764.382856,308.536773 764.584852,310.585056 C764.673552,311.479503 765.213947,312.336681 765.585887,313.19535 C766.452755,315.195929 768.1045,316.723197 769.124915,318.541905 C770.579136,321.133564 772.131746,323.822867 772.482817,326.937778 C772.544683,327.493826 773.053027,328.110249 773.524102,328.488898 C775.230259,329.860383 777.025115,331.120807 778.753634,332.463968 C780.75943,334.024778 780.880181,334.939349 779.020477,336.615691 C777.204005,338.251784 775.243676,339.738801 773.26024,341.172897 C772.213737,341.92945 771.50787,342.774702 771.081517,344.014257 C769.379087,348.959056 767.772064,347.155255 768.335566,353.509554 C768.509983,355.478827 768.626261,357.413814 767.815296,359.290661 C767.652059,359.668565 767.676656,360.123242 767.557397,360.524252 C767.168313,361.83089 766.824696,363.159143 766.320079,364.421058 C765.967518,365.303579 765.337678,366.069822 764.907599,366.927 C764.434287,367.872132 763.799975,368.573527 762.734093,368.820245 C761.885859,369.015533 761.715915,369.582016 761.592928,370.418323 C761.33652,372.161749 761.781507,373.665165 762.359916,375.285604 C762.781797,376.466274 762.564894,377.93093 762.421782,379.246512 C762.103508,382.181788 762.712477,383.051638 765.663406,383.502588 C767.000604,383.706075 768.502529,383.791047 768.917701,385.393598 C769.433499,387.383741 770.416645,389.437987 768.631478,391.382664 C768.13357,391.925295 767.810823,392.673648 767.549943,393.379516 C767.07216,394.671991 766.578723,395.167664 765.273576,394.974613 C763.606179,394.726404 762.133323,395.122196 760.569532,395.658864 C759.148852,396.147083 757.559719,396.188824 756.036178,396.325227 C748.539969,396.993826 741.040779,397.615466 733.54457,398.279593 C725.513184,398.990678 717.482543,399.72487 709.453393,400.458316 C698.81395,407.080203 690.284655,407.130143 683.86849,400.608881 C683.756685,398.787192 682.593904,397.60354 681.460193,396.417653 C681.205275,396.151555 680.570218,396.248454 679.854661,396.139629" id="Fill-1" fill-opacity="0.25" fill="#FFFFFF"></path>
            <path d="M230.752021,264.55896 C231.973016,264.661119 232.965136,265.691221 233.026366,266.920075 C233.101676,268.432485 231.352859,270.253664 229.840449,270.237947 C228.631241,270.225178 227.542528,269.244845 227.394201,268.03531 C227.199051,266.442023 229.147602,264.42504 230.752021,264.55896 Z M151.074026,381.935493 C149.907385,381.958086 148.820964,381.090717 148.558363,379.954527 C148.29609,378.818336 149.214865,376.901874 150.289498,376.346876 C151.316654,375.815781 152.675498,376.09639 153.372274,377.009927 C154.123732,377.995498 153.98621,378.996132 153.479345,380.062252 C152.970842,381.131319 152.247872,381.825475 151.074026,381.935493 Z M162.858712,361.029391 C162.884907,362.687836 161.436018,364.359706 159.953077,364.381972 C158.561816,364.402927 157.435121,363.329604 157.415148,361.964538 C157.3919,360.358155 158.901364,358.606719 160.334535,358.577577 C161.677663,358.550073 162.837429,359.67644 162.858712,361.029391 Z M387.776658,197.840773 C386.386052,197.85649 385.362499,197.066395 385.148685,195.848019 C384.909987,194.491467 385.575002,193.374595 386.935811,192.991826 C387.49834,192.833349 388.112931,192.760987 388.696743,192.792093 C389.962924,192.858561 390.935398,193.865416 391.026097,195.091651 C391.115486,196.300204 390.27464,197.399722 389.018282,197.676402 C388.596876,197.769065 388.159754,197.791986 387.776658,197.840773 Z M397.861216,191.838282 C399.51213,191.835663 400.645047,192.774739 400.805161,194.109026 C400.961019,195.407623 400.047155,196.565751 398.550461,196.798883 C397.877588,196.904316 397.132679,196.900715 396.482726,196.720954 C395.428066,196.429539 394.818714,195.419738 394.85244,194.354928 C394.88551,193.294374 395.570172,192.385094 396.623194,192.076325 C397.088148,191.940113 397.578969,191.890344 397.861216,191.838282 Z M146.891274,390.801118 C145.685667,390.799481 144.728582,390.055882 144.398858,388.941302 C144.06455,387.811333 144.869378,385.934163 145.967914,385.282245 C146.93515,384.707928 148.183322,384.848724 148.95508,385.666978 C149.793635,386.556612 149.875493,387.565759 149.385654,388.675427 C148.873877,389.834865 148.1938,390.747092 146.891274,390.801118 Z M197.616449,300.881267 C199.003453,300.877993 200.223794,302.172006 200.127201,303.544275 C200.049599,304.647722 198.753295,306.242318 197.675387,306.559928 C196.457993,306.918139 195.061494,306.180433 194.673814,304.973517 C194.12471,303.266285 195.836854,300.885196 197.616449,300.881267 Z M417.366136,195.974343 C415.35963,195.960591 414.046299,194.436393 414.576739,192.737019 C414.932986,191.594934 415.759098,191.018326 417.177863,190.921078 C418.662114,190.819247 419.704004,191.324802 420.185984,192.380445 C421.016353,194.198677 419.610685,195.99006 417.366136,195.974343 Z M252.974597,245.535922 C254.524007,245.499249 255.759737,246.932749 255.489605,248.454654 C255.229952,249.919587 253.294499,251.295458 251.830548,251.056105 C250.489058,250.836725 249.548999,249.50735 249.809635,248.197947 C250.056847,246.956651 251.710053,245.566373 252.974597,245.535922 Z M495.521111,203.560952 C494.619363,203.416554 493.51526,203.325201 492.950767,202.325549 C492.654768,201.80002 492.517246,201.08851 492.568653,200.483742 C492.68391,199.133738 493.979232,198.262768 495.388829,198.447767 C497.342291,198.703492 498.48503,199.745055 498.417906,201.209005 C498.353402,202.615982 497.15369,203.635279 495.521111,203.560952 Z M505.008007,205.546633 C504.711354,205.467067 504.111497,205.377351 503.571234,205.147166 C502.391822,204.643902 501.827656,203.385252 502.17539,202.193398 C502.516902,201.022499 503.690747,200.257945 504.935645,200.423626 C505.363599,200.480926 505.793845,200.57097 506.202808,200.707182 C507.503042,201.139393 508.215208,202.357441 507.942129,203.629189 C507.68313,204.834795 506.627161,205.605898 505.008007,205.546633 Z M145.589533,396.323332 C145.616383,398.100635 144.286025,399.708983 142.773614,399.727319 C141.400035,399.743691 140.277925,398.649412 140.267119,397.282709 C140.25304,395.547317 141.63022,393.878066 143.099082,393.851217 C144.433697,393.826659 145.569232,394.953354 145.589533,396.323332 Z M130.828225,433.235279 C130.648465,433.651119 130.421226,434.508992 129.948087,435.197909 C129.179275,436.316419 127.537857,436.445754 126.481232,435.605563 C125.538227,434.856397 125.334891,433.795189 125.859438,432.364309 C126.373179,430.962898 127.266088,430.228468 128.422906,430.256299 C129.789282,430.28937 130.848198,431.408534 130.828225,433.235279 Z M124.952974,439.533868 C126.353403,439.498505 127.465036,440.537121 127.507274,441.921177 C127.561301,443.697171 126.268598,445.358563 124.787948,445.416191 C123.434997,445.46858 122.289966,444.384124 122.237577,443.00105 C122.167506,441.161207 123.411422,439.572505 124.952974,439.533868 Z M285.05338,229.601423 C283.658518,229.563441 282.627434,228.463923 282.661814,227.052362 C282.698486,225.565491 284.375923,224.138541 286.041899,224.177833 C287.409912,224.209593 288.520235,225.366085 288.474067,226.711832 C288.425934,228.122411 286.624401,229.644317 285.05338,229.601423 Z M303.094448,215.415021 C305.222104,215.364923 306.48894,217.178899 305.850774,218.80853 C305.377635,220.017738 303.318412,221.044239 302.051904,220.709603 C300.992987,220.429648 300.367591,219.719775 300.18161,218.678212 C300.004141,217.683145 300.388219,216.8256 301.23365,216.294504 C301.908816,215.870479 302.682866,215.604277 303.094448,215.415021 Z M309.175294,214.24887 C309.25486,212.777389 311.020376,211.420836 312.692901,211.54657 C314.038975,211.647747 315.133909,212.886096 315.036334,214.196153 C314.931556,215.603785 313.065846,217.026807 311.477799,216.910241 C310.120264,216.810374 309.100312,215.631945 309.175294,214.24887 Z M446.716425,191.708782 C448.750108,191.735632 449.904635,192.750672 449.79429,194.414357 C449.688857,196.002731 448.467206,196.844887 446.512762,196.675932 C444.875928,196.534809 443.742029,195.39207 443.884462,193.979854 C444.004957,192.783416 444.97514,191.535571 446.716425,191.708782 Z M456.710121,197.61216 C454.753058,197.51524 453.502921,196.344996 453.676132,194.772993 C453.861459,193.094902 455.347347,192.243905 457.35811,192.664656 C458.965803,193.000602 459.770305,194.049368 459.551252,195.524123 C459.35381,196.850552 458.21631,197.686814 456.710121,197.61216 Z M359.01984,197.34802 C360.578746,197.314949 361.636353,198.12338 361.884219,199.332588 C362.130448,200.534265 361.451353,201.724809 360.23265,202.156693 C359.775882,202.318772 359.293574,202.440577 358.812903,202.498205 C357.569315,202.647186 356.395469,201.835481 356.091285,200.663273 C355.779569,199.464216 356.375496,198.203928 357.546067,197.73439 C358.091569,197.515665 358.691098,197.431188 359.01984,197.34802 Z M368.54737,200.617236 C366.881722,200.622803 365.813637,199.739063 365.634859,198.446359 C365.466559,197.227001 366.342768,196.040059 367.664613,195.721794 C368.031992,195.63306 368.408867,195.572812 368.785414,195.534175 C370.083028,195.399928 371.20383,196.167102 371.470687,197.355027 C371.762429,198.656898 371.213325,199.799965 370.00117,200.261645 C369.452394,200.470874 368.85221,200.545529 368.54737,200.617236 Z M427.192612,195.844221 C425.363247,195.838655 424.110818,194.675942 424.275844,193.136028 C424.419587,191.79159 425.456238,190.913416 426.979781,190.845638 C428.771164,190.766072 429.916195,191.517529 430.167008,192.937276 C430.471521,194.660553 429.254127,195.850115 427.192612,195.844221 Z M139.20172,402.905869 C140.612626,402.894737 141.679401,403.94252 141.689551,405.348843 C141.701994,407.097004 140.328415,408.767237 138.867411,408.781317 C137.54131,408.794086 136.372704,407.633339 136.362881,406.293485 C136.349783,404.51127 137.685053,402.917657 139.20172,402.905869 Z M182.905631,327.274121 C182.931498,328.918814 181.470167,330.590357 179.979695,330.620808 C178.611682,330.648312 177.474182,329.559927 177.447987,328.197808 C177.418846,326.673283 179.005911,324.862581 180.404702,324.823617 C181.753069,324.785962 182.88402,325.893993 182.905631,327.274121 Z M194.208795,311.136876 C194.259874,312.54549 192.558208,314.445581 191.195434,314.501572 C189.860819,314.556253 188.692868,313.441673 188.657833,312.079882 C188.617559,310.515409 190.155836,308.769212 191.616839,308.72108 C192.939339,308.677531 194.160989,309.815686 194.208795,311.136876 Z M203.16394,298.927871 C201.763512,298.935402 200.661047,297.869282 200.653516,296.49865 C200.64533,295.018328 202.311634,293.270493 203.743823,293.258051 C205.112818,293.245609 206.215283,294.349383 206.254247,295.710192 C206.290265,296.993727 204.598422,299.122693 203.16394,298.927871 Z M223.588814,271.405015 C224.731554,271.432192 225.768859,272.323463 225.992496,273.470131 C226.360857,275.358106 224.020043,277.504426 222.169067,276.97595 C221.155664,276.6865 220.514551,275.918016 220.418614,274.877108 C220.271924,273.28153 222.019103,271.367688 223.588814,271.405015 Z M238.206871,257.978026 C238.451463,258.092955 238.981249,258.251432 239.402654,258.557909 C240.262492,259.183633 240.530986,260.314584 240.156731,261.336828 C239.753662,262.437001 238.292003,263.528988 237.18299,263.558457 C236.074959,263.587599 235.183033,262.996256 234.7816,261.966808 C234.121169,260.271363 235.985242,257.899443 238.206871,257.978026 Z M124.273486,451.739664 C124.107151,452.155503 123.894974,452.950837 123.489613,453.632224 C122.969978,454.506468 121.872424,454.863042 120.928764,454.637441 C119.987723,454.412168 119.144912,453.57525 119.056833,452.603104 C118.944524,451.361152 119.308629,450.222342 120.251306,449.371673 C121.000799,448.69487 121.918265,448.598278 122.835076,449.018046 C123.818028,449.468593 124.293787,450.272112 124.273486,451.739664 Z M485.743521,201.726479 C485.393823,201.6384 484.789056,201.56571 484.251739,201.335197 C483.204937,200.886288 482.638807,199.738964 482.844107,198.673499 C483.053009,197.586751 483.971129,196.712506 485.097497,196.676816 C485.732716,196.656843 486.402315,196.750816 487.006428,196.946948 C488.333839,197.378177 488.964146,198.570031 488.663236,199.886636 C488.390157,201.082092 487.319453,201.821435 485.743521,201.726479 Z M342.885804,204.509655 C342.861247,206.055463 341.327226,207.248299 339.414366,207.209335 C337.92946,207.178884 336.885278,206.037127 336.987109,204.556478 C337.09025,203.067315 338.591855,201.938 340.408778,201.983841 C341.749614,202.017239 342.906105,203.196651 342.885804,204.509655 Z M134.350055,423.995857 C134.133295,424.462776 133.850066,425.350445 133.344838,426.085531 C132.759061,426.937837 131.502703,427.160819 130.549875,426.77936 C129.582967,426.392335 128.903544,425.405126 129.081995,424.320342 C129.210021,423.543345 129.505365,422.744738 129.919895,422.075466 C130.493229,421.150469 131.64972,420.874771 132.647079,421.232 C133.673252,421.599379 134.346126,422.523066 134.350055,423.995857 Z M333.440787,207.488537 C333.352707,209.001274 331.688368,210.227181 329.888145,210.105377 C328.522097,210.013041 327.489703,208.839195 327.570906,207.469218 C327.66095,205.952879 329.306298,204.748255 331.132716,204.861874 C332.510224,204.947334 333.521335,206.098259 333.440787,207.488537 Z M436.751151,196.078597 C436.725283,196.075978 436.338586,196.083181 435.973826,195.998049 C434.894936,195.745926 434.094036,194.73285 434.070134,193.64381 C434.046231,192.585221 434.833051,191.417269 435.891968,191.236854 C436.669947,191.104244 437.526511,191.122253 438.29303,191.305288 C439.475061,191.586879 440.140731,192.731256 440.007139,193.916888 C439.870927,195.131663 439.016655,195.9545 437.753421,196.07565 C437.538626,196.096279 437.320556,196.078597 436.751151,196.078597 Z M349.417524,199.535498 C351.03635,199.501117 352.050736,200.277787 352.317921,201.516791 C352.558583,202.630389 351.955125,203.785898 350.799289,204.257728 C350.257061,204.479073 349.658187,204.622815 349.074702,204.667674 C347.843557,204.762302 346.808215,203.979083 346.534809,202.846167 C346.248306,201.658897 346.740109,200.504043 347.847486,199.998815 C348.427696,199.734249 349.081579,199.631108 349.417524,199.535498 Z M155.822124,367.279388 C157.179004,367.28168 158.296203,368.40903 158.293584,369.772786 C158.290309,371.463975 156.839129,373.127331 155.367975,373.125694 C154.007166,373.124712 152.885055,371.99638 152.889966,370.633934 C152.895533,368.932595 154.342784,367.276769 155.822124,367.279388 Z M172.516069,343.903137 C172.553724,345.502971 171.049827,347.258664 169.611089,347.294354 C168.234236,347.329062 167.110815,346.255084 167.081019,344.875611 C167.045656,343.239104 168.508951,341.517137 169.974211,341.469986 C171.317012,341.427093 172.483653,342.544292 172.516069,343.903137 Z M177.622607,335.525483 C177.655678,337.146601 176.183542,338.825347 174.696344,338.863002 C173.319163,338.89771 172.171512,337.833555 172.124034,336.477657 C172.071318,334.970158 173.663949,333.18074 175.086316,333.149306 C176.516213,333.117545 177.59412,334.127347 177.622607,335.525483 Z M297.151746,222.077485 C297.165171,223.555514 295.517859,225.019465 293.82929,225.030925 C292.487472,225.039766 291.305113,223.891788 291.29398,222.569615 C291.28252,221.118435 292.9557,219.65252 294.643941,219.634511 C296.026034,219.619777 297.139631,220.70456 297.151746,222.077485 Z M185.32719,322.464957 C183.617338,322.408312 182.498501,320.737751 183.09934,319.138244 C183.677258,317.601276 184.753856,316.737182 186.053763,316.767961 C187.088122,316.792191 187.949924,317.391392 188.303551,318.333088 C188.963327,320.08878 187.20698,322.526842 185.32719,322.464957 Z M209.502508,291.475902 C207.808373,291.484415 206.480307,289.766705 207.186578,288.219586 C207.584409,287.348944 208.378105,286.502531 209.211093,286.02317 C210.661291,285.188872 212.497205,286.395133 212.618027,288.084357 C212.726735,289.607572 211.018193,291.468043 209.502508,291.475902 Z M271.572038,236.698455 C271.587755,238.133264 269.883142,239.726223 268.308519,239.748161 C266.964082,239.767152 265.781396,238.630634 265.765024,237.303878 C265.747343,235.879219 267.464726,234.301977 269.05441,234.282659 C270.469246,234.265632 271.556649,235.309487 271.572038,236.698455 Z M378.19831,199.048835 C376.604696,199.057348 375.522532,198.183431 375.36471,196.925436 C375.194445,195.568556 376.057557,194.4101 377.486799,194.124579 C377.907877,194.040429 378.347947,194.011615 378.778193,194.019801 C380.08825,194.044031 381.092485,194.917293 381.248998,196.132394 C381.408457,197.36747 380.68123,198.494819 379.438951,198.853685 C378.976289,198.987605 378.480557,199.006924 378.19831,199.048835 Z M167.580582,352.516476 C167.553733,354.197186 166.062933,355.833693 164.587522,355.801933 C163.212961,355.772464 162.145204,354.651662 162.172053,353.265968 C162.204469,351.580019 163.693304,349.937618 165.162166,349.966759 C166.506931,349.993609 167.60252,351.14879 167.580582,352.516476 Z M466.224227,198.707978 C466.002228,198.655916 465.396478,198.597306 464.861453,198.37105 C463.803519,197.923777 463.273733,196.833755 463.464954,195.712299 C463.653882,194.605577 464.534675,193.787978 465.695751,193.710377 C466.176422,193.678288 466.673791,193.712996 467.148241,193.799766 C468.617758,194.068261 469.480215,195.173672 469.334507,196.541358 C469.191747,197.877609 468.100742,198.743013 466.224227,198.707978 Z M274.148014,232.048522 C274.138846,230.552156 275.752433,229.079037 277.421029,229.061356 C278.795263,229.046949 279.909188,230.137626 279.923922,231.51186 C279.938984,232.93128 278.210796,234.50492 276.623076,234.518345 C275.241639,234.530132 274.156528,233.447313 274.148014,232.048522 Z M321.213543,213.341686 C319.812133,213.341031 318.833437,212.679617 318.47981,211.793258 C318.091803,210.820784 318.295466,209.521859 319.167746,209.010082 C319.973884,208.53727 320.943412,208.220315 321.872665,208.114227 C322.897856,207.997006 323.670269,208.725216 324.042559,209.735018 C324.405355,210.720262 324.181063,211.647223 323.41258,212.233655 C322.667016,212.802732 321.714188,213.099713 321.213543,213.341686 Z M216.781789,278.505223 C217.963493,278.530763 218.973294,279.396822 219.169099,280.552331 C219.473938,282.351899 217.486424,284.385909 215.672448,284.13084 C214.565726,283.975309 213.706216,283.073888 213.596526,281.953414 C213.437722,280.326402 215.151503,278.470515 216.781789,278.505223 Z M137.972899,414.89746 C137.705386,415.40367 137.377299,416.415109 136.733239,417.14954 C135.765349,418.254297 133.877374,417.963864 133.061412,416.74909 C131.969098,415.123715 133.192713,412.294044 135.120307,411.986913 C136.567559,411.7564 137.932952,412.918458 137.972899,414.89746 Z M476.242873,195.068174 C476.49958,195.134642 477.10402,195.209952 477.638062,195.444721 C478.900314,196.000046 479.41733,197.500342 478.831554,198.7197 C478.346954,199.729502 477.357453,200.254376 476.153484,200.120456 C474.8634,199.976713 473.671546,199.650918 473.256689,198.203012 C472.762921,196.479735 474.027793,194.994174 476.242873,195.068174 Z M407.605834,191.281581 C409.414898,191.281909 410.514089,192.200029 410.597584,193.614865 C410.679115,194.993355 409.652614,196.088617 408.082903,196.27689 C407.762019,196.3152 407.43164,196.321421 407.109119,196.294572 C405.665142,196.174404 404.604916,195.09224 404.62227,193.776944 C404.638969,192.498648 405.573789,191.542545 406.996155,191.351652 C407.263995,191.315634 407.533144,191.289767 407.605834,191.281581 Z M121.229413,460.993788 C121.020183,461.478061 120.774609,462.387668 120.272655,463.121772 C119.662648,464.014025 118.659068,464.152202 117.640426,463.865698 C116.674173,463.593274 115.915839,462.727543 116.00752,461.700715 C116.085777,460.81763 116.355254,459.889686 116.78288,459.115636 C117.300551,458.177542 118.491095,457.906101 119.502207,458.248923 C120.486796,458.582904 121.203873,459.554396 121.229413,460.993788 Z M244.496848,257.217008 C243.1308,257.175097 242.061405,256.035632 242.09906,254.66238 C242.139007,253.19974 243.870142,251.618241 245.39696,251.649675 C246.778724,251.678161 247.825526,252.791104 247.786889,254.190223 C247.746615,255.649262 245.991904,257.263176 244.496848,257.217008 Z M263.42493,242.295487 C263.389567,243.79349 261.667928,245.30721 260.061872,245.253184 C258.710886,245.207671 257.702394,244.170692 257.700757,242.824945 C257.698465,241.305986 259.334972,239.799797 260.979665,239.807001 C262.420367,239.813877 263.458983,240.870174 263.42493,242.295487 Z" id="Combined-Shape" fill="url(#linearGradient-1)"></path>
        </g>
        <path d="" id="Path-3" stroke="#979797"></path>
    </g>
</svg>