<svg class="icon-medium" xmlns="http://www.w3.org/2000/svg" viewBox="0 0 393.541 393.541"><path d="M384.045 363.08L262.84 304.81l-.913-264.132c-.02-6.166 6.416-10.23 11.973-7.557L388.808 88.38c2.893 1.39 4.733 4.317 4.733 7.527v261.2c0 4.882-5.097 8.087-9.495 5.972z" fill-opacity=".4"/><path d="M262.84 304.812L131.66 241.74 257.948 33.818c2.23-3.673 6.886-5.054 10.76-3.192l116.513 56.03c4.455 2.14 6.086 7.66 3.51 11.878L262.84 304.812z" fill-opacity=".6"/><path d="M262.84 304.812L131.66 241.74 11.42 45.942c-3.35-5.455 2.48-11.914 8.25-9.14l111.99 53.853 131.18 214.157z" fill-opacity=".8"/><path d="M122.164 363.078l-118.41-56.94C1.46 305.034 0 302.713 0 300.168V37.547c0-4.726 4.937-7.83 9.197-5.782l122.463 58.89v266.45c0 4.882-5.098 8.087-9.496 5.972z" fill-opacity="1"/></svg>