<svg class="icon-github" xmlns="http://www.w3.org/2000/svg" viewBox="0 0 438.55 438.55"><path d="M409.13 114.57c-19.6-33.6-46.2-60.2-79.8-79.8-33.6-19.6-70.27-29.4-110.06-29.4-39.78 0-76.47 9.8-110.06 29.4-33.6 19.6-60.1 46.2-79.8 79.8C9.8 148.17 0 184.85 0 224.63c0 47.78 13.94 90.75 41.83 128.9 27.88 38.17 63.9 64.58 108.06 79.23 5.1.96 8.9.3 11.4-2 2.4-2.27 3.7-5.13 3.7-8.55l-.2-15.4c-.1-9.7-.2-18.2-.2-25.4l-6.6 1.2c-4.2.8-9.5 1.1-15.9 1-6.4-.1-13-.7-19.9-2-6.9-1.2-13.28-4.1-19.18-8.5s-10.1-10.3-12.58-17.5l-2.8-6.6c-1.9-4.3-4.9-9.2-9-14.5-4.06-5.33-8.2-8.94-12.4-10.84l-2-1.42c-1.3-.9-2.56-2.1-3.7-3.4-1.13-1.3-2-2.65-2.56-4s-.1-2.4 1.4-3.3c1.52-.83 4.3-1.24 8.3-1.24l5.7.9c3.8.73 8.5 3 14.12 6.82 5.6 3.8 10.2 8.76 13.82 14.85 4.3 7.8 9.6 13.75 15.8 17.84 6.2 4.1 12.4 6.15 18.7 6.15 6.2 0 11.7-.46 16.2-1.4 4.58-.95 8.86-2.4 12.86-4.3 1.7-12.74 6.37-22.54 14-29.4-10.9-1.13-20.6-2.85-29.3-5.13-8.63-2.3-17.6-6-26.8-11.13-9.28-5.1-16.9-11.5-23-19.1-6.1-7.6-11.1-17.6-15-29.97-3.9-12.36-5.88-26.64-5.88-42.8 0-23.04 7.55-42.64 22.58-58.8-7.06-17.34-6.4-36.75 2-58.26 5.5-1.7 13.7-.46 24.54 3.8s18.8 7.98 23.84 11c5.05 3.07 9.1 5.6 12.1 7.7 17.7-4.9 36-7.4 54.86-7.4s37.1 2.5 54.8 7.44l10.82-6.9c7.4-4.6 16.16-8.8 26.24-12.6 10.1-3.87 17.8-4.9 23.15-3.2 8.52 21.5 9.3 40.95 2.24 58.27 15.1 16.14 22.6 35.74 22.6 58.76 0 16.2-1.9 30.5-5.8 42.94-3.9 12.5-8.98 22.42-15.1 30-6.2 7.5-13.9 13.8-23.18 19-9.2 5.1-18.2 8.8-26.8 11.1-8.7 2.24-18.4 4-29.3 5.1 9.9 8.57 14.86 22.1 14.86 40.55v60.2c0 3.4 1.2 6.2 3.6 8.5 2.35 2.3 6.1 2.93 11.24 2 44.14-14.68 80.2-41.1 108.04-79.25 27.9-38.15 41.8-81.1 41.8-128.9 0-39.77-9.8-76.45-29.4-110.05z" stroke-width="1px" stroke="rgb(32,31,31,0)" /></svg>