<svg class="icon-dribbble" xmlns="http://www.w3.org/2000/svg" viewBox="0 0 438.533 438.533"><path d="M409.133 109.203c-19.608-33.592-46.205-60.19-79.798-79.796C295.735 9.8 259.058 0 219.273 0c-39.78 0-76.47 9.8-110.063 29.407-33.595 19.604-60.192 46.2-79.8 79.796C9.8 142.8 0 179.49 0 219.267c0 39.78 9.804 76.463 29.407 110.062 19.607 33.59 46.204 60.188 79.8 79.797 33.596 19.605 70.282 29.407 110.062 29.407s76.47-9.802 110.064-29.407c33.593-19.602 60.19-46.206 79.795-79.798 19.602-33.597 29.402-70.285 29.402-110.063 0-39.782-9.8-76.472-29.4-110.064zM219.27 31.977c47.2 0 88.41 15.607 123.62 46.82l-3.568 4.993c-1.427 2.002-4.996 5.852-10.704 11.565-5.71 5.708-11.943 11.136-18.7 16.274-6.76 5.14-15.94 10.99-27.554 17.558-11.61 6.567-23.982 12.328-37.117 17.276-21.887-40.355-45.296-76.71-70.23-109.064 15.038-3.616 29.788-5.423 44.253-5.423zM72.524 103.06c18.27-23.026 40.537-40.73 66.806-53.1 23.6 31.405 46.82 67.38 69.662 107.92C151.13 173.11 93.46 180.723 35.978 180.72c6.094-28.74 18.275-54.63 36.546-77.66zM44.54 286.794c-8.376-21.412-12.563-43.923-12.563-67.527 0-2.666.098-4.665.286-5.996 68.905 0 132.955-8.847 192.15-26.552 6.09 11.8 11.135 22.364 15.132 31.693-.77.38-2 .807-3.713 1.284-1.72.476-2.953.806-3.72 1l-10.562 3.71c-7.236 2.666-16.708 7.235-28.41 13.703-11.703 6.478-24.122 14.182-37.256 23.13-13.134 8.95-26.696 20.797-40.684 35.553-13.99 14.75-25.743 30.59-35.26 47.53-15.227-16.94-27.026-36.12-35.4-57.526zM219.27 406.56c-44.54 0-84.32-14.277-119.343-42.825l4.283 3.142c6.66-14.66 16.462-28.746 29.408-42.257 12.944-13.51 25.41-24.413 37.4-32.695 11.992-8.274 25.03-16.077 39.116-23.414 14.084-7.322 23.69-11.99 28.835-13.982 5.14-1.998 9.232-3.572 12.277-4.716l.568-.287h.575c18.647 48.916 31.977 96.313 39.968 142.184-23.602 9.9-47.96 14.847-73.088 14.85zm157.606-86.08c-14.086 21.795-31.696 39.833-52.817 54.103-7.81-43.776-19.986-88.415-36.55-133.902 37.877-5.906 76.8-3.14 116.77 8.275-4.188 25.886-13.325 49.732-27.404 71.524zm26.83-103.782c-1.903-.378-4.285-.81-7.14-1.283-2.853-.473-6.33-1.047-10.423-1.713-4.087-.666-8.662-1.283-13.702-1.855-5.044-.57-10.42-1.093-16.135-1.57-5.708-.477-11.8-.854-18.268-1.142-6.48-.284-13.042-.428-19.705-.428-6.656 0-13.657.193-20.98.57-7.327.376-14.415 1.05-21.266 2-.575-.953-1.287-2.524-2.143-4.714-.855-2.187-1.48-3.855-1.848-4.997-3.62-7.994-7.81-17.036-12.573-27.12 13.134-5.334 25.652-11.47 37.555-18.42 11.892-6.948 21.402-13.13 28.544-18.554 7.14-5.43 13.896-11.188 20.27-17.277 6.38-6.09 10.514-10.323 12.424-12.703 1.906-2.384 3.713-4.714 5.424-6.995l.287-.288c27.788 33.88 41.974 72.896 42.538 117.058l-2.857-.57z"/></svg>