<svg class="icon-instagram" xmlns="http://www.w3.org/2000/svg" viewBox="0 0 97.4 97.4"><path d="M12.5 0H85c6.8 0 12.4 5 12.4 12.5V85c0 7.3-5.6 12.4-12.5 12.4H12.4C5.5 97.4 0 92.4 0 85V12.4C0 5 5.6 0 12.5 0zM71 10.8c-2.5 0-4.4 2-4.4 4.4v10.5c0 2.4 2 4.4 4.3 4.4h11c2.4 0 4.3-2 4.3-4.3V15.2c0-2.4-2-4.4-4.3-4.4H71zm15.4 30.4h-8.6c.8 2.6 1.3 5.4 1.3 8.3C79 65.7 65.6 79 49 79S18.5 65.6 18.5 49.4c0-3 .5-5.7 1.3-8.3h-9v41c0 2.3 1.8 4 4 4h67.7c2 0 4-1.7 4-4v-41zM48.8 29.5c-10.8 0-19.6 8.5-19.6 19s8.8 19 19.6 19 19.6-8.5 19.6-19-8.8-19-19.6-19z"/></svg>