<svg class="logo-fnd" viewBox="0 0 712 113" version="1.1" xmlns="http://www.w3.org/2000/svg" xmlns:xlink="http://www.w3.org/1999/xlink">
  <g fill="#fff">
    <path d="M668.207,110.396 L674.872,110.396 L674.872,63.261 L711.607,1.861 L704.012,1.861 L678.282,44.655 C675.027,49.926 671.617,56.904 671.617,56.904 L671.307,56.904 C671.307,56.904 667.742,49.926 664.642,44.655 L638.912,1.861 L631.317,1.861 L668.207,63.261 L668.207,110.396 L668.207,110.396 Z"></path>
    <path d="M549.632,110.396 L556.297,110.396 L556.297,56.128 L582.847,56.128 L613.182,110.396 L621.087,110.396 L596.752,65.276 C595.357,62.64 594.272,61.4 594.272,61.4 C606.982,58.299 615.972,46.67 615.972,31.165 C615.972,18.761 609.927,9.613 600.937,5.117 C596.597,2.946 591.482,1.861 581.407,1.861 L549.632,1.861 L549.632,110.396 L549.632,110.396 Z M556.297,56.128 L556.297,8.063 L581.097,8.063 C589.777,8.063 593.187,8.838 596.287,10.233 C604.192,13.8 608.997,21.552 608.997,31.165 C608.997,45.895 600.007,56.128 585.747,56.128 L556.297,56.128 L556.297,56.128 Z"></path>
    <path d="M434.776,110.396 L468.876,110.396 C501.117,110.396 522.972,90.705 522.972,56.128 C522.972,21.707 501.117,1.861 468.876,1.861 L434.776,1.861 L434.776,110.396 L434.776,110.396 Z M441.441,104.194 L441.441,8.063 L467.791,8.063 C496.621,8.063 515.997,25.118 515.997,56.128 C515.997,87.294 496.621,104.194 467.791,104.194 L441.441,104.194 L441.441,104.194 Z"></path>
    <path d="M318.216,110.396 L324.881,110.396 L324.881,25.273 C324.881,19.846 324.106,11.629 324.106,11.629 L324.416,11.629 C324.416,11.629 329.686,20.312 333.251,25.273 L395.096,110.396 L401.296,110.396 L401.296,1.861 L394.631,1.861 L394.631,86.983 C394.631,92.41 395.406,100.628 395.406,100.628 L395.096,100.628 C395.096,100.628 389.826,91.945 386.261,86.983 L324.416,1.861 L318.216,1.861 L318.216,110.396 L318.216,110.396 Z"></path>
    <path d="M205.221,73.184 C205.221,97.062 221.961,112.257 245.831,112.257 C269.701,112.257 286.286,97.062 286.286,73.184 L286.286,1.861 L279.621,1.861 L279.621,72.564 C279.621,93.341 266.136,105.9 245.676,105.9 C225.216,105.9 211.886,93.341 211.886,72.874 L211.886,1.861 L205.221,1.861 L205.221,73.184 L205.221,73.184 Z"></path>
    <path d="M71.145,55.353 C71.145,87.294 95.79,112.257 126.015,112.257 C156.24,112.257 180.886,87.294 180.886,55.353 C180.886,24.188 156.24,0 126.015,0 C95.79,0 71.145,24.188 71.145,55.353 L71.145,55.353 Z M78.12,55.353 C78.12,27.599 99.51,6.357 126.015,6.357 C152.52,6.357 173.911,27.599 173.911,55.353 C173.911,83.882 152.52,105.9 126.015,105.9 C99.51,105.9 78.12,83.882 78.12,55.353 L78.12,55.353 Z"></path>
    <path d="M0.06,110.396 L6.665,110.396 L6.665,59.539 L48.205,59.539 L48.205,53.337 L6.665,53.337 L6.665,8.063 L54.715,8.063 L54.715,1.861 L0.06,1.861 L0.06,110.396 L0.06,110.396 Z"></path>
  </g>
</svg>