<svg xmlns="http://www.w3.org/2000/svg" width="323.1" height="72.2" viewBox="0 0 323.1 72.2"><g fill="#fff"><path d="M2 25.4l6.7 16 6.7-16h2v18.1h-1.5v-7.9l.1-8.1-6.7 16H8.1L1.4 27.6l.1 8v7.9H0V25.4h2zM29.6 43.5c-.1-.2-.1-.5-.2-.9s-.1-.7-.1-1c-.2.3-.5.6-.8.8-.3.3-.7.5-1 .7-.4.2-.8.3-1.3.5s-1 .2-1.5.2c-.7 0-1.3-.1-1.8-.3-.5-.2-1-.5-1.4-.8-.4-.3-.7-.7-.9-1.2-.2-.5-.3-1-.3-1.5 0-.7.1-1.2.4-1.8s.7-1 1.2-1.3 1.2-.7 1.9-.8c.8-.2 1.6-.3 2.6-.3h2.8v-1.5c0-1-.3-1.7-.9-2.3-.6-.6-1.5-.8-2.6-.8-.5 0-1 .1-1.4.2-.4.1-.8.3-1.1.6s-.6.5-.7.9-.3.7-.3 1.1h-1.5c0-.5.1-1 .4-1.5.2-.5.6-.9 1.1-1.3.5-.4 1-.7 1.6-.9.6-.2 1.3-.3 2.1-.3.7 0 1.4.1 2 .3s1.1.5 1.6.8.8.8 1 1.4c.2.5.4 1.2.4 1.9v7.2s0 .5.1.7c0 .2.1.5.1.7s.1.4.2.6v.1h-1.7zm-4.7-1c.5 0 1-.1 1.5-.2s.9-.3 1.3-.6c.4-.2.7-.5 1-.8s.5-.7.7-1v-3h-2.6c-.8 0-1.4.1-2 .2s-1.1.3-1.5.6c-.4.3-.7.6-1 .9-.2.4-.3.8-.3 1.3 0 .4.1.7.2 1 .1.3.3.6.6.8.3.2.6.4 1 .6.2.1.6.2 1.1.2zM33.5 36.7c0-1 .1-2 .4-2.8.2-.8.6-1.6 1-2.2s1-1.1 1.6-1.4c.6-.3 1.4-.5 2.2-.5 1 0 1.8.2 2.5.6.7.4 1.3.9 1.7 1.6v-7.6h1.5v19.1H43l-.1-1.8c-.4.6-1 1.1-1.7 1.5-.7.4-1.5.5-2.5.5-.8 0-1.5-.2-2.2-.5s-1.2-.8-1.6-1.4c-.4-.6-.8-1.3-1-2.2-.2-.8-.4-1.8-.4-2.8v-.1zm1.5.3c0 .8.1 1.5.2 2.2s.4 1.3.7 1.8.7.9 1.2 1.2c.5.3 1.1.4 1.8.4.5 0 1-.1 1.4-.2.4-.1.8-.3 1.1-.5.3-.2.6-.5.8-.8.2-.3.4-.6.6-1v-6.3c-.1-.3-.3-.7-.5-1s-.5-.6-.8-.8c-.3-.2-.7-.4-1.1-.6s-.9-.2-1.4-.2c-.7 0-1.3.1-1.8.4-.5.3-.9.7-1.2 1.2s-.6 1.1-.7 1.8-.3 1.3-.3 2.1v.3zM52.8 43.8c-.9 0-1.7-.2-2.4-.5s-1.4-.8-1.9-1.4c-.5-.6-1-1.3-1.3-2.1-.3-.8-.4-1.7-.4-2.7v-.5c0-1 .2-2 .5-2.8.3-.8.7-1.6 1.3-2.2.5-.6 1.1-1.1 1.8-1.4.7-.3 1.4-.5 2.2-.5.9 0 1.6.2 2.3.5.7.3 1.2.7 1.7 1.3.5.5.8 1.2 1 2 .2.8.3 1.6.3 2.5v.9h-9.6v.3c0 .7.1 1.4.3 2.1.2.7.5 1.2.9 1.7s.9.9 1.5 1.1c.6.3 1.2.4 1.9.4.8 0 1.5-.1 2.1-.4.6-.3 1.2-.8 1.7-1.4l.9.7c-.2.3-.5.6-.8.9-.3.3-.6.5-1 .8-.4.2-.8.4-1.3.5-.5.1-1 .2-1.7.2zm-.2-12.7c-.6 0-1.1.1-1.6.3s-.9.5-1.3.9-.7.9-.9 1.4c-.2.6-.4 1.2-.5 1.9h8.1v-.2c0-.6-.1-1.1-.3-1.6s-.4-1-.7-1.4c-.3-.4-.7-.7-1.2-1-.4-.2-1-.3-1.6-.3zM69 40.4l.2 1.2.3-1.2 3.2-10.3H74l3.2 10.2.3 1.4.3-1.3 2.8-10.3h1.5l-3.9 13.5h-1.3l-3.5-10.7-.2-.7-.2.7-3.4 10.7h-1.3l-3.9-13.5h1.5L69 40.4zM84.2 26.2c0-.3.1-.5.3-.7s.4-.3.7-.3.6.1.8.3c.2.2.3.4.3.7s-.1.5-.3.7c-.2.2-.4.3-.8.3s-.6-.1-.7-.3c-.2-.2-.3-.4-.3-.7zM86 43.5h-1.5V30.1H86v13.4zM91.7 26.6V30h2.8v1.2h-2.8v9c0 .5 0 .9.1 1.1.1.3.2.5.4.7.2.2.3.3.6.3.2.1.4.1.7.1h.6s.4-.1.6-.1l.1 1.2c-.2.1-.4.1-.7.2s-.6.1-.9.1c-.4 0-.8-.1-1.2-.2-.4-.1-.7-.3-.9-.6-.3-.3-.5-.6-.6-1.1-.1-.5-.2-1-.2-1.7v-9h-2.5V30h2.5v-3.4h1.4zM98.4 32.4c.2-.4.5-.7.8-1 .3-.3.6-.6 1-.8.4-.2.8-.4 1.2-.5s.9-.2 1.4-.2c.7 0 1.3.1 1.8.3s1 .5 1.4.9c.4.4.7.9.8 1.5.2.6.3 1.4.3 2.3v8.8h-1.5v-8.8c0-.7-.1-1.3-.2-1.7-.1-.5-.4-.8-.6-1.1s-.6-.5-1-.6-.8-.2-1.3-.2-1 .1-1.4.3-.8.4-1.1.7-.6.6-.9 1l-.6 1.2v9.2H97V24.4h1.5v8z"/><path d="M190.9 36.1l4.4-7.6L187.6 0l-28.5 7.6-4.4 7.6h-8.8L125 36.1 145.9 57h8.8l4.4 7.6 28.5 7.6 7.6-28.5-4.3-7.6zm-35.5-19.6l22-5.9-12.7 22h-25.4l16.1-16.1zm0 39.3l-16.1-16.1h25.4l12.7 22-22-5.9zm28.2 2.3l-12.7-22 12.7-22 5.9 22-5.9 22zM235.9 22.2h-7v15.7c0 4.1-1.7 7.4-6.7 7.4-4.9.1-6.3-3.3-6.3-7.6V22.2h-7v17.2c0 5.1 1.6 12.3 11.1 12.4 5.2.1 7.9-2.5 8.9-4.8v4.2h7v-29zM238.4 51.2h7V34.9c0-4.1 1.7-7.3 6.7-7.4 4.9 0 6.3 3.3 6.3 7.7v16.1h7V33.4c0-5.1-1.7-12.4-11.2-12.4-5.2-.1-7.7 2.6-9 4.9.1-1.4.1-2.7.1-3.7h-6.9v29zM267.9 18.2h7v-6h-7v6zm0 33h7v-29h-7v29zM281.9 51.2h7v-24h4.8l-2.1-5h-2.8v-10h-7v10h-5v5h5v24zM300.4 61.2h7.4l15.3-39h-7.4l-7 19.3-7.1-19.3h-7.4l11 27.8-4.8 11.2z"/></g></svg>