<svg class="logo-surfjack" viewBox="0 0 130 46" version="1.1" xmlns="http://www.w3.org/2000/svg">
  <g fill="#fff">
    <path d="M30.3,-0.3 C30.3,-0.2 30.3,-0.3 30.3,-0.3 L30.3,-0.3 L30.3,-0.3 L30.3,-0.3 Z M30.6,21.2 C30.6,21.6 30.5,22 30.5,22.4 L30.5,23.8 C30.5,24.7 30.4,25.6 30.4,26.4 C30.4,27.2 30.4,28.2 30.5,29.1 C30.6,29.9 30.6,30.8 30.7,31.6 C30.8,32 30.8,32.9 31.4,32.9 C31.9,32.9 32.4,32.4 32.8,32.1 C33.5,31.6 34.3,31.1 35,30.6 C35.7,30.1 36.4,29.6 37,29.1 C37.3,28.8 37.6,28.6 37.8,28.3 C38,28 38,27.6 38,27.2 C38.1,26.3 38.1,25.5 38.2,24.6 C38.3,23.7 38.4,22.8 38.4,21.9 C38.5,20.1 38.6,18.4 38.6,16.6 C38.6,15.8 38.5,14.9 38.8,14.2 C38.9,13.9 39.2,13.7 39.5,13.8 C39.8,13.8 40.1,13.9 40.5,13.8 C40.8,13.8 41.1,13.8 41.3,13.9 C41.7,14.1 41.9,14.5 42.1,14.8 C42.5,15.4 42.9,16.2 43.6,16.5 C43.9,16.6 44.3,16.8 44.6,17 C44.8,17.1 44.9,17.2 45.1,17.3 C45.3,17.4 45.5,17.4 45.8,17.5 C46.6,17.8 47.4,18.1 48.2,18.2 C48.9,18.3 49.6,18.3 50.3,18.4 C50.9,18.5 51.4,18.7 51.5,19.4 C51.6,19.8 51.5,20.3 51.5,20.7 C51.5,21.1 51.4,21.6 51.3,22 C51.1,22.9 51,23.7 50.9,24.6 C50.7,26.4 50.3,28.1 50,29.8 C49.9,30.2 49.9,30.7 49.8,31.1 C49.7,31.6 49.6,32 49.8,32.5 C50,33.2 50.6,33.9 51.1,34.4 C51.3,34.6 51.6,34.8 51.6,35.1 C51.6,35.4 51.4,35.6 51.1,35.7 C50.5,36 49.7,36.2 49.1,36 C48.4,35.8 47.8,35.2 47.3,34.6 C46.9,34 46.7,33.3 46.7,32.6 C46.6,31.8 46.5,31 46.5,30.2 L46.5,27.7 C46.5,27.3 46.6,26.9 46.6,26.5 C46.6,26 46.6,25.6 46.7,25.1 C46.8,24.4 47.1,23.7 47.1,23 C47.1,22.2 46.4,21.9 45.8,21.5 C45.1,21 44.3,20.7 43.6,20.3 C43.2,20.1 42.9,19.9 42.5,19.7 C42.2,19.5 41.8,19.3 41.5,19.5 C41.3,19.7 41.2,20 41.2,20.3 C41.2,20.7 41.1,21.2 41.1,21.6 C41,22 41.1,22.4 41,22.9 C41,23.3 40.8,23.8 40.8,24.2 C40.8,24.6 40.8,25 40.7,25.4 C40.7,25.8 40.5,26.2 40.6,26.7 C40.6,26.9 40.7,27.1 40.7,27.3 C40.7,27.5 40.6,27.7 40.6,27.8 L40.6,29.1 C40.6,29.5 40.5,30 40.5,30.4 C40.5,30.8 40.5,31.1 40.4,31.5 C40.3,31.8 40.2,32.2 40,32.4 C39.7,32.7 39.4,32.8 39,33 C38.2,33.4 37.4,33.7 36.7,34.1 C35.2,35 33.6,35.7 31.9,36.3 C31.1,36.6 30.2,36.8 29.4,37 C29.1,37.1 28.7,37.2 28.4,37.2 C28.1,37.3 27.8,37.2 27.7,36.9 C27.6,36.6 27.7,36.3 27.7,36.1 C27.7,35.6 27.6,35.2 27.6,34.7 C27.5,33.8 27.5,32.9 27.5,32 L27.5,30.7 C27.5,30.4 27.5,30 27.1,29.9 C26.4,29.6 25.8,30.4 25.3,30.8 C24.7,31.3 24,31.8 23.3,32.3 C23,32.5 22.6,32.7 22.3,33 C21.9,33.2 21.7,33.6 21.3,33.8 C21,34 20.7,34.1 20.3,34.2 C19.9,34.4 19.6,34.6 19.2,34.7 C18.7,34.9 17.9,35.4 17.6,34.8 C17.4,34.4 17.3,33.9 17.3,33.5 C17.2,32.6 17,31.7 16.9,30.8 C16.4,27.2 16.2,23.6 16,20 C15.9,19.2 15.8,18.3 15.8,17.5 L15.8,16.3 C15.8,16 15.7,15.6 15.8,15.3 C16.1,14.7 17.1,14.9 17.6,15 C17.8,15 17.9,14.9 18.1,14.9 C18.3,14.9 18.5,15 18.7,15 C19,15 19.3,15 19.5,15.3 C19.7,15.6 19.6,16.1 19.6,16.4 C19.6,16.8 19.7,17.2 19.7,17.7 L19.7,18.9 C19.7,19.4 19.8,19.8 19.8,20.3 L19.8,22.9 C19.8,23.8 19.9,24.7 19.9,25.6 C19.9,26.5 19.9,27.3 20,28.1 C20.1,28.7 20.2,29.3 20.9,29.5 C21.6,29.7 22.4,29.3 22.9,28.9 C23.2,28.7 23.4,28.4 23.5,28.1 C23.6,27.7 23.8,27.4 24,27 C24.4,26.2 24.8,25.4 25.2,24.7 C25.6,24 25.9,23.2 26.3,22.5 C26.7,21.7 27,20.9 27.4,20.2 C27.7,19.5 27.9,18.8 28.4,18.2 C28.8,17.7 29.5,17.2 30.1,17.4 C30.8,17.6 30.4,18.7 30.4,19.2 C30.7,18.6 30.8,18.5 30.7,18.5 L30.7,18.9 C30.7,18.8 30.8,18.5 30.7,18.5 C30.7,19.4 30.7,20.3 30.6,21.2 L30.6,21.2 Z M99.1,37.7 C98.5,37.7 98.4,37.2 98.4,36.7 C98.4,36 98.4,35.3 98.6,34.6 C98.7,34.2 98.8,33.9 98.7,33.5 C98.7,33.3 98.8,32.8 98.7,32.6 C98.5,32.1 97.7,32.7 97.5,32.8 C96.2,33.6 94.9,34.3 93.6,35 C93.1,35.3 92.5,35.5 92,35.8 C91.7,36 91.2,36.3 90.8,36.1 C90.4,35.8 90.6,35.1 90.7,34.7 C90.9,34 90.9,33.4 90.9,32.7 C90.9,32.4 91.1,32 91,31.7 C91,31.5 90.9,31.4 91,31.2 C91.1,31 91.1,30.9 91.1,30.8 C91,30.1 91.1,29.4 91.1,28.7 C91.1,28.3 91.1,28 91.2,27.6 C91.3,27.2 91.3,26.9 91.2,26.5 C91.1,26.1 91.2,25.7 91.1,25.3 C90.9,23.9 88.7,26 88.3,26.4 C87.8,26.9 87.4,27.5 86.9,28 C86.4,28.6 85.9,29.1 85.4,29.7 C84.4,30.9 83.3,31.9 82.4,33.2 C82,33.8 81.6,34.4 81.1,35 C80.6,35.5 80,35 79.5,34.8 C79.3,34.7 79,34.6 78.9,34.5 C78.7,34.2 78.7,33.8 78.7,33.5 C78.6,32.7 78.6,32.1 78.7,31.3 C78.8,30.5 78.8,29.8 78.9,29.1 C79,28.3 79.1,27.6 79.2,26.9 C79.3,26.2 79.5,25.5 79.6,24.7 C79.6,23.9 79.7,23.2 79.9,22.5 C80.1,21.8 80.2,21 80.4,20.3 C80.6,19.6 80.9,18.9 81,18.2 C81.1,17.5 81.4,16.9 81.6,16.2 C81.8,15.6 82.1,15 82.7,14.8 C83.4,14.5 84,14.6 84.8,14.6 C85.6,14.6 86.3,14.6 87.1,14.7 L88.2,14.7 C88.6,14.7 89,14.8 89.4,14.9 C90.1,15.1 90.7,15.2 91.4,15.4 C91.9,15.6 92.6,15.8 92.9,15.2 C93.1,14.7 93.2,14.1 93.4,13.5 C93.6,12.9 94,12.6 94.6,12.7 C95.2,12.8 95.7,13.2 95.8,13.8 C95.8,14.5 95.6,15.3 95.5,16 C95.4,16.8 95.3,17.6 95.2,18.3 L94.6,23.1 C94.5,23.9 94.4,24.6 94.3,25.4 C94.2,26.2 94.2,27 94.2,27.8 C94.2,28.4 94,29.2 94.1,29.8 C94.3,30.6 95,30.3 95.5,30.1 C95.8,30 96,29.8 96.2,29.6 C96.5,29.4 96.8,29.3 97.1,29.2 C97.4,29.1 97.6,28.9 97.8,28.6 C98.1,28.3 98.5,28.2 98.8,28 C99.3,27.7 99.8,27.2 100.1,26.7 C100.3,26.4 100.3,26.1 100.3,25.8 C100.3,25.4 100.5,25 100.6,24.6 C100.7,24.3 100.9,24.1 101.1,23.8 C101.2,23.5 101.3,23.1 101.4,22.8 C101.5,22.5 101.7,22.3 101.9,22 C102.1,21.7 102.2,21.4 102.3,21 C102.4,20.7 102.6,20.4 102.8,20.1 C103,19.8 103.2,19.5 103.3,19.1 C103.5,18.8 103.7,18.5 103.9,18.3 C104.1,18 104.4,17.6 104.6,17.3 C105,16.7 105.4,16.1 105.8,15.6 C106,15.3 106.3,15.1 106.5,14.8 C106.7,14.5 106.8,14.2 107.2,14 C107.8,13.7 108.4,13.9 109,14.2 C109.7,14.5 110,15.1 109.7,15.8 C109.6,16.1 109.4,16.4 109.2,16.7 C109,17 108.9,17.4 108.7,17.7 C108.3,18.3 107.8,18.9 107.5,19.5 C107.2,20.1 106.6,20.6 106.3,21.2 C105.9,21.9 105.5,22.5 105.1,23.1 C104.3,24.4 103.6,25.7 102.8,27 C102.4,27.6 102.1,28.2 101.9,28.8 C101.6,29.5 101.2,30.2 101,30.9 C100.8,31.6 100.4,32.2 100.4,33 L100.4,33.9 C100.4,34.2 100.5,34.4 100.9,34.4 C101.6,34.4 102.2,34 102.8,33.8 C103.5,33.5 104.1,33.1 104.7,32.7 C105.3,32.4 105.9,32 106.5,31.6 C107.1,31.2 107.8,30.9 108.5,30.5 C108.9,30.3 109.5,29.7 109.9,30.2 C110.2,30.6 110.4,31.4 110.2,31.9 C110,32.4 109.5,32.7 109.1,33 C108.5,33.4 107.9,33.9 107.3,34.3 C106.7,34.7 106,35 105.3,35.4 C104.7,35.8 104,36.1 103.3,36.4 C102.6,36.7 102,37 101.3,37.1 C100.6,37.4 99.8,37.5 99.1,37.7 L99.2,37.7 C99.2,37.6 99.1,37.6 99.1,37.7 C99.1,37.7 99.2,37.6 99.1,37.7 C99.2,37.6 99,37.7 99.1,37.7 C98.4,37.6 99.4,37.6 99.1,37.7 L99.1,37.7 L99.1,37.7 Z M81.5,27.4 C81.4,27.4 81.5,28.7 81.6,28.8 C81.7,29.1 82.2,29.1 82.5,29.1 C83,29 83.4,28.7 83.7,28.5 C84.6,27.8 85.4,27 86.2,26.2 C86.6,25.8 87,25.5 87.4,25.1 C87.6,24.9 87.7,24.7 87.8,24.5 C87.9,24.3 88.1,24.1 88.3,23.9 C88.7,23.5 89,23 89.2,22.5 C89.5,22 89.8,21.6 90.1,21 C90.3,20.6 90.4,20.2 90,20 C89.8,19.9 89.5,19.8 89.3,19.8 C89,19.7 88.8,19.6 88.5,19.5 C87.4,19.2 86.2,19 85,18.9 C84.8,18.9 84.5,18.9 84.3,18.8 C84,18.8 83.8,18.7 83.5,18.8 C83.1,18.9 83,19.4 82.9,19.7 C82.7,20.4 82.6,21 82.4,21.7 C82.2,22.3 82,23 81.9,23.6 C81.8,24.2 81.6,24.9 81.5,25.5 C81.5,25.8 81.4,26.2 81.4,26.5 L81.4,27.2 C81.5,27.1 81.5,27.5 81.5,27.4 C81.5,27.5 81.5,27.3 81.5,27.4 C81.5,27.3 81.5,27.4 81.5,27.4 C81.5,27.4 81.5,27.3 81.5,27.4 C81.5,27.3 81.5,27.4 81.5,27.4 C81.4,27.4 81.5,27.2 81.5,27.4 L81.5,27.4 L81.5,27.4 Z M91.2,32.6 C91.3,32.5 91.3,32.5 91.2,32.6 C91.2,32.5 91.2,32.6 91.2,32.6 C91.2,32.6 91.2,32.5 91.2,32.6 C91.3,32.5 91.2,32.6 91.2,32.6 L91.2,32.6 L91.2,32.6 Z M69.5,21.9 C70.1,23.7 66.4,24 65.4,24.2 L63.9,24.5 C63.6,24.5 63.3,24.6 63.2,24.9 C63.1,25.3 63.4,25.9 63.5,26.2 C63.7,26.7 63.8,27.3 63.9,27.8 C64,28.3 64.2,28.8 64.3,29.3 C64.4,29.8 64.5,30.4 64.6,30.9 C64.8,32 64.8,33 64.8,34.1 C64.9,35.1 64.6,36.1 64.1,36.9 C63.6,37.7 62.8,38.4 62.1,39 C60.7,40.4 59.2,41.7 57.5,42.8 C57.1,43.1 56.6,43.4 56.2,43.6 C56,43.7 55.7,43.8 55.5,43.9 C55.3,44 55.1,44.1 54.9,44.3 C54.6,44.5 54,44.7 53.6,44.6 C53.2,44.5 53.2,43.9 53.2,43.6 C53.2,43.1 53.3,42.5 53.4,42 C53.5,41.5 53.5,41 53.6,40.5 C53.7,40 53.8,39.5 53.9,38.9 C54,38.4 54,37.9 54.1,37.4 L54.4,35.9 C54.5,35.4 54.6,34.8 54.7,34.3 C54.9,33.3 55.2,32.2 55.3,31.2 C55.3,31 55.4,30.7 55.5,30.5 C55.6,30.3 55.6,30 55.6,29.7 C55.7,29.2 55.8,28.7 55.9,28.1 C56.1,27.1 56.4,26 56.6,25 C56.7,24.6 56.8,24.1 56.5,23.8 C56.3,23.6 55.9,23.5 55.8,23.2 C55.5,22.8 55.6,22 56.1,21.7 C56.4,21.5 56.9,21.7 57.2,21.5 C57.5,21.3 57.6,20.9 57.6,20.5 C57.7,20.1 57.8,19.6 58,19.3 C58.2,18.9 58.4,18.5 58.5,18 C58.6,17.5 58.8,17.1 59,16.6 C59.2,16.1 59.2,15.6 59.4,15.2 C59.5,14.7 59.7,14.2 59.9,13.7 C60.1,13.2 60.1,12.7 60.3,12.3 C60.4,12.1 60.4,11.9 60.5,11.7 C60.6,11.6 60.8,11.6 60.8,11.5 C60.9,11.4 60.8,11.2 60.8,11.1 C60.8,10.9 60.9,10.7 61,10.5 C61.2,10.1 61.5,9.7 61.5,9.2 C61.5,9 61.5,8.7 61.6,8.5 C61.7,8.3 61.8,8 61.9,7.8 C62.4,6.9 62.7,5.9 63.1,4.9 C63.3,4.4 63.5,4 63.7,3.5 C63.9,3 64,2.5 64.2,2 C64.3,1.6 64.6,1.3 64.9,1.1 C65.1,1 65.3,0.9 65.5,0.9 C65.7,0.9 65.7,1 66,0.8 C66.4,0.5 66.8,0.7 67.2,0.7 C67.5,0.7 68,0.7 68.2,1 C68.5,1.3 68.2,1.9 68.1,2.2 L67.5,3.7 C67.3,4.2 67.1,4.6 66.9,5.1 C66.7,5.6 66.5,6.1 66.3,6.5 C65.4,8.5 64.6,10.4 63.8,12.4 C63.6,12.9 63.4,13.3 63.1,13.8 C62.9,14.2 62.7,14.7 62.5,15.2 C62.1,16.2 61.7,17.1 61.4,18.1 C61.2,18.6 61.1,19.1 60.9,19.6 C60.8,20 60.5,20.5 60.6,20.9 C60.7,21.3 60.9,21.3 61.3,21.3 C61.7,21.3 62.1,21.2 62.6,21.2 C63.7,21.2 64.8,21.1 65.9,21 C66.4,20.9 66.9,20.9 67.5,20.9 C68,20.9 68.5,20.8 69,20.8 C69.4,20.8 69.6,20.9 69.7,21.3 C69.5,21.3 69.7,21.8 69.5,21.9 C69.6,21.8 69.5,21.7 69.6,21.7 C69.5,21.8 69.6,22 69.5,21.9 C69.6,21.9 69.6,21.7 69.6,21.7 C69.6,21.7 69.7,22.2 69.7,22.1 C69.7,22.2 69.5,21.8 69.5,21.9 C69.8,22.7 69.5,21.6 69.5,21.9 L69.5,21.9 L69.5,21.9 Z M61.9,29.9 C61.9,29.3 61.7,28.8 61.5,28.3 C61.3,27.7 61.1,27.2 60.9,26.6 C60.8,26.3 60.8,25.5 60.4,25.3 C60,25.2 59.8,25.9 59.7,26.2 C59.5,26.7 59.4,27.3 59.2,27.8 C59,28.4 58.8,28.9 58.6,29.5 C58.3,30.7 58,31.8 57.6,33 C57.2,34.2 56.9,35.3 56.6,36.6 C56.5,37.2 56.4,37.7 56.2,38.3 C56.1,38.8 55.9,39.4 56.2,39.9 C56.4,40.3 56.9,40.2 57.2,40 C57.6,39.7 58.1,39.3 58.5,39 C58.7,38.8 58.8,38.6 59,38.5 C59.2,38.3 59.5,38.2 59.7,38 C60.1,37.6 60.4,37.2 60.8,36.9 C61.2,36.5 61.6,36.2 61.9,35.7 C62,35.4 62.2,35.1 62.3,34.8 C62.4,34.5 62.3,34.2 62.3,33.9 C62.3,33.2 62.2,32.5 62.2,31.8 C62.1,31.2 61.8,30.6 61.9,29.9 L61.9,29.7 L61.9,29.9 C61.9,30 61.9,30 61.9,29.9 C61.9,29.4 61.9,30.2 61.9,29.9 L61.9,29.9 L61.9,29.9 Z M127.8,17.2 C127.8,17.9 127.9,18.6 127.6,19.2 C127.4,19.8 127,20.3 126.6,20.7 C126.2,21.2 125.7,21.6 125.3,22.1 C124.9,22.6 124.3,22.9 123.8,23.4 C123.3,23.9 122.8,24.4 122.3,24.8 C121.9,25.2 121.3,25.4 121.4,26.1 C121.5,26.8 121.7,27.4 121.8,28.1 C121.9,28.7 121.9,29.3 122.1,29.9 C122.4,31.1 124,30.3 124.8,30.1 C126,29.8 127.2,29.5 128.3,29.1 C128.5,29 129,28.8 129.1,29.1 C129.1,29.3 128.9,29.6 128.9,29.8 C128.8,30.1 128.8,30.3 128.5,30.5 C128.1,30.9 127.5,31.1 126.9,31.3 L125.1,32.2 C124.5,32.5 124,32.8 123.4,33.1 C122.7,33.4 122,33.6 121.4,33.9 C121,34.1 120.3,34.5 119.8,34.3 C119.3,34.1 119.3,33.2 119.4,32.7 C119.5,32.4 119.5,32.1 119.5,31.7 C119.4,31.4 119.3,31.1 119.4,30.7 C119.4,30 119.3,29.4 119.3,28.8 C119.3,28.1 119.3,27.4 119.2,26.7 C119.2,26.2 119.1,25.6 119.4,25.1 C119.6,24.8 119.8,24.6 120,24.4 C120.2,24.1 120.4,23.9 120.6,23.6 C121,23.1 121.5,22.6 122,22.2 C122.4,21.8 122.8,21.5 122.9,20.9 C123,20.4 122.7,20 122.2,20 C121.7,20 121.1,20.3 120.7,20.6 C120.1,20.9 119.5,21.1 118.9,21.4 C118.3,21.7 117.7,22 117.1,22.2 C116.5,22.4 116,22.7 115.9,23.4 C115.8,24 115.8,24.6 115.7,25.2 C115.7,25.9 115.6,26.6 115.5,27.3 L115.5,28.3 C115.5,28.7 115.4,29 115.4,29.4 C115.3,30.1 115.3,30.8 115.2,31.5 C115.1,32.9 114.9,34.2 114.7,35.6 C114.6,36.1 114.7,36.6 114.6,37.2 C114.5,37.7 114.2,38 113.7,38.1 C113.3,38.1 112.8,38.1 112.5,37.8 C112.2,37.5 112.2,37.1 112.2,36.8 C112.1,35.9 112.4,34.9 112.4,34 C112.5,32.6 112.7,31.2 112.7,29.8 C112.7,29.2 112.7,28.6 112.8,27.9 C112.9,27.3 112.8,26.6 113,26 C113.1,25.7 113.1,25.5 113.1,25.1 C113,24.8 113.1,24.4 113.1,24.1 C113.1,23.4 113.2,22.7 113.3,22 C113.4,21.3 113.3,20.5 113.4,19.8 C113.5,19.1 113.5,18.4 113.5,17.7 C113.5,17.4 113.6,17.1 113.5,16.9 C113.5,16.8 113.4,16.6 113.4,16.5 C113.4,16.3 113.4,16.2 113.5,16 C113.6,15.3 113.5,14.6 113.5,13.9 C113.5,12.5 113.4,11.1 113.4,9.6 C113.4,8.9 113.5,8.2 113.5,7.4 C113.5,6.7 113.6,6.1 113.6,5.4 C113.6,5.1 113.5,4.8 113.5,4.6 C113.5,4.5 113.5,4.3 113.6,4.2 C113.6,4.1 113.7,4 113.7,3.9 C113.7,3.8 113.6,3.7 113.6,3.6 C113.6,3.5 113.6,3.4 113.7,3.3 C113.8,3 114.2,3.1 114.3,2.9 C114.6,2.4 115.1,2.1 115.5,1.7 C115.8,1.4 116.3,0.8 116.8,0.8 C117.3,0.8 117.3,1.7 117.3,2.1 C117.3,2.8 117.2,3.4 117.2,4.1 L117.2,6.3 C117.2,7 117.1,7.7 117.1,8.4 L117.1,10.5 C117,11.2 117.1,11.9 117,12.7 L117,14.7 C117,15.4 116.9,16.1 116.9,16.8 C116.9,17.4 116.8,18 116.8,18.7 C116.8,19.2 116.9,19.9 117.6,19.7 C118.9,19.2 120.1,18.5 121.2,17.8 C121.8,17.5 122.3,17 122.9,16.8 C123.4,16.5 123.9,16.1 124.5,16 C125.1,15.9 125.5,15.4 126,15 C126.3,14.8 127.1,14.2 127.4,14.5 C127.6,14.7 127.6,15.2 127.7,15.4 C127.8,16.1 127.9,16.7 127.8,17.4 L127.8,17.2 L127.8,17.2 C127.8,17.8 127.8,17 127.8,17.2 L127.8,17.2 L127.8,17.2 Z M14.6,7.6 C14.6,8 14.4,8.3 14.2,8.6 C14,9 13.8,9.4 13.6,9.7 C13.2,10.4 12.6,11.1 12.2,11.8 C11.3,13.2 10.3,14.6 9.4,16 C9,16.7 8.6,17.4 8.1,18.1 C7.6,18.8 7.1,19.4 6.7,20.1 C6.3,20.8 6.2,21.6 6.3,22.3 C6.4,23 6.9,23.6 7.4,24.1 C8.4,25.1 9.8,26.1 11.2,26.5 L12.4,26.8 C12.7,26.9 13.1,27 13.4,27.2 C13.7,27.4 13.6,27.7 13.6,28 C13.5,28.4 13.5,28.9 13.4,29.3 C13.2,30.1 13,31 12.7,31.8 C12.5,32.6 12.2,33.4 11.8,34 C11.4,34.6 10.7,34.9 10.1,35.2 C9.3,35.6 8.6,36 7.9,36.3 C6.4,37 4.8,37.7 3.3,38.5 C2.6,38.9 1.9,39.3 1.2,39.6 C1,39.7 0.8,39.8 0.6,39.8 C0.3,39.8 0.2,39.4 0.2,39.1 C0.2,38.7 0.3,38.4 0.3,38 C0.3,37.7 0.3,37.4 0.4,37.1 C0.5,36.8 0.7,36.7 1,36.5 C1.4,36.3 1.8,36.2 2.1,35.9 C3.3,35.1 4.7,34.4 6,33.7 C7.1,33.1 8.1,32.3 8.2,31.1 C8.2,30.4 8,29.6 7.6,28.9 C7.2,28.2 6.7,27.8 6.2,27.2 C5.9,26.9 5.8,26.6 5.5,26.3 C5.2,26.1 5.1,25.8 4.8,25.5 L4,24.7 C3.7,24.4 3.5,24 3.3,23.7 C3.1,23.4 2.9,23.1 2.6,22.7 C2.3,22.4 2,22.1 1.8,21.7 C1.4,21 1.8,20.3 2.3,19.8 C2.8,19.2 3.3,18.6 3.8,17.9 C4.2,17.3 4.7,16.7 5.2,16.1 C5.4,15.8 5.6,15.4 5.8,15.1 C6,14.8 6.3,14.4 6.6,14.1 C7.1,13.4 7.6,12.7 8.1,12.1 C9.1,10.7 10.2,9.5 11.2,8.1 C11.7,7.4 12.2,6.9 12.7,6.2 C12.9,6 13.1,5.6 13.4,5.5 C13.7,5.4 13.9,5.6 14,5.8 C14.4,6.6 14.5,7.1 14.6,7.6 C14.5,7.6 14.5,7.5 14.6,7.6 C14.5,7.5 14.5,7.6 14.6,7.6 C14.5,7.6 14.5,7.5 14.6,7.6 C14.5,7.6 14.5,7.7 14.5,7.7 C14.5,7.6 14.5,7.6 14.6,7.6 C14.6,7.5 14.6,7.6 14.6,7.6 C14.6,8 14.6,7.3 14.6,7.6 L14.6,7.6 L14.6,7.6 Z M75.5,15.8 C75.9,15.8 76.5,15.7 76.7,16.1 C76.9,16.4 76.8,16.9 76.7,17.3 L76.4,19.1 C76.3,19.8 76.3,20.4 76.2,21.1 C76.1,22.4 75.7,23.6 75.5,24.9 C75.3,26.2 75.1,27.5 75,28.9 C74.6,31.5 74,34 73.6,36.6 C73.4,37.9 73.1,39.2 72.9,40.5 C72.7,41.8 72.4,43.1 72.2,44.4 C72.1,44.8 72.2,45.4 71.8,45.7 C71.4,46 70.6,45.6 70.2,45.4 C69.1,44.9 67.9,44.6 66.8,43.9 C66.3,43.6 65.9,43.2 65.6,42.8 C65.4,42.6 65.3,42.4 65.2,42.1 C65.1,41.8 65.1,41.5 65.2,41.2 C65.3,40.7 65.2,40.1 65.6,39.7 C66,39.3 66.5,39.6 67,39.8 C67.6,40.1 68.2,40.3 68.7,40.6 C69.1,40.8 69.6,41.3 70,41.1 C70.4,40.9 70.5,40.3 70.6,39.9 C70.7,39.3 70.7,38.6 70.8,38 C70.9,36.7 71,35.5 71.2,34.2 C71.3,33.5 71.3,32.9 71.4,32.2 C71.5,31.6 71.6,30.9 71.7,30.3 C71.7,29.7 71.8,29.1 71.9,28.5 C72,27.9 72.1,27.4 72.1,26.8 C72.1,25.5 72.3,24.3 72.5,23 C72.7,21.7 72.8,20.4 72.9,19 C73,18.4 73.1,17.7 73.1,17.1 C73.2,16.7 73.3,16.3 73.7,16 C74.5,15.7 75.1,15.8 75.5,15.8 L75.5,15.8 L75.5,15.8 L75.5,15.8 L75.5,15.8 L75.5,15.8 Z M74.4,10 C74.4,9.3 74.5,8.6 74.7,8 C74.8,7.7 74.9,7.4 74.9,7 C74.9,6.7 75,6.3 75.1,6 C75.6,5.1 77.3,5.5 77.9,6.1 C78.3,6.5 78.3,7.1 78.3,7.6 C78.3,8.3 78.2,9 78.1,9.7 C78,10 78,10.4 77.9,10.7 C77.8,11 77.8,11.3 77.7,11.6 C77.5,12.1 77,12.1 76.5,12 C75.9,11.9 75.1,11.9 74.7,11.4 C74.5,11.2 74.4,10.9 74.4,10.7 L74.4,10.3 C74.5,10.2 74.5,10.1 74.4,10 C74.4,10 74.4,9.7 74.4,10 L74.4,9.7 L74.4,10 C74.4,9.3 74.4,10 74.4,10 L74.4,10 L74.4,10 Z"></path>
  </g>
</svg>