<svg class="logo-bla" viewBox="0 0 147 48" version="1.1" xmlns="http://www.w3.org/2000/svg" xmlns:xlink="http://www.w3.org/1999/xlink">
  <g fill="#fff">
    <path d="M141.475807,41.3590435 L143.449449,41.3590435 L143.449449,47.0913587 L144.474273,47.0913587 L144.474273,41.3590435 L146.447915,41.3590435 L146.447915,40.4509457 L141.475807,40.4509457 L141.475807,41.3590435"></path>
    <path d="M109.143324,47.0913587 L110.130562,47.0913587 L110.130562,40.3814783 L110.021983,40.3814783 L106.876517,44.0933804 L103.701818,40.3814783 L103.594909,40.3814783 L103.594909,47.0913587 L104.581313,47.0913587 L104.581313,43.6439348 C104.581313,43.2832065 104.542892,42.71575 104.542892,42.6965 C104.57129,42.735 104.883665,43.2045326 105.128386,43.4874239 L106.798006,45.4994674 L106.916608,45.4994674 L108.586227,43.4874239 C108.850159,43.1944891 109.162534,42.71575 109.183415,42.6965 C109.183415,42.71575 109.143324,43.2832065 109.143324,43.6439348 L109.143324,47.0913587"></path>
    <path d="M134.371364,47.1599891 L134.497483,47.1599891 L134.497483,40.4509457 L133.540312,40.4509457 L133.540312,44.1034239 C133.540312,44.4741957 133.608801,45.0609022 133.608801,45.0609022 C133.608801,45.0609022 133.247148,44.5913696 132.994074,44.3185217 L129.329932,40.3814783 L129.19379,40.3814783 L129.19379,47.0913587 L130.15096,47.0913587 L130.15096,43.4296739 C130.15096,43.0195652 130.082472,42.4713587 130.082472,42.4713587 C130.082472,42.4713587 130.444125,42.9308478 130.708057,43.2145761 L134.371364,47.1599891"></path>
    <path d="M130.055744,26.96925 C129.977233,27.5768804 129.678222,27.8656304 129.06433,27.8974348 C128.639199,27.9191957 128.212398,27.9099891 127.786432,27.913337 C127.264415,27.9175217 127.251051,27.9334239 127.328727,28.4916739 C127.41058,28.4992065 127.498278,28.5159457 127.585142,28.5159457 C132.751858,28.5167826 137.918574,28.5201304 143.08529,28.5117609 C143.674125,28.5109239 144.228716,28.3452065 144.729852,28.0129348 C145.331216,27.6153804 145.546705,27.6890326 145.855739,28.336 C145.903347,28.4364348 146.047841,28.49 146.147233,28.5644891 C146.218227,28.4590326 146.351028,28.3535761 146.351028,28.2464457 C146.363557,26.3616196 146.364392,24.4759565 146.350193,22.5911304 C146.349358,22.4873478 146.196511,22.3844022 146.114659,22.2814565 C146.043665,22.3793804 145.922557,22.4706087 145.908358,22.5760652 C145.78892,23.4967174 145.682847,24.4198804 145.585125,25.3438804 C145.41808,26.929913 144.487636,27.8647935 142.904881,27.8873913 C140.244682,27.9267283 137.583648,27.913337 134.922614,27.9024565 C134.146687,27.8991087 133.820949,27.5450761 133.820114,26.7700543 C133.815102,23.0506196 133.815102,19.3311848 133.820114,15.612587 C133.820949,14.8543043 134.23021,14.4266196 134.992773,14.4207609 C136.917136,14.4065326 138.8415,14.4065326 140.765864,14.4199239 C141.479983,14.4249457 141.852494,14.7923696 141.936852,15.5029457 C141.998659,16.015163 142.051278,16.5290543 142.114756,17.0412717 C142.174892,17.5275435 142.235864,18.0146522 142.316045,18.4975761 C142.330244,18.5795978 142.44467,18.6440435 142.512324,18.7176957 C142.584989,18.6323261 142.670182,18.5544891 142.726142,18.459913 C142.755375,18.4122065 142.732824,18.3335326 142.732824,18.269087 C142.732824,15.5054565 142.732824,12.7418261 142.731989,9.97819565 C142.731989,9.87525 142.747858,9.76309783 142.711943,9.67270652 C142.686051,9.60909783 142.585824,9.54297826 142.515665,9.53963043 C142.453858,9.53711957 142.361983,9.60742391 142.330244,9.6693587 C142.285142,9.75807609 142.27679,9.86771739 142.264261,9.96982609 C142.159023,10.8277065 142.055455,11.685587 141.953557,12.5443043 C141.839966,13.5001087 141.530932,13.7989022 140.588795,13.803087 C138.780528,13.8114565 136.971426,13.8114565 135.163159,13.80225 C134.175085,13.7980652 133.817608,13.4231087 133.817608,12.4296413 C133.816773,9.74384783 133.817608,7.05721739 133.816773,4.37142391 C133.816773,3.91946739 133.812597,3.46751087 133.818443,3.01555435 C133.828466,2.23802174 134.150028,1.90240217 134.914261,1.86306522 C135.01783,1.85804348 135.121398,1.85804348 135.224131,1.85804348 C137.575295,1.85804348 139.925625,1.8538587 142.27679,1.8613913 C142.649301,1.86222826 143.026824,1.8865 143.394324,1.94508696 C144.594545,2.13758696 145.342909,2.88331522 145.515801,4.08518478 C145.677835,5.20670652 145.800614,6.33492391 145.942602,7.4823913 C146.229085,7.56608696 146.362722,7.49243478 146.361886,7.20117391 C146.35771,5.31634783 146.362722,3.43068478 146.351028,1.54502174 C146.350193,1.44207609 146.218227,1.33913043 146.148068,1.23534783 C146.047006,1.309 145.900841,1.36005435 145.852398,1.45881522 C145.540023,2.09155435 145.342074,2.16604348 144.750733,1.77936957 C144.176932,1.40357609 143.548841,1.26213043 142.876483,1.26213043 L127.764716,1.26213043 L127.325386,1.26213043 C127.262744,1.8538587 127.26358,1.8538587 127.775574,1.85804348 C128.20154,1.86055435 128.628341,1.84716304 129.053472,1.8731087 C129.683233,1.90993478 129.989761,2.21375 130.05992,2.83477174 C130.07579,2.97538043 130.069108,3.1185 130.069108,3.26078261 C130.069108,11.0344348 130.069108,18.8089239 130.068273,26.5825761 C130.068273,26.7114674 130.072449,26.8420326 130.055744,26.96925"></path>
    <path d="M94.0699773,26.8939239 C94.0382386,27.5618152 93.7266989,27.8974348 93.0635284,27.9208696 C92.3803125,27.9459783 91.6954261,27.9334239 91.0105398,27.9384457 C90.6564034,27.9409565 90.5461534,27.9719239 90.5586818,28.2071087 C90.562858,28.2849457 90.5803977,28.3862174 90.607125,28.5159457 L101.388239,28.5159457 C101.405778,28.3803587 101.417472,28.2765761 101.418307,28.1970652 C101.419142,27.9585326 101.313903,27.9401196 100.947239,27.9384457 C100.29075,27.9350978 99.6334261,27.9493261 98.9769375,27.9300761 C98.350517,27.911663 97.8527216,27.39275 97.8568977,26.7667065 C97.872767,24.3010326 97.8919773,21.8353587 97.9220455,19.3705217 C97.931233,18.615587 98.1366989,17.9142174 98.6403409,17.3300217 C99.1556761,16.7341087 100.985659,14.6844022 103.121335,12.2881957 C103.770307,11.7257609 104.516165,11.298913 105.393153,11.1013913 C106.653511,10.817663 107.814477,11.1315217 108.94621,11.647087 C111.477784,12.7995761 112.632068,15.2610652 112.774057,18.1703261 C112.956972,21.9123587 110.628358,25.1957391 109.033909,26.7173261 C107.93642,27.7651957 107.183045,27.8036957 106.719494,27.8999457 C106.332784,27.9794565 106.216688,27.9459783 106.216688,28.5176196 L117.209114,28.5176196 C117.252545,27.9108261 117.209114,27.8873913 116.667051,27.7107935 C116.230227,27.5676739 115.786722,27.3969348 115.405858,27.1466848 C114.684222,26.6712935 114.423631,25.7431087 114.644966,24.9078261 C115.202063,22.8095761 115.498568,20.6895652 115.141926,18.5185 C114.686727,15.745663 113.001239,9.14709783 104.775085,10.7113696 C105.03317,10.4067174 108.789187,5.99595652 110.774523,3.62067391 C111.007551,3.34782609 111.218864,3.10008696 111.380063,2.90591304 C111.658193,2.57029348 112.154318,1.87813043 113.117335,1.87813043 L117.169023,1.87813043 C117.406227,1.87813043 117.474716,1.771 117.478057,1.54753261 L117.478057,1.54669565 C117.483068,1.22195652 117.255051,1.28891304 117.075477,1.28807609 C114.246562,1.28556522 111.417648,1.28640217 108.588733,1.28807609 C108.476813,1.28807609 108.364892,1.30481522 108.259653,1.31318478 C108.242114,1.45211957 108.229585,1.55590217 108.227915,1.63541304 C108.224574,1.8731087 108.325636,1.88147826 108.703994,1.88315217 C109.09154,1.88482609 109.480756,1.85720652 109.865795,1.89319565 C109.868301,1.89319565 110.899807,1.88398913 110.746125,2.12754348 C110.625017,2.35770652 110.442937,2.59121739 110.279233,2.78455435 C109.335426,3.89603261 108.389114,5.00416304 107.444472,6.11480435 C103.978278,10.0928587 99.0554489,15.5573478 98.6528693,15.8921304 C98.5242443,15.9984239 98.2686648,16.132337 98.1575795,16.0770978 C98.0114148,16.0042826 97.854392,15.8553043 97.854392,15.169 C97.854392,11.1348696 97.8535568,7.09990217 97.8552273,3.06577174 C97.8552273,2.2581087 98.1918239,1.90909783 99.0045,1.88817391 C99.6501307,1.87227174 100.296597,1.88482609 100.942227,1.88315217 C101.317244,1.88231522 101.422483,1.86641304 101.418307,1.63122826 C101.416636,1.55255435 101.403273,1.4496087 101.383227,1.3148587 L90.6021136,1.3148587 C90.5787273,1.44793478 90.5620227,1.54920652 90.559517,1.62704348 C90.5494943,1.86055435 90.6572386,1.88147826 91.0272443,1.88315217 C91.698767,1.8865 92.371125,1.87227174 93.0418125,1.89738043 C93.723358,1.92416304 94.0415795,2.26731522 94.0708125,2.95027174 C94.0774943,3.1051087 94.0741534,3.26078261 94.0741534,3.41561957 C94.0741534,11.1122717 94.0733182,18.8097609 94.0733182,26.506413 C94.0733182,26.6361413 94.0766591,26.7650326 94.0699773,26.8939239"></path>
    <path d="M121.953205,46.1832609 L118.631506,46.1832609 L118.631506,44.2013478 L121.453739,44.2013478 L121.453739,43.311663 L118.631506,43.311663 L118.631506,41.3590435 L121.815392,41.3590435 L121.815392,40.4509457 L117.595824,40.4509457 L117.595824,47.0913587 L121.953205,47.0913587 L121.953205,46.1832609"></path>
    <path d="M7.31993182,8.95627174 C7.31993182,7.39367391 7.31575568,5.83191304 7.32410795,4.27015217 C7.32577841,4.01404348 7.36169318,3.75458696 7.41598295,3.50433696 C7.64149432,2.47404348 8.25204545,1.92918478 9.39797727,1.89738043 C11.1653182,1.848 12.9351648,1.87059783 14.7033409,1.87645652 C15.1861023,1.87813043 15.5118409,2.17525 15.7774432,2.5468587 C16.2100909,3.15197826 16.3996875,3.85167391 16.5141136,4.56559783 C16.8248182,6.5065 16.6460795,8.39718478 15.8242159,10.1999891 C15.2913409,11.3692174 14.4444205,12.1877609 13.1990966,12.6129348 C11.5645568,13.1695109 9.95089773,13.7888587 8.32638068,14.378913 C7.52372727,14.6701739 7.30823864,14.513663 7.30823864,13.6423913 C7.30740341,12.0797935 7.30740341,10.5180326 7.30740341,8.95627174 L7.31993182,8.95627174 L7.31993182,8.95627174 L7.31993182,8.95627174 Z M19.4866875,15.9431848 C20.3553239,18.4080217 20.1156136,20.8460761 19.2185795,23.2456304 C18.7516875,24.4943696 18.0576136,25.6075217 17.0486591,26.4988804 C16.0580795,27.3735 14.9138182,27.9058043 13.5749489,27.9041304 C12.0656932,27.9024565 10.5564375,27.8681413 9.04801705,27.8212717 C8.76153409,27.8120652 8.46419318,27.7066087 8.19692045,27.5894348 C7.61142614,27.3308152 7.30740341,26.8671413 7.30823864,26.2168261 C7.30907386,24.5906196 7.30823864,22.9635761 7.30823864,21.3373696 C7.30740341,19.8141087 7.30322727,18.2908478 7.31157955,16.767587 C7.31408523,16.4729783 7.33914205,16.1725109 7.40930114,15.8879457 C7.50869318,15.477837 7.76844886,15.1849022 8.18021591,15.0375978 C10.0260682,14.378913 11.8552159,13.6725217 13.7177727,13.0665652 C15.8517784,12.3718913 18.4702159,13.0556848 19.4866875,15.9431848 L19.4866875,15.9431848 L19.4866875,15.9431848 Z M3.51463636,26.8947609 C3.47454545,27.5676739 3.17219318,27.8832065 2.49398864,27.9066413 C1.82330114,27.9300761 1.15177841,27.9183587 0.480255682,27.9225435 C-0.0225511364,27.9258913 -0.0726647727,27.9945217 0.0676534091,28.5259891 L0.516170455,28.5259891 C6.26336932,28.5259891 12.009733,28.5418913 17.7560966,28.5184565 C20.2266989,28.508413 22.1134773,27.3835435 23.3897045,25.2777609 C24.4512784,23.524337 24.743608,21.6035217 24.5439886,19.5797609 C24.1564432,15.6418804 21.2657216,12.6505978 17.3493409,12.1676739 C17.2198807,12.1509348 17.0920909,12.1233152 16.8749318,12.0856522 C16.9868523,12.0094891 17.0185909,11.9877283 17.0503295,11.9668043 C18.8009659,10.857837 19.7113636,9.23246739 19.907642,7.20284783 C20.1957955,4.22077174 18.4201023,1.27552174 14.765983,1.27133696 C10.0135398,1.26715217 5.26193182,1.2705 0.509488636,1.2705 L0.0400909091,1.2705 C-0.0309034091,1.84381522 -0.0158693182,1.86306522 0.461045455,1.86557609 C1.14593182,1.87059783 1.83081818,1.85469565 2.51403409,1.88315217 C3.16300568,1.90993478 3.47120455,2.23802174 3.51380114,2.8816413 C3.52298864,3.02308696 3.51964773,3.16536957 3.51964773,3.30765217 L3.51964773,26.46875 C3.51964773,26.6110326 3.52298864,26.7533152 3.51463636,26.8947609 L3.51463636,26.8947609 L3.51463636,26.8947609 Z"></path>
    <path d="M32.2982386,1.84632609 C32.9956534,1.8421413 33.6930682,1.83126087 34.3896477,1.85720652 C35.1121193,1.88482609 35.437858,2.24220652 35.437858,2.96784783 C35.4395284,10.9097283 35.4395284,18.8524457 35.437858,26.7943261 C35.4370227,27.5157826 35.1087784,27.8622826 34.3771193,27.8865543 C33.7189602,27.9091522 33.0599659,27.8965978 32.4009716,27.8999457 C31.899,27.9032935 31.8739432,27.932587 31.9424318,28.5033913 L32.4535909,28.5033913 C37.4908466,28.5033913 42.5281023,28.5017174 47.5661932,28.5059022 C48.2945114,28.5067391 48.9668693,28.3569239 49.5824318,27.9434674 C50.0752159,27.6128696 50.3374773,27.7166522 50.5872102,28.2430978 C50.6465114,28.3686413 50.796017,28.4515 50.9037614,28.5544457 C50.97225,28.4230435 51.0983693,28.2924783 51.1000398,28.1610761 C51.1125682,26.313913 51.111733,24.467587 51.1000398,22.6204239 C51.0992045,22.50325 51.0023182,22.3065652 50.9129489,22.2831304 C50.6573693,22.2145 50.67825,22.4521957 50.6590398,22.6061957 C50.5437784,23.5142935 50.421,24.4223913 50.3274545,25.333 C50.1620795,26.9441413 49.245,27.8530761 47.6196477,27.8765109 C45.2050057,27.9125 42.7886932,27.9024565 40.3740511,27.892413 C39.5279659,27.8890652 39.2289545,27.5718587 39.2289545,26.7340652 C39.2256136,18.8306848 39.2256136,10.9273043 39.2289545,3.02392391 C39.2289545,2.1811087 39.5530227,1.86306522 40.4099659,1.84716304 C41.068125,1.83544565 41.7271193,1.84130435 42.3861136,1.84548913 C42.611625,1.84716304 42.7911989,1.83544565 42.7962102,1.52828261 C42.8020568,1.21777174 42.6074489,1.24873913 42.4111705,1.24873913 C39.0401932,1.24873913 35.6692159,1.24790217 32.2982386,1.24957609 C32.111983,1.24957609 31.8981648,1.19601087 31.8998352,1.51572826 C31.9006705,1.81201087 32.0610341,1.84716304 32.2982386,1.84632609"></path>
    <path d="M4.39078977,41.3590435 L4.39078977,40.4509457 L0.169551136,40.4509457 L0.169551136,47.0913587 L4.52860227,47.0913587 L4.52860227,46.1832609 L1.20690341,46.1832609 L1.20690341,44.2013478 L4.02913636,44.2013478 L4.02913636,43.311663 L1.20690341,43.311663 L1.20690341,41.3590435 L4.39078977,41.3590435"></path>
    <path d="M51.174375,42.5600761 C51.174375,43.4003804 50.6648864,43.7611087 49.7862273,43.7611087 L48.6336136,43.7611087 L48.6336136,41.3590435 L49.7862273,41.3590435 C50.6556989,41.3590435 51.174375,41.7005217 51.174375,42.5600761 L51.174375,42.5600761 L51.174375,42.5600761 Z M47.5979318,40.4509457 L47.5979318,47.0913587 L48.6336136,47.0913587 L48.6336136,44.6307065 L49.8346705,44.6307065 L51.2720966,47.0913587 L52.4539432,47.0913587 L50.8895625,44.4649891 C51.7014034,44.1804239 52.2384545,43.5468478 52.2384545,42.5600761 C52.2384545,41.0954022 51.19275,40.4509457 49.825483,40.4509457 L47.5979318,40.4509457 L47.5979318,40.4509457 L47.5979318,40.4509457 Z"></path>
    <path d="M27.0496705,47.0913587 L27.0496705,41.3590435 L29.0224773,41.3590435 L29.0224773,40.4509457 L24.0495341,40.4509457 L24.0495341,41.3590435 L26.0231761,41.3590435 L26.0231761,47.0913587 L27.0496705,47.0913587"></path>
    <path d="M40.2195341,41.3590435 L40.2195341,40.4509457 L35.9999659,40.4509457 L35.9999659,47.0913587 L40.3573466,47.0913587 L40.3573466,46.1832609 L37.0356477,46.1832609 L37.0356477,44.2013478 L39.8587159,44.2013478 L39.8587159,43.311663 L37.0356477,43.311663 L37.0356477,41.3590435 L40.2195341,41.3590435"></path>
    <path d="M16.9467614,47.1599891 L17.0728807,47.1599891 L17.0728807,40.4509457 L16.1157102,40.4509457 L16.1157102,44.1034239 C16.1157102,44.4741957 16.1841989,45.0609022 16.1841989,45.0609022 C16.1841989,45.0609022 15.8225455,44.5913696 15.5694716,44.3185217 L11.9053295,40.3814783 L11.767517,40.3814783 L11.767517,47.0913587 L12.726358,47.0913587 L12.726358,43.4296739 C12.726358,43.0195652 12.6570341,42.4713587 12.6570341,42.4713587 C12.6570341,42.4713587 13.0178523,42.9308478 13.2817841,43.2145761 L16.9467614,47.1599891"></path>
    <path d="M64.49625,16.5273804 C65.6697443,13.223913 66.8282045,9.91458696 67.9925114,6.60777174 C68.0551534,6.43033696 68.1177955,6.25457609 68.2681364,6.07881522 C69.5268239,10.0083261 70.7846761,13.937 72.0675852,17.9426739 L71.5990227,17.9426739 C69.5585625,17.9426739 67.5181023,17.9443478 65.4784773,17.9426739 C64.3175114,17.941 64.1087045,17.6179348 64.49625,16.5273804 L64.49625,16.5273804 L64.49625,16.5273804 Z M64.0043011,29.0248152 C64.0786364,28.469913 64.0560852,28.4389457 63.5691477,28.4372717 C62.6779602,28.4347609 61.7859375,28.4406196 60.89475,28.4339239 C60.4930057,28.4305761 60.4136591,28.3192609 60.5080398,27.9334239 C60.5297557,27.8463804 60.5581534,27.7601739 60.5882216,27.6748043 C61.3441023,25.5213152 62.0958068,23.3669891 62.8600398,21.2160109 C63.0880568,20.5732283 63.3169091,19.9270978 63.6050625,19.3102609 C63.8856989,18.7093261 64.4102216,18.4247609 65.0792386,18.4247609 C67.3660909,18.4239239 69.652108,18.4272717 71.9389602,18.4180652 C72.1628011,18.4172283 72.2530057,18.498413 72.3181534,18.7009565 C73.3112386,21.7801196 74.3118409,24.8576087 75.3091023,27.9367717 C75.4460795,28.3602717 75.3976364,28.4289022 74.9365909,28.4339239 C74.1740284,28.4414565 73.4123011,28.4347609 72.6497386,28.4372717 C72.1519432,28.4389457 72.1018295,28.508413 72.2254432,29.00975 L82.1554602,29.00975 C82.1997273,28.4389457 82.1997273,28.4389457 81.6559943,28.4364348 C81.3586534,28.4347609 81.0613125,28.4397826 80.7648068,28.4280652 C80.2152273,28.4079783 80.096625,28.3142391 79.9254034,27.8062065 C79.699892,27.1341304 79.4735455,26.4612174 79.2446932,25.7899783 C76.524358,17.7945326 73.8040227,9.79908696 71.082017,1.80447826 C70.971767,1.48225 70.8414716,1.16755435 70.7203636,0.84951087 C70.6677443,0.824402174 70.6159602,0.800130435 70.5633409,0.775858696 C70.4714659,0.915630435 70.4071534,1.08888043 70.2835398,1.18847826 C69.9878693,1.42617391 69.685517,1.67558696 69.3439091,1.82707609 C69.1334318,1.92081522 69.0114886,2.00618478 68.9363182,2.2196087 C66.6778636,8.67003261 64.415233,15.1179457 62.1526023,21.5658587 C61.435142,23.6097065 60.721858,25.6552283 59.9977159,27.6965652 C59.7713693,28.3343261 59.6135114,28.433087 58.9428239,28.4364348 C58.3999261,28.4381087 57.8578636,28.4347609 57.3149659,28.4372717 C56.8238523,28.4397826 56.7628807,28.5259891 56.9015284,29.0248152 L64.0043011,29.0248152 L64.0043011,29.0248152 L64.0043011,29.0248152 Z"></path>
    <path d="M61.8444034,47.0913587 L61.8444034,41.3590435 L63.816375,41.3590435 L63.816375,40.4509457 L58.844267,40.4509457 L58.844267,41.3590435 L60.8179091,41.3590435 L60.8179091,47.0913587 L61.8444034,47.0913587"></path>
    <path d="M72.6597614,43.2145761 L73.3830682,45.0207283 L71.2816364,45.0207283 L72.0049432,43.2145761 C72.1619659,42.8329239 72.3189886,42.2671413 72.3281761,42.2370109 C72.3365284,42.2863913 72.5135966,42.8530109 72.6597614,43.2145761 L72.6597614,43.2145761 L72.6597614,43.2145761 Z M69.4449716,47.0913587 L70.4430682,47.0913587 L70.9308409,45.8811196 L73.7530739,45.8811196 L74.242517,47.0913587 L75.3174545,47.0913587 L72.405017,40.3814783 L72.2889205,40.3814783 L69.4449716,47.0913587 L69.4449716,47.0913587 L69.4449716,47.0913587 Z"></path>
    <path d="M82.3041307,40.4509457 L83.3297898,40.4509457 L83.3297898,47.0921957 L82.3041307,47.0921957 L82.3041307,40.4509457 L82.3041307,40.4509457 Z"></path>
    <path d="M96.001858,47.1599891 L96.1279773,47.1599891 L96.1279773,40.4509457 L95.1708068,40.4509457 L95.1708068,44.1034239 C95.1708068,44.4741957 95.2392955,45.0609022 95.2392955,45.0609022 C95.2392955,45.0609022 94.877642,44.5913696 94.6245682,44.3185217 L90.9604261,40.3814783 L90.8234489,40.3814783 L90.8234489,47.0913587 L91.7806193,47.0913587 L91.7806193,43.4296739 C91.7806193,43.0195652 91.7129659,42.4713587 91.7129659,42.4713587 C91.7129659,42.4713587 92.0746193,42.9308478 92.3377159,43.2145761 L96.001858,47.1599891"></path>
  </g>
</svg>