<svg width="369" height="50" viewBox="0 0 369 50" xmlns="http://www.w3.org/2000/svg"><title>Group</title><g fill="#FFF" fill-rule="evenodd"><path d="M144.245 8.333h9.645V31.25c0 2.083 1.258 2.917 3.354 2.917h16.354c2.096 0 3.354-.834 3.354-2.917V8.333h9.645v24.375c0 5.21-4.403 9.167-9.645 9.167H153.68c-5.032 0-9.644-3.958-9.644-9.167V8.333h.21zM98.54 31.667h9.644c.21 1.875 1.258 2.708 3.145 2.708h17.61c1.678 0 2.516-1.458 2.516-2.917 0-2.083-1.467-3.125-3.354-3.125h-19.08c-6.29 0-10.692-3.125-10.692-9.583 0-3.542 1.258-7.083 4.403-8.958 1.887-1.25 4.193-1.46 6.5-1.46h22.643c4.822 0 8.805 3.543 8.805 8.335v1.875h-9.853c0-1.46-1.048-2.5-2.725-2.5H111.33c-1.678 0-3.146.833-3.146 2.708 0 1.875 1.468 2.5 3.145 2.5h20.546c6.71 0 10.063 4.375 10.063 10.833 0 6.042-2.936 10-9.226 10h-24.53c-5.66 0-9.435-2.29-9.644-8.125v-2.29zM326.23 8.333h9.644V31.25c0 2.083 1.258 2.917 3.354 2.917h16.354c2.096 0 3.354-.834 3.354-2.917V8.333h9.645v24.375c0 5.21-4.402 9.167-9.644 9.167h-22.852c-5.242 0-9.645-3.958-9.645-9.167V8.333h-.21zm-81.14 27.084l-3.772 6.666h-10.693l18.45-33.75h12.58l18.45 33.542h-10.693l-3.774-6.667H245.09v.21zm10.065-18.542l-6.08 11.25h12.16l-6.08-11.25zM189.95 8.333h29.563c6.29 0 11.112 2.292 11.112 9.375 0 3.125-1.258 5.834-3.984 7.292 2.937 1.667 4.614 4.583 4.614 7.917 0 4.79-3.145 9.166-8.177 9.166H189.95V8.333zm9.855 26.042h18.24c1.887 0 3.355-1.042 3.355-2.917 0-1.875-1.677-2.916-3.355-2.916h-18.24v5.833zm0-12.708h18.24c1.678 0 2.726-1.25 2.726-2.71 0-1.665-1.047-2.707-2.725-2.707h-18.24v5.417zm81.977-13.334h32.287c6.5 0 9.434 5.21 9.434 11.042 0 3.75-1.468 7.292-4.822 9.167 3.354 1.666 5.032 4.166 5.032 7.916v5.417h-9.645v-5.417c0-3.125-1.888-4.375-4.823-4.375h-17.402v9.792h-9.854V8.333h-.208zm9.854 16.25h18.03c2.307 0 3.984-2.083 3.984-4.166 0-2.71-2.097-4.375-4.822-4.375h-17.192v8.54zM73.8 7.917C64.785 2.083 53.253 0 42.56 0c-9.434 0-19.498 1.667-27.884 6.042C7.548 9.792 0 16.042 0 24.792c0 7.5 5.45 13.125 11.53 16.875 9.017 5.833 20.548 7.916 31.24 7.916 9.435 0 19.5-1.666 28.095-6.04 7.128-3.75 14.676-10 14.676-18.75-.418-7.5-5.87-13.126-11.74-16.876zm-2.097 31.666c-8.596 5.21-19.288 7.084-29.142 7.084-8.805 0-18.24-1.46-26.207-5.417-6.5-3.125-13.627-8.75-13.627-16.667 0-6.666 5.24-11.875 10.692-15C22.014 4.375 32.708 2.5 42.56 2.5c8.806 0 18.24 1.458 26.208 5.417 6.5 3.125 13.628 8.75 13.628 16.666 0 6.875-5.24 11.875-10.693 15z"/><path d="M5.032 19.167l16.353-2.71 5.032-10.624 4.822 10.625 16.353 2.71-16.354 2.707L26.416 32.5l-5.032-10.625-16.353-2.708m35.852 8.125l7.338-1.25 2.096-4.792 2.097 4.792 7.338 1.25-7.338 1.25-2.097 4.79-2.096-4.79-7.338-1.25M55.77 14.375l7.337-1.25 2.097-4.792 2.097 4.792 7.34 1.25-7.34 1.25-2.096 4.792-2.097-4.792-7.338-1.25M48.22 37.083l7.128-1.25 2.097-4.79 2.306 4.79 7.128 1.25-7.127 1.25-2.306 4.792-2.097-4.792-7.128-1.25m-22.224 1.875l7.338-1.25 2.096-4.79 2.097 4.79 7.337 1.25-7.338 1.25L35.43 45l-2.096-4.792-7.338-1.25m36.27-11.875l7.13-1.25 2.096-4.79 2.306 4.79 7.128 1.25-7.128 1.25-2.306 4.792-2.097-4.792-7.128-1.25"/></g></svg>