<svg class="logo-wide" viewBox="0 0 532 95" version="1.1" xmlns="http://www.w3.org/2000/svg">
  <g fill="#fff">
    <path d="M50.8,70.3 C50.7,70.4 50.7,70.4 50.6,70.5 C50.6,70.4 50.5,70.4 50.5,70.3 C50.5,70.2 50.6,70.2 50.7,70.1 C50.7,70.2 50.7,70.3 50.8,70.3 Z M37,37.4 L28.1,27.1 L29.8,34.6 L26.3,34.3 L35.5,44.5 L33.6,37.3 L37,37.4 Z M21,55.4 L0,44.4 L13.8,44.6 L11.7,38.6 L32.5,49.8 L19.5,49.3 L21,55.4 Z M18.8,62.8 L5.8,66.8 L13.3,68.3 L11.7,71.4 L24.7,67.1 L17.3,65.9 L18.8,62.8 Z M494.4,35.5 L503.3,25.3 L501.2,32.8 L504.9,32.4 L495.8,42.5 L497.9,35.4 L494.4,35.5 Z M510.4,53.6 L531.4,42.6 L517.7,42.6 L519.7,36.8 L498.8,47.9 L511.9,47.3 L510.4,53.6 Z M512.6,60.7 L525.7,64.8 L518,66.3 L519.7,69.5 L506.6,65.3 L514,64 L512.6,60.7 Z M285.8,93 L271.4,93 C269.6,93 268.9,92.3 268.5,90.2 C267.9,87.3 267.5,84.3 267,81.3 C266.7,79.7 266.5,78 266.2,76.1 C264.3,81.5 264.9,87.1 262.7,92.4 C261.6,92.6 260.7,92.8 259.7,92.8 L252,92.8 C249.7,92.8 247.4,92.6 245.1,92.5 C243.6,91.2 243.3,89.4 242.9,87.7 C242.2,84.6 241.6,81.4 241,78.2 C240.4,74.4 239.8,70.7 239.2,66.9 C238.4,61.9 237.8,56.9 236.9,51.9 C236.2,47.8 235.4,43.7 234.6,39.6 C234.3,38 234,36.3 233.9,34.7 C233.8,33.9 234.1,33 234.2,32.3 C237.1,31.3 245.8,31.3 248.2,32.2 C250.6,45.7 251.5,59.6 254.1,73.8 C254.4,72.8 254.6,72.4 254.7,71.9 L257.7,46.1 C258.1,42.7 258.5,39.3 258.9,35.9 C259.1,34 259.3,33.6 260.4,32.7 C264.3,31.4 268,31.8 272,32.7 C272.2,33.3 272.7,34.1 272.8,34.9 C273.5,40.7 274.2,46.5 274.9,52.2 C275.6,57.9 276.3,63.6 277.1,69.3 C277.3,70.6 277.4,71.9 277.8,73.3 C278.1,71.5 278.5,69.6 278.8,67.8 C279.4,63.2 280,58.6 280.5,53.9 C281,49.8 281.3,45.6 281.8,41.5 C282.1,39 282.5,36.6 282.9,34.1 C283.1,33.2 283.5,32.4 283.9,31.4 C287.9,31.3 291.8,31.2 295.7,31.4 C296.4,31.4 297.1,31.9 297.6,32.2 C298.3,33.9 298,35.5 297.7,37.1 C296.9,41.7 296,46.3 295.3,50.9 C294.4,56.2 293.8,61.6 292.9,66.9 C291.8,73.7 290.6,80.5 289.4,87.3 C288.9,89.9 287.7,91.7 285.8,93 Z M263.4,75.6 C263.5,75.3 263.6,75.1 263.7,74.8 C263.6,74.8 263.5,74.7 263.4,74.7 C263.5,75 263.5,75.3 263.4,75.6 C263.4,75.7 263.2,75.7 263.3,75.7 C263.2,75.8 263.3,75.7 263.4,75.6 L263.4,75.6 Z M257.4,69.5 C258,69.3 258.1,68.9 257.5,68.3 C257.4,68.9 257.4,69.2 257.4,69.5 C257.4,69.6 257.3,69.7 257.3,69.7 C257.3,69.7 257.3,69.6 257.4,69.5 L257.4,69.5 Z M250.4,59 C250.4,59.2 250.5,59.4 250.4,59.2 C250.6,59.4 250.5,59.3 250.4,59 C250.2,58.4 250,57.7 249.9,57 C249.8,56.4 249.8,55.9 249.7,55 C249.4,56 249.1,56.6 250,57 C250.1,57.7 250.3,58.3 250.4,59 L250.4,59 Z M271.3,75.1 L271.3,73.3 C271.1,73.3 271,73.4 270.8,73.4 C271,74 271.2,74.5 271.3,75.1 C271.4,75.8 271.4,76.5 271.5,77.2 C271.6,77.2 271.8,77.1 271.9,77.1 C271.7,76.5 271.5,75.8 271.3,75.1 L271.3,75.1 Z M239.4,48.5 C239.4,48.9 239.5,49.3 239.5,49.6 C239.6,49.6 239.6,49.6 239.7,49.5 C239.6,49.3 239.5,48.9 239.4,48.5 C239.5,47.2 239.5,47.2 238.7,46.1 C239,46.9 239.2,47.7 239.4,48.5 L239.4,48.5 Z M241.3,59.6 C241.3,59.1 241.2,58.5 241.2,58 C241.1,58 241,58 240.9,58.1 C241.1,58.6 241.2,59.1 241.3,59.6 C241.4,60.6 241.4,61.6 241.4,62.7 C241.7,61.6 242.3,60.6 241.3,59.6 L241.3,59.6 Z M262.8,72 C263.7,71.2 263.8,70.1 263.8,68.5 C262.9,69.9 262.7,70.9 262.8,72 C262.7,72.6 262.5,73.1 262.4,73.6 C262.5,73.6 262.7,73.7 262.8,73.7 L262.8,72 L262.8,72 Z M287.4,57.6 C286.4,58.8 286.5,60.2 286.5,61.8 C287.4,60.4 287.5,59 287.4,57.6 C287.5,57.2 287.6,56.9 287.7,56.5 C287.6,56.5 287.6,56.5 287.5,56.4 C287.5,56.9 287.5,57.2 287.4,57.6 L287.4,57.6 Z M254.2,89.8 L254.2,90.4 C255.3,90.3 256.5,90.7 257.6,89.8 L254.2,89.8 L254.2,89.8 Z M283.8,70.1 L283.5,70.1 L283.5,75.2 L283.8,75.2 L283.8,70.1 L283.8,70.1 Z M247.5,45.2 C247.6,45.1 247.8,45.1 247.9,45 C247.7,43.8 247.5,42.5 247.2,41.3 C247.1,41.3 246.9,41.3 246.8,41.4 C247.1,42.7 247.3,43.9 247.5,45.2 L247.5,45.2 Z M260.5,52.7 L260.8,52.7 L260.8,50.4 L260.5,50.4 L260.5,52.7 L260.5,52.7 Z M291.2,33.3 L291.2,33.5 L293.1,33.5 L293.1,33.3 L291.2,33.3 L291.2,33.3 Z M259.4,89.1 C259.5,89.3 259.5,89.5 259.6,89.8 C260,89.7 260.4,89.5 260.8,89.4 C260.8,89.2 260.7,89.1 260.7,88.9 C260.2,89 259.8,89 259.4,89.1 L259.4,89.1 Z M242,65.2 C242.1,65.2 242.2,65.2 242.3,65.1 C242.3,64.7 242.2,64.4 242.2,64 L242.1,64 C242,64.4 242,64.8 242,65.2 L242,65.2 Z M237.3,39 C237.3,38.5 237.4,38.2 237.3,38 C237.2,37.8 236.9,37.8 236.7,37.6 C236.6,37.7 236.6,37.8 236.5,37.9 C236.6,38.2 236.9,38.5 237.3,39 L237.3,39 Z M260.1,55.6 L260.2,55.7 L260.2,54.5 L260.1,54.5 L260.1,55.6 L260.1,55.6 Z M285.2,35.4 L285,35.4 L285,36.3 L285.2,36.3 L285.2,35.4 L285.2,35.4 Z M246.5,40.3 L246.7,40.3 C246.7,40 246.7,39.7 246.6,39.4 L246.4,39.4 C246.5,39.7 246.5,40 246.5,40.3 L246.5,40.3 Z M272.1,79.2 L272.2,79.2 L272.2,78.3 L272.1,78.3 L272.1,79.2 L272.1,79.2 Z M265.6,46.8 L265.6,46.8 C266,46.7 265.9,46.7 265.6,46.8 L265.6,46.8 Z M264.2,66.4 L264.2,67.3 L264.3,67.3 C264.2,67.2 264.2,67 264.2,66.4 L264.2,66.4 Z M284.2,65.3 C284.1,65.5 284.1,65.7 284.2,65.3 C284.2,65.7 284.2,65.5 284.2,65.3 L284.2,65.3 Z M249.1,54.3 L249.1,53.9 L249.1,54.3 L249.1,54.3 Z M263.1,86.7 L263,86.8 L263.1,86.8 L263.1,86.7 L263.1,86.7 Z M270.6,72.4 L270.7,72.3 L270.6,72.3 L270.6,72.4 L270.6,72.4 Z M249.1,54.3 L249.1,53.9 L249.1,54.3 L249.1,54.3 Z M265.6,46.8 C265.9,46.7 266,46.7 265.6,46.8 Z M427.2,79.3 C425.6,79.2 407.7,78.6 406.1,78.5 C404.8,78.5 403.4,78.9 402,77.9 C400.9,62.9 402.1,47.8 401.9,32.9 C400.4,31.8 399,31.7 397.5,31.8 C395.9,31.9 394.4,32 392.8,32 L387.1,32 C387,32.7 386.9,33.2 386.8,33.7 C386.7,37.3 386.6,40.9 386.6,44.4 C386.6,48.5 386.8,52.6 386.8,56.6 C386.8,59.3 386.6,61.9 386.6,64.6 C386.5,70.8 386.4,76.9 386.2,83.1 C386.2,84.9 386,86.8 386.1,88.6 C386.3,91.8 387.4,92.8 390.6,93 C392,93.1 393.4,93 394.8,93 C400.1,93 421.8,94 427.4,93 C429.8,89.5 429.4,85.2 430,81.4 C429.4,79.9 428.4,79.4 427.2,79.3 Z M389.7,69.7 L389.5,69.7 L389.5,67.9 L389.7,67.9 L389.7,69.7 L389.7,69.7 Z M389.8,53.1 L389.5,53.1 L389.5,44.9 L389.8,44.9 L389.8,53.1 L389.8,53.1 Z M393.6,50.6 L393.8,50.6 L393.8,54.7 L393.6,54.7 L393.6,50.6 L393.6,50.6 Z M393.7,77.5 C393.5,76.8 393.5,76.5 393.4,76.3 L393.9,76.3 C393.8,76.5 393.8,76.7 393.7,77.5 L393.7,77.5 Z M394.8,88 L394.5,88 C394.4,86.9 394.4,85.9 394.3,84.8 C394.4,84.8 394.6,84.7 394.7,84.7 C394.8,85.9 394.8,86.9 394.8,88 L394.8,88 Z M394.5,80.8 L394.5,80 L394.7,80 C394.7,80.3 394.8,80.5 394.8,80.8 C394.7,80.7 394.6,80.8 394.5,80.8 L394.5,80.8 Z M397.4,33.9 L395.3,33.9 L395.3,33.7 L397.6,33.7 C397.5,33.7 397.4,33.8 397.4,33.9 L397.4,33.9 Z M399.8,48.5 L399.7,48.5 L399.7,46.5 L399.8,46.5 L399.8,48.5 L399.8,48.5 Z M400.4,75.3 C400.4,74.8 400.4,74.4 400.5,73.9 L400.8,73.9 C400.8,74.4 400.9,74.9 400.9,75.3 L400.4,75.3 L400.4,75.3 Z M405.1,90 L404.3,90 L404.3,89.9 L405.1,89.9 C405.1,89.9 405.1,89.9 405.1,90 L405.1,90 Z M403,85.8 L408,85.8 C406.4,86.7 404.8,86.5 403,85.8 L403,85.8 Z M420.9,89.6 L420.9,89.6 C420.7,89.4 420.5,89.2 420.3,89.1 L420.4,89 C420.6,89.2 420.8,89.4 420.9,89.6 L420.9,89.6 C421.3,89.8 421.8,89.9 422.7,90.3 C421.5,90.5 421,90.4 420.9,89.6 L420.9,89.6 Z M426,83.6 L426,83.4 L427.8,83.4 L427.8,83.6 L426,83.6 Z M436.8,35.6 C435.7,33.7 434.1,32.6 431.7,32.5 C427.2,32.3 422.7,32 418.2,32.3 C413.2,32.7 410.5,34.4 409.5,38.5 C408.9,41 408.4,43.5 408.6,46.1 C408.6,46.5 408.8,47 408.7,47.4 C408.6,49.6 408.5,51.8 408.4,54 L408.4,55.4 C408.5,59.9 408.5,64.3 409.5,68.7 C409.7,69.5 410,70.2 410.3,71 C411.1,72.7 412.5,73.7 414.5,74 C416.1,74.3 417.7,74.6 419.4,74.7 C420.8,74.8 422.2,74.7 423.5,74.6 C426.1,74.4 428.7,74.4 431.2,73.9 C435.2,73 436.3,72.3 437.1,68.6 C437.7,65.5 437.9,62.3 438,59.2 C438.2,56.4 438.1,53.7 438.1,50.9 C438.1,48.8 438.2,46.6 438.3,44.5 C438.6,41.4 438.5,38.4 436.8,35.6 Z M411.1,69.8 C411.1,69.7 411.1,69.7 411.1,69.8 L411.1,69.8 L411.1,69.8 Z M411,46 L411,45.8 L411.1,45.8 L411,46 L411,46 Z M411.1,69.8 C411.1,69.7 411.1,69.7 411.1,69.8 L411.1,69.8 L411.1,69.8 Z M412.4,71.6 C412.7,71.7 413.1,71.8 413.8,72.1 C412.8,72.3 412.4,72.2 412.4,71.6 L412.4,71.6 Z M415.2,37.4 L415.2,37.4 C415.1,37.1 415,36.8 415,36.4 L415,35.4 L415.2,35.4 L415.2,37.4 L415.2,37.4 Z M415.6,63.2 L415.4,63.2 L415.4,60.6 L415.6,60.6 L415.6,63.2 L415.6,63.2 Z M416.4,40.1 L416.4,40.1 C416.4,40.1 416.4,40.2 416.4,40.1 L416.4,40.1 Z M416.8,55.4 L416.7,55.4 L416.7,52.8 L416.8,52.8 L416.8,55.4 L416.8,55.4 Z M418.3,44 L418.1,44 L418.1,43 L418.3,43 L418.3,44 L418.3,44 Z M416.6,40 C417.4,39.2 417.5,39.1 418.6,38.8 C417.6,39.7 417.6,39.7 416.6,40 L416.6,40 Z M427.5,47.3 L427.7,47.3 L427.7,48.8 L427.5,48.8 L427.5,47.3 L427.5,47.3 Z M425.9,33.4 L425.9,33.5 L422.7,33.5 L422.7,33.4 L425.9,33.4 L425.9,33.4 Z M423.7,36.3 L423.7,39.1 L423.6,39.1 C423.5,38.6 423.4,38.2 423.4,37.7 L423.4,36.3 L423.7,36.3 L423.7,36.3 Z M420.9,64.6 C420.7,64.1 420.4,63.4 420.4,62.8 C420.3,60.8 420.2,58.7 420.2,56.7 C420.2,55.3 420.2,54 420.3,52.6 C420.4,50 420.6,47.4 420.7,44.8 C420.7,44.2 421,43.7 421.1,43.1 C421.6,42.7 422.1,42.4 422.5,42.1 C425,42.1 425.9,42.6 426.2,44.7 C426.3,45.4 426.4,46.2 426.4,46.9 C426.4,51.4 426.4,55.8 426.3,60.3 C426.3,61 426.2,61.8 426,62.5 C425.6,64.9 423.6,65.7 420.9,64.6 L420.9,64.6 Z M426.9,64.4 C427.2,63.1 427.5,61.8 427.7,60.5 C428.1,61.9 428.4,63.4 426.9,64.4 L426.9,64.4 Z M428.2,45.3 C428.2,45.3 428.1,45.3 428.2,45.3 C428.1,45.2 428.1,45.1 428.1,45 L428.2,45 L428.2,45.3 L428.2,45.3 Z M430.1,49.6 L430.1,49.6 C430,49.3 430,49.1 430,48.8 L430.2,48.8 C430.2,49.1 430.2,49.4 430.1,49.6 L430.1,49.6 Z M430.5,47.9 L430.3,47.9 L430.3,46.1 C430.4,46.1 430.4,46.1 430.5,46 L430.5,47.9 L430.5,47.9 Z M430.9,59.8 C430.6,58.2 430.6,56.7 431.4,55.3 C431.3,56.8 431.1,58.3 430.9,59.8 L430.9,59.8 Z M431.8,70 L431.6,70 L431.6,63.8 L431.8,63.8 L431.8,70 L431.8,70 Z M435.9,43.2 L435.7,43.2 L435.7,39.7 L435.9,39.7 L435.9,43.2 Z M330.8,58.5 C333.4,55.1 334.8,51.3 335.2,47.1 C335.6,43 334.7,39.2 332.9,35.6 C331.5,33 329.3,31.5 326.3,31.5 L323.8,31.5 C319.5,31.5 315.2,31.4 311,31.4 L309.1,31.4 L307.6,31.4 C305.7,31.4 303.8,31.7 301.8,31.8 C301.6,32.5 301.2,33.1 301.2,33.7 C301.1,35.3 301.1,37 301,38.7 C301,40.4 301,42 301.1,43.7 C301.1,45.4 301.3,47 301.3,48.7 C301.3,50.4 301.1,52.2 301.1,53.9 L301.1,63.9 L301.1,87.4 C301.1,89.3 301.4,91.2 301.9,93.1 C302.4,93.2 302.8,93.3 303.2,93.3 C306.3,93.3 309.3,93.3 312.4,93.2 C315.8,93.2 319.2,93.2 322.6,93 C324.5,92.9 326.7,93.1 328.4,91.8 C331.4,89.5 333.9,86.7 334.7,82.8 C335.1,80.5 335.2,78.2 335.4,75.9 C335.9,69.4 335.1,63.6 330.8,58.5 Z M333.4,48.1 C333.5,47.7 333.7,47.2 333.8,46.8 C333.8,47.3 333.8,47.7 333.7,48.2 C333.6,48.1 333.5,48.1 333.4,48.1 L333.4,48.1 Z M333.9,46.4 C333.6,43.7 333.3,41 333,38.3 C334.5,40.8 335,43.5 333.9,46.4 L333.9,46.4 Z M332.8,37.2 C332.8,37.4 332.8,37.6 332.9,37.9 C332.8,37.7 332.7,37.5 332.6,37.4 C332.6,37.3 332.7,37.3 332.8,37.2 L332.8,37.2 Z M303,34.1 L302.8,34.1 L302.8,33.2 L303,33.2 L303,34.1 L303,34.1 Z M304.3,50.9 L304.3,56.4 C303.7,54.7 303.7,53.8 304.3,50.9 L304.3,50.9 Z M304.8,89.9 C303.9,87.1 303.8,84.1 304.8,80.5 L304.8,89.9 L304.8,89.9 Z M306.3,71.7 L305.9,71.7 L305.9,69.4 L306.3,69.4 L306.3,71.7 L306.3,71.7 Z M307.1,44 L307.1,43.9 L307.2,43.9 L307.1,44 L307.1,44 Z M308.8,34 C307.8,33.9 306.8,33.7 305.7,33.6 C305.7,33.5 305.7,33.3 305.8,33.2 C306.8,33.4 307.9,33.6 308.9,33.8 C308.8,33.8 308.8,33.9 308.8,34 L308.8,34 Z M310.2,62.7 L309.9,62.7 L309.9,61.4 C310,61.4 310.1,61.4 310.3,61.5 C310.3,61.9 310.3,62.3 310.2,62.7 L310.2,62.7 Z M323.9,70 L323.9,68.7 C324.3,69.1 324.3,69.5 323.9,70 L323.9,70 Z M323.7,66 C323.8,66.8 323.8,67.6 323.9,68.5 C323.8,68.4 323.7,68.3 323.6,68.3 C323.6,67.5 323.6,66.7 323.7,66 L323.7,66 Z M323.9,70.4 L323.9,72.5 C323.7,72.5 323.6,72.5 323.4,72.4 C323.6,71.8 323.7,71.1 323.9,70.4 L323.9,70.4 Z M315,44.9 C317.2,44.5 317.3,44.5 319.6,45.4 C320.8,46.9 320.7,48.9 320.7,50.8 C320.7,51.8 320,52.7 318.9,53 C317.8,53.4 316.5,53.5 315,53.8 C315,50.5 315,47.7 315,44.9 L315,44.9 Z M320.4,57.1 C320.4,57.2 320.4,57.4 320.3,57.5 C319.3,57.4 318.3,57.3 317.3,57.1 C317.3,56.9 317.4,56.7 317.4,56.5 C318.4,56.7 319.4,56.9 320.4,57.1 L320.4,57.1 Z M314.3,75.3 L314,75.3 L314,72.3 L314.3,72.3 L314.3,75.3 L314.3,75.3 Z M315.1,65.3 C317,65.1 318.7,64.6 320.3,66.3 C321.1,69.4 320.9,72.7 320.4,76 C320.1,77.8 318.8,79.6 315.5,78.9 C314.8,77.1 314.6,70.9 315.1,65.3 L315.1,65.3 Z M316.6,81.5 C318.7,80.4 320.8,79.4 322.1,77.3 C321.2,80.1 319.4,81.4 316.6,81.5 L316.6,81.5 Z M321.8,84.9 L321.8,84.6 C322.9,84.5 324,84.5 325.1,84.4 L325.1,84.8 C324,84.9 322.9,84.9 321.8,84.9 L321.8,84.9 Z M326.4,84.4 C326.3,84.4 326.2,84.4 326.1,84.3 L326.5,84.3 C326.5,84.3 326.4,84.4 326.4,84.4 L326.4,84.4 Z M328.8,71.8 C328.2,70.2 328.3,68.8 329.4,67.4 C329.2,68.9 329,70.3 328.8,71.8 Z M135.8,89 C134.5,83.1 133.2,77.2 131.8,71.3 C130.8,67 129.8,62.7 128.9,58.4 C127.5,51.8 126.2,45.2 124.7,38.7 C124.2,36.5 123.1,34.4 122.3,32.1 C121.3,31.9 120.4,31.7 119.5,31.6 L106.3,31.6 C104.6,31.6 103.4,32.4 102.7,33.8 C102.3,34.4 102,35.1 101.8,35.8 C100.9,39.2 99.9,42.7 99.1,46.2 C97.5,53 96,59.8 94.6,66.6 C93,74.1 91.4,81.7 89.7,89.2 C89.4,90.5 89,91.8 90.6,93.1 C94.8,93.4 99.2,92.9 103.9,92.8 C104.4,91.8 104.9,91 105.2,90.1 C106,86.8 106.7,83.5 107.5,80.2 C107.6,79.7 108,79.2 108.3,78.6 C110,78.6 111.5,78.5 113.1,78.6 C114.6,78.7 116.3,78.2 117.8,79.1 C118.4,81.4 118.9,83.8 119.5,86.1 C120.1,88.5 120.4,91 122,93.2 L133.3,93.2 C134.2,93.2 135,92.9 136,92.7 C135.9,91.3 136.1,90.1 135.8,89 Z M101.5,46.2 L101.6,46.2 L101.6,46.7 L101.5,46.7 L101.5,46.2 L101.5,46.2 Z M94.7,85.4 L94.6,85.4 L94.6,84.8 L94.7,84.8 L94.7,85.4 L94.7,85.4 Z M98.1,69.9 C98.1,69.8 98,69.8 98,69.7 C98,69.6 98.1,69.4 98.3,68.8 C98.2,69.5 98.2,69.7 98.1,69.9 L98.1,69.9 Z M99.3,65.2 C99.1,66.2 99,67.3 98.8,68.3 C98.4,67.1 98.6,66.1 99.3,65.2 L99.3,65.2 Z M99.9,63.3 C99.9,63 100,62.7 100,62.4 C100.1,62.4 100.2,62.5 100.3,62.5 C100.2,62.8 100.1,63 99.9,63.3 L99.9,63.3 Z M100.4,91.8 C100.4,91.8 100.4,91.7 100.3,91.7 L102.4,91.7 L102.4,91.8 L100.4,91.8 L100.4,91.8 Z M102.4,43.1 C102.5,42.7 102.7,42.2 102.8,41.8 L102.8,43.2 C102.7,43.2 102.6,43.1 102.4,43.1 L102.4,43.1 Z M102.9,41.5 C102.9,40.8 102.6,40.1 103.3,39.7 C103.4,40.3 103.6,41 102.9,41.5 L102.9,41.5 Z M103.4,39.4 L103.4,38 C103.6,38 103.7,38.1 103.9,38.1 C103.7,38.5 103.6,38.9 103.4,39.4 L103.4,39.4 Z M105,80.4 C104.8,80.4 104.7,80.3 104.5,80.3 C104.9,79.2 105.2,78 105.6,76.9 C105.7,76.9 105.9,77 106,77 C105.6,78.1 105.3,79.2 105,80.4 L105,80.4 Z M113.7,34.1 C111.3,33.9 109.3,33.7 107.2,33.4 C109.7,32.8 111.4,32.9 113.7,34.1 L113.7,34.1 Z M112.3,46.1 C112.2,46.4 112.2,46.6 112.1,46.8 C112.1,46.7 112,46.5 112,46.4 C112,46.3 112.1,46.3 112.3,46.1 L112.3,46.1 Z M107.1,57.8 C107.5,56.6 107.5,55.2 108.4,54.2 C108.3,56.1 108.2,56.3 107.1,57.8 L107.1,57.8 Z M108.4,53.9 L108.4,53 C108.5,53 108.6,53.1 108.7,53.1 C108.7,53.3 108.5,53.6 108.4,53.9 L108.4,53.9 Z M110,65.9 C109.9,65.3 109.8,64.8 109.9,64.3 C110.7,59.3 111.6,54.3 112.6,49.3 C113.6,54.8 114.9,60.1 115.4,65.9 L110,65.9 L110,65.9 Z M111.3,77 L111.3,76.7 L116.1,76.7 L116.1,77 L111.3,77 L111.3,77 Z M124.7,49.8 L124.7,50.1 C124.7,50.1 124.6,50.1 124.6,50.2 C124.6,50.1 124.6,50 124.7,49.8 L124.7,49.8 Z M122.5,41.3 L122.6,41.3 L122.6,41.9 L122.4,41.9 C122.5,41.7 122.5,41.5 122.5,41.3 L122.5,41.3 Z M122.8,86.8 C122.8,86.9 122.9,86.9 122.9,87 L122.9,87.2 C122.9,87.2 122.8,87.1 122.8,87 L122.8,86.8 L122.8,86.8 Z M123,87.2 L123,87.2 C123,87.4 123,87.3 123,87.2 L123,87.2 Z M124.6,65.9 L124.6,65.9 C124.5,65.7 124.6,65.5 124.6,65.3 C124.6,65.4 124.7,65.4 124.7,65.5 C124.7,65.6 124.7,65.8 124.6,65.9 L124.6,65.9 Z M125.9,52.3 L126.2,52.3 C126.3,52.7 126.3,53.2 126.4,53.6 C126.3,53.6 126.1,53.7 126,53.7 C126,53.2 125.9,52.7 125.9,52.3 L125.9,52.3 Z M126.5,56.7 C126.5,56.5 126.4,56.2 126.4,56 L126.6,56 C126.6,56.2 126.7,56.5 126.7,56.7 L126.5,56.7 L126.5,56.7 Z M129.1,63.3 C129.1,62.9 129,62.5 129,62.1 L129.3,62.1 C129.3,62.5 129.4,62.9 129.4,63.3 C129.3,63.2 129.2,63.3 129.1,63.3 L129.1,63.3 Z M132.9,84.5 C133,84.5 133.2,84.4 133.3,84.4 C133.3,85 133.4,85.6 133.4,86.2 C133.2,85.6 133,85 132.9,84.5 L132.9,84.5 Z M133.5,87.8 C133.5,87.5 133.4,87.1 133.4,86.8 C133.5,87.1 133.7,87.4 133.8,87.8 L133.5,87.8 Z M351,92.9 C346.2,92.8 341.8,93.5 337.7,93 C336.2,91.9 336.4,90.7 336.7,89.5 C338.1,82.9 339.6,76.2 341,69.6 C342.9,61 344.7,52.4 346.6,43.8 C347.3,40.9 348.1,38 349,35.2 C349.8,32.7 351.5,31.5 354.3,31.6 C358,31.8 361.8,31.6 365.5,31.7 C366.7,31.7 368,32 369.3,32.1 C370.1,34.4 371.2,36.5 371.7,38.7 C373.2,45.1 374.5,51.5 375.8,57.9 C376.7,62.2 377.6,66.5 378.6,70.8 C380,76.9 381.4,82.9 382.7,89 C382.9,90.1 382.8,91.3 382.9,92.6 C382.1,92.9 381.5,93.2 380.9,93.2 C376.8,93.3 372.8,93.2 368.5,93.2 C366.5,88.5 365.9,83.7 364.6,79 C362.9,78.4 361.3,78.7 359.8,78.6 C358.3,78.5 356.8,78.6 355.2,78.6 C354.9,79.1 354.5,79.6 354.4,80.1 C353.6,83.3 353,86.6 352.2,89.8 C352,90.8 351.5,91.7 351,92.9 Z M346.8,63.5 C347,63.2 347.1,62.8 347.3,62.5 C347.2,62.5 347.1,62.4 347,62.4 C347,62.8 346.9,63.2 346.8,63.5 C346.7,64.1 346.5,64.6 346.4,65.1 C345.6,66 345.4,67.1 345.9,68.3 C346.1,67.2 346.2,66.1 346.4,65 C347.2,64.7 346.8,64 346.8,63.5 L346.8,63.5 Z M369.9,87 C369.9,87.2 370,87.5 369.9,87.2 C370.1,87.4 370,87.3 369.9,87 C369.8,86.7 369.7,86.3 369.7,85.8 C369.6,85.8 369.5,85.9 369.4,85.9 C369.6,86.3 369.7,86.7 369.9,87 L369.9,87 Z M350.4,39.6 C349.6,40.1 349.9,40.9 349.9,41.6 C349.7,42.1 349.6,42.6 349.4,43.1 C349.5,43.1 349.7,43.1 349.8,43.2 L349.8,41.6 C350.7,41.1 350.3,40.3 350.4,39.6 C350.5,39 350.7,38.5 350.9,38 C350.7,38 350.6,37.9 350.4,37.9 L350.4,39.6 L350.4,39.6 Z M380.4,86.5 C380.4,86.9 380.5,87.4 380.5,87.8 C380.6,87.8 380.7,87.8 380.8,87.7 C380.7,87.3 380.5,87 380.4,86.5 C380.3,85.8 380.3,85.1 380.2,84.4 C380.1,84.4 379.9,84.4 379.8,84.5 C380,85.1 380.2,85.8 380.4,86.5 L380.4,86.5 Z M355.4,54.1 C354.4,55.1 354.4,56.5 354.1,57.8 C355.2,56.8 355.5,55.5 355.4,54.1 C355.5,53.7 355.6,53.4 355.7,53 C355.6,53 355.5,52.9 355.4,52.9 C355.5,53.3 355.4,53.7 355.4,54.1 L355.4,54.1 Z M359.4,49.3 C358.9,52.1 358.3,54.8 358,57.6 C357.7,60.3 356.6,63 357,65.8 L362.4,65.8 C361.9,60.2 360.6,54.8 359.4,49.3 L359.4,49.3 Z M354.3,33.5 C356.2,33.7 358.2,33.9 360.1,34.1 C358.3,32.8 356.3,33.1 354.3,33.5 L354.3,33.5 Z M363.2,77 L363.2,76.7 L358.2,76.7 L358.2,77 L363.2,77 L363.2,77 Z M353,77 C352.9,77 352.7,76.9 352.6,76.9 C352.2,78 351.9,79.2 351.5,80.3 C351.7,80.3 351.8,80.4 352,80.4 C352.3,79.3 352.6,78.1 353,77 L353,77 Z M347.3,91.7 L347.3,91.8 L349.4,91.8 L349.4,91.6 C348.7,91.7 348,91.7 347.3,91.7 L347.3,91.7 Z M376,63.3 L376.3,63.3 C376.3,62.9 376.2,62.5 376.2,62.1 L375.9,62.1 C375.9,62.5 376,62.9 376,63.3 L376,63.3 Z M373,53.6 L373.4,53.6 C373.3,53.2 373.3,52.7 373.2,52.3 L372.9,52.3 C372.9,52.7 373,53.2 373,53.6 L373,53.6 Z M373.5,56.7 L373.7,56.7 L373.7,55.9 L373.5,55.9 L373.5,56.7 L373.5,56.7 Z M371.6,50.3 C371.6,50.1 371.6,50 371.7,49.9 C371.7,49.9 371.6,49.9 371.6,50 L371.6,50.3 L371.6,50.3 Z M341.1,86.9 C341.1,86.6 341.2,86.5 341.1,86.9 C341.1,86.5 341.1,86.6 341.1,86.9 L341.1,86.9 Z M341.7,84.7 L341.6,84.7 L341.6,85.3 L341.7,85.3 L341.7,84.7 L341.7,84.7 Z M345.1,69.9 L345.2,69.9 L345.2,69.3 L345.1,69.3 L345.1,69.9 L345.1,69.9 Z M369.7,41.3 L369.6,41.3 L369.6,41.9 L369.8,41.9 C369.7,41.7 369.7,41.5 369.7,41.3 L369.7,41.3 Z M371.7,65.3 L371.6,65.3 L371.6,65.9 L371.7,65.9 L371.7,65.3 L371.7,65.3 Z M359.2,46.2 L359.1,46.2 L359.1,46.7 L359.2,46.7 L359.2,46.2 Z M185.6,58.3 C184.1,58.2 182.6,58.3 181.1,58.2 C179.8,58.2 178.5,58.5 177,57.7 C175.9,42.7 176.8,47.8 176.7,32.9 C175.4,31.7 174,31.6 172.6,31.7 C170.7,31.8 168.8,31.8 166.9,31.9 C165.2,32 163.5,32 161.7,32.1 C161.6,35.9 161.5,37.4 161.5,40.9 C161.5,50.2 161.7,41.3 161.6,50.6 C161.6,56.1 161.2,61.5 161.1,67 C161,71.6 162.3,72.8 166.8,72.8 C170,72.8 173.3,72.9 176.5,72.8 C179.6,72.7 182.8,72.5 186,72.3 C188.5,68.5 188.2,64.3 188.8,60.4 C188.1,58.9 187,58.4 185.6,58.3 Z M164.7,49.3 L164.6,49.3 L164.6,47.7 L164.7,47.7 L164.7,49.3 L164.7,49.3 Z M169.7,59.2 L169.7,60.8 C169.5,60.3 169.4,60.2 169.4,60.1 C169.4,59.9 169.5,59.8 169.7,59.2 L169.7,59.2 Z M168.4,38.1 L168.6,38.1 L168.6,42.2 C168.5,42.2 168.5,42.2 168.4,42.1 L168.4,38.1 L168.4,38.1 Z M168.7,57.2 C168.5,56.5 168.5,56.2 168.4,56 L168.9,56 C168.8,56.2 168.8,56.5 168.7,57.2 L168.7,57.2 Z M169.8,67.8 L169.6,67.8 C169.5,67.2 169.4,66.7 169.4,66.1 C169.4,65.5 169.5,65 169.5,64.4 L169.8,64.4 C169.8,65.6 169.8,66.7 169.8,67.8 L169.8,67.8 Z M170.2,33.9 L170.2,33.7 L172.3,33.7 C172.3,33.8 172.4,33.8 172.4,33.9 L170.2,33.9 L170.2,33.9 Z M173.7,69.5 L173.6,69.5 L173.6,67.9 L173.7,67.9 L173.7,69.5 L173.7,69.5 Z M173.8,53 L173.6,53 L173.6,44.9 L173.8,44.9 L173.8,53 L173.8,53 Z M175.8,55.1 L175.5,55.1 C175.5,54.6 175.4,54.2 175.4,53.7 L175.8,53.7 L175.8,55.1 L175.8,55.1 Z M179.6,69.8 C179.5,69.8 179.3,69.7 179.1,69.6 C179.4,69.6 179.6,69.6 179.8,69.5 C179.8,69.6 179.7,69.8 179.6,69.8 L179.6,69.8 Z M178.1,65.6 L183,65.6 C181.4,66.4 179.8,66.2 178.1,65.6 L178.1,65.6 Z M186.6,62.7 L184.8,62.7 L184.8,62.3 C185.4,62.3 186,62.4 186.6,62.4 L186.6,62.7 Z M183.1,80.7 C182.5,79.6 181.4,79.1 180.2,79.1 C178.8,79 160.3,78.5 158.9,78.5 L154.5,78.5 C153.3,63.1 154.5,48 154.3,32.9 C152.9,31.8 151.5,31.7 150,31.8 C148.3,31.9 146.5,31.9 144.8,32 C143,32 141.2,32.1 139.3,32.1 C139.2,35.9 139,39.3 139,42.8 L139,69.7 C138.9,75.5 138.6,81.3 138.5,87.1 C138.4,91.8 139.7,93 144.4,93 C147.5,93 150.6,93.1 153.6,93 C156.8,92.9 177.1,93.1 180.1,93 C182.2,90.8 183.5,85.2 183.1,80.7 Z M142.2,69.6 L142,69.6 L142,67.9 L142.2,67.9 L142.2,69.6 L142.2,69.6 Z M142.3,53.2 L142.1,53.2 L142.1,45 L142.3,45 L142.3,53.2 L142.3,53.2 Z M146.1,50.7 L146.2,50.7 L146.2,54.7 L146.1,54.7 L146.1,50.7 L146.1,50.7 Z M146.1,76.9 C146.1,76.6 146,76.4 146,76.1 L146.3,76.1 C146.3,76.4 146.4,76.6 146.4,76.9 L146.1,76.9 L146.1,76.9 Z M147.3,88 L147.1,88 C147,87.4 146.9,86.9 146.9,86.3 C146.9,85.7 147,85.2 147,84.6 L147.3,84.6 C147.3,85.8 147.3,86.9 147.3,88 L147.3,88 Z M147,80.8 L147,80 L147.2,80 C147.2,80.3 147.3,80.5 147.3,80.8 C147.2,80.7 147.1,80.8 147,80.8 L147,80.8 Z M150.1,33.9 L147.8,33.9 L147.8,33.7 L150.1,33.7 L150.1,33.9 L150.1,33.9 Z M152.3,48.5 L152.1,48.5 L152.1,46.5 L152.3,46.5 L152.3,48.5 L152.3,48.5 Z M153,75.4 L153,74 L153.3,74 C153.4,74.4 153.4,74.9 153.5,75.3 C153.3,75.3 153.1,75.3 153,75.4 L153,75.4 Z M157.5,90 L156.7,90 L156.7,89.9 L157.5,89.9 C157.6,89.9 157.5,89.9 157.5,90 L157.5,90 Z M155.2,85.8 L161.1,85.8 C158.9,86.8 157.4,86.4 155.2,85.8 L155.2,85.8 Z M154.9,81.9 L154.9,81.6 C155.5,81.6 159.7,81.8 160.3,81.8 C160.3,81.9 168.2,82.2 168.2,82.2 C167.6,82.2 155.5,81.9 154.9,81.9 L154.9,81.9 Z M172.8,89.6 C172.7,89.6 172.5,89.5 172.3,89.4 C172.6,89.4 172.8,89.4 173,89.3 C172.9,89.5 172.8,89.6 172.8,89.6 L172.8,89.6 Z M178.8,88 L178.6,88 C178.5,87.4 178.4,86.9 178.4,86.3 C178.4,85.7 178.5,85.2 178.5,84.6 L178.8,84.6 C178.8,85.8 178.8,86.9 178.8,88 L178.8,88 Z M180.9,82.5 C180.8,81.8 180.8,81.5 180.7,80.9 C180.9,81.3 181.1,81.5 181.1,81.6 C181.1,81.7 181,81.9 180.9,82.5 Z M85.7,61.8 C85.6,57.8 85.2,53.7 85.2,49.7 C85.1,45.9 85.4,42.1 85.4,38.3 C85.4,36.3 85.1,34.2 84.9,32.1 C79.7,31.4 74.8,31.8 69.8,32.8 L69.8,57.1 C66.9,58.1 65.8,58.2 63.6,57.9 C63.5,57.7 63.4,57.5 63.4,57.2 C63.3,52.7 63.3,48.2 63.2,43.8 C63.2,40.8 63.3,37.8 63.3,34.8 C63.3,34.2 63,33.6 62.9,32.8 C57.8,31.8 52.8,32.1 47.5,32.5 L47.5,36.6 L47.5,60.2 L44,60.2 L44,57.6 C44,56.9 43.7,55.8 43.4,55.3 C43.2,55 41.9,54.6 41,54.6 L37.9,54.6 C37.3,54.6 36.8,54.9 36.3,55.1 C35.5,55.4 35,56.5 35,57.6 L35,76.9 C35,77.8 35.3,78.7 36.1,79.2 C36.7,79.5 37.3,79.9 38,79.9 L41.1,79.9 C42.3,79.9 43,79.2 43.8,78.2 C44,77.9 44.1,77.4 44.1,77 L44.1,74.2 L47.6,74.2 L47.6,89.8 C47.6,90.7 47.8,91.6 47.8,92.5 C52.2,93.1 56.3,93.4 60.4,93 C61.5,92.9 62.7,92.7 63.5,91.5 C64,86.1 63.3,80.6 64.2,75.3 C66,74.7 68.2,74.6 70.2,75 C70.3,79.2 70.4,83.4 70.6,87.7 C70.7,89 70.9,90.3 71.1,91.6 C71.3,92.7 72.2,93.2 73.3,93.3 C76.6,93.5 79.9,93.5 83.2,93.1 C84.1,93 84.9,92.6 85.9,92.3 C86,91.7 86.1,91.3 86.1,91 C85.9,81.2 85.9,71.5 85.7,61.8 Z M38,68.7 L37.7,68.7 L37.7,58.6 L38,58.6 L38,68.7 L38,68.7 Z M41.7,67.4 L42,67.4 C42,67.9 41.9,68.4 41.9,68.9 L41.6,68.9 C41.6,68.4 41.7,67.9 41.7,67.4 L41.7,67.4 Z M41,77.9 C41.4,75.5 41.7,73.5 42.1,71.4 C42.5,74 42.2,75.7 41,77.9 L41,77.9 Z M47.1,66.9 L46.9,66.9 C46.8,66.1 46.7,65.3 46.7,64.4 L46.7,61.7 L47.1,61.7 C47.1,63.5 47.1,65.2 47.1,66.9 L47.1,66.9 Z M52.8,50.5 L52.8,51.9 L52.5,51.9 C52.5,51.5 52.4,51 52.4,50.6 C52.6,50.5 52.7,50.5 52.8,50.5 L52.8,50.5 Z M52,33.3 L52,33.4 L49.9,33.4 L49.9,33.3 L52,33.3 L52,33.3 Z M53.6,59.6 L53.8,59.6 L53.8,60.1 L53.6,60.1 L53.6,59.6 L53.6,59.6 Z M54.2,44.1 L54,44.1 L54,41.5 L54.2,41.5 L54.2,44.1 L54.2,44.1 Z M57.1,74.7 L57.3,74.7 L57.3,75.3 L57.2,75.3 C57.1,75.1 57.1,74.9 57.1,74.7 L57.1,74.7 Z M57.3,82.1 L57.1,82.1 C57,81.3 56.9,80.5 56.9,79.6 L56.9,76.9 L57.4,76.9 C57.3,78.7 57.3,80.4 57.3,82.1 L57.3,82.1 Z M57.7,86.8 L57.4,86.8 C57.4,86.3 57.4,85.8 57.5,85.3 L57.8,85.3 C57.8,85.7 57.8,86.3 57.7,86.8 L57.7,86.8 Z M58.8,50.5 L58.5,50.5 L58.5,40.4 L58.8,40.4 L58.8,50.5 L58.8,50.5 Z M66.4,59.9 L66.4,59.7 L71.4,59.7 L71.4,59.9 L66.4,59.9 L66.4,59.9 Z M71.7,79.2 L71.5,79.2 L71.5,76.9 L71.7,76.9 L71.7,79.2 L71.7,79.2 Z M73.5,54.7 C73.3,52.6 73.2,50.6 73,48.3 C74.2,50.5 73.8,52.6 73.5,54.7 L73.5,54.7 Z M74.6,67.4 L74.6,67.1 L74.6,67.1 L74.6,67.1 C74.6,67.1 74.6,67.2 74.7,67.2 C74.7,67.2 74.7,67.1 74.6,67.1 L74.6,67.4 L74.6,67.4 Z M75.7,40.7 L75.4,40.7 L75.4,36 L75.7,36 L75.7,40.7 L75.7,40.7 Z M81.2,44.8 L81.1,45 L81,44.8 L81.2,44.8 L81.2,44.8 Z M83,91.4 L80.9,91.4 L80.9,91.2 L83,91.2 L83,91.4 L83,91.4 Z M83.7,65.7 L83.5,65.7 L83.5,61.9 L83.7,61.9 L83.7,65.7 L83.7,65.7 Z M84.3,83.1 L84.1,83.1 L84.1,74.5 L84.3,74.5 L84.3,83.1 L84.3,83.1 Z M84.3,47.9 C84.3,47.8 84.3,47.8 84.3,47.9 L84.3,47.9 L84.3,47.9 Z M84.5,48.3 C84.5,48.4 84.5,48.4 84.5,48.3 L84.5,48.3 L84.5,48.3 Z M84.4,48.2 C84.5,48.2 84.5,48.3 84.4,48.2 C84.5,48.3 84.5,48.3 84.4,48.2 Z M494.9,53.5 L491.8,53.5 C491.1,53.5 490,53.7 489.6,54.2 C489.1,54.9 488.8,55.6 488.8,56.5 L488.8,59 L482.1,59 C482.2,55.8 482.2,52.7 482.3,49.5 C482.4,45 482.3,40.6 480.1,36.4 C478.6,33.6 476.4,32.1 473.4,31.9 C467.6,31.7 461.8,31.2 456,31.6 C449.4,32.1 445.7,34.7 444.4,40.9 C443.6,44.5 443,48.1 443.3,51.8 C443.3,52.5 443.5,53.3 443.5,54 C443.4,57.2 443.3,60.5 443.1,64.6 C443.2,67.9 443.3,72 443.6,76.2 C443.8,79.4 444.3,82.6 444.8,85.8 C445,87 445.6,88.2 446.1,89.3 C447,91.2 448.6,92.4 450.6,92.9 C452.8,93.4 455.2,93.8 457.5,94 C459.5,94.2 461.6,94 463.7,93.9 C466.8,93.7 470,93.6 473,92.9 C478.6,91.6 479.9,90.3 480.9,85 C481.6,81 481.8,76.9 482,72.8 L489,72.8 L489,75.6 C489,76 488.9,76.7 489.2,77.1 C490,77.9 490.7,78.6 491.9,78.6 L495,78.6 C495.7,78.6 496.6,78.3 497.1,77.9 C497.7,77.3 498,76.6 498,75.7 L498,56.4 C498,55.7 497.6,55.1 497.3,54.5 C496.6,53.6 495.8,53.5 494.9,53.5 Z M446.3,51.7 L446.3,51.5 L446.3,51.7 Z M448.1,89.6 C448.5,89.8 449,89.9 449.9,90.3 C448.7,90.5 448.2,90.4 448.1,89.6 Z M451.6,37.7 L451.6,36.3 L451.9,36.3 L451.9,39.1 L451.8,39.1 C451.7,38.7 451.6,38.2 451.6,37.7 Z M452.1,47.7 L451.8,47.7 L451.8,42.5 L452.1,42.5 L452.1,47.7 Z M452.4,77.2 L452.2,77.2 L452.2,73.4 L452.4,73.4 L452.4,77.2 Z M453.4,43.1 C453.4,43.2 453.4,43.2 453.4,43.1 C453.4,43.2 453.4,43.2 453.4,43.1 L453.4,42.9 L453.5,43 C453.5,43.1 453.5,43.1 453.4,43.1 Z M453.9,65.7 L453.7,65.7 L453.7,61.9 L453.9,61.9 L453.9,65.7 Z M455.9,48.8 L455.7,48.8 L455.7,47.3 L455.9,47.3 L455.9,48.8 Z M453.6,43 C454.3,42.1 455.2,41.5 456.3,41.3 C455.5,42 454.8,42.9 453.6,43 Z M465.8,33.3 L465.8,33.5 L461.6,33.5 L461.6,33.3 L465.8,33.3 Z M466.5,72.9 C466.5,74 466.3,75.1 466.1,76.1 C465.5,79.6 462.9,80.9 459.2,79.2 C459,78.4 458.6,77.4 458.6,76.5 C458.4,73.5 458.4,70.5 458.4,67.5 C458.4,65.5 458.4,63.5 458.5,61.5 C458.7,57.7 458.8,53.9 459.1,50.1 C459.1,49.3 459.4,48.5 459.6,47.7 C460.3,47.1 460.9,46.6 461.4,46.2 C464.7,46.1 465.8,47 466.3,50 C466.5,51.1 466.5,52.2 466.5,53.2 C466.5,59.7 466.5,66.3 466.5,72.9 Z M467.1,79 C467.5,77.1 467.8,75.2 468.2,73.2 C468.7,75.3 469,77.4 467.1,79 Z M468.8,50.9 C468.8,50.8 468.7,50.6 468.7,50.5 C468.7,50.5 468.8,50.5 468.8,50.4 L468.8,50.9 Z M471.4,57.1 L471.3,57.1 L471.3,55.9 L471.5,55.9 C471.4,56.3 471.4,56.7 471.4,57.1 Z M471.9,54.6 L471.7,54.6 L471.7,52 L471.9,52 L471.9,54.6 Z M472.4,72.2 L472,72.2 C472.2,70 472.3,67.7 472.5,65.5 L473.1,65.5 C472.9,67.7 472.6,69.9 472.4,72.2 Z M473.6,85.8 C473.6,86.3 473.5,86.8 473.5,87.2 L473.3,87.2 C473.2,86.7 473.1,86.1 473.1,85.6 L473.1,77.9 L473.7,77.9 C473.6,80.5 473.6,83.2 473.6,85.8 Z M479,47.7 C478.9,47.7 478.8,47.6 478.7,47.6 L478.7,42.5 L479,42.5 L479,47.7 Z M484.8,68.1 L484.6,68.1 L484.6,63.9 L484.8,63.9 L484.8,68.1 Z M490.7,62.7 L490.3,62.7 C490.5,60.5 490.6,58.2 490.8,56 L491.4,56 C491.2,58.2 491,60.4 490.7,62.7 Z M494.5,76.2 L494.5,76.3 L494.5,76.2 C494.4,76.2 494.4,76.2 494.5,76.2 C494.9,74.3 495.2,72.4 495.6,70.4 C496,72.5 496.4,74.6 494.5,76.2 Z M229.1,36.5 C227.7,33.8 225.6,32.3 222.7,32.1 C220.8,32 218.9,31.9 217.1,31.8 L216.8,32.1 L212.6,42.5 L220.7,41.9 L215.6,53 L225.8,49.7 L204.2,86.4 L207.5,68.1 L200.4,71 L206.9,51 L199.4,54 L210.5,32.2 L217,29.3 C217.2,26.3 218.7,24.3 220.2,22.7 C222.9,19.8 226.8,19.5 226.8,19.5 C226.1,18.1 224.2,18 222.6,17.6 C220.6,17.1 218.6,19.3 218.6,19.3 C218.6,17.6 219.9,15.2 221.7,13.3 C224.3,10.7 226.8,8.2 226.8,8.2 C224.6,7.7 222,9.2 219.5,10 C216.9,10.8 215.3,12.7 215.3,12.7 C215.3,12.7 216.2,9.6 216.1,8.5 C216,6.7 217.7,2.13162821e-14 217.7,2.13162821e-14 C216,2.13162821e-14 214.1,2.1 213,4.9 C211.2,9.5 209.3,14.5 209.3,14.5 C208.6,11.1 207.8,8.5 206.7,6.6 C203.7,1.7 201.2,0.6 201.2,0.6 C200.3,1.5 200.9,4.6 201.1,7.9 C201.3,12.1 203.1,16.4 203.1,16.4 C200.7,13.2 197.8,13.1 195.6,12 C191.4,10.1 187.5,11.5 187.5,11.5 C190.4,13.1 192.4,14.7 194.1,15.6 C198.7,18.1 198.7,19.8 198.7,19.8 C197.2,19.6 195.4,19.9 194.1,20 C188.8,20.5 186.4,25.8 186.4,25.8 C189.9,25 192.5,24.1 194.6,24.3 C199.6,24.9 201.8,26.2 201.8,26.2 C200.7,26.3 199.4,26.6 198.5,26.7 C191.8,27.6 190.1,33.4 190.1,33.4 C193.1,31.2 198.4,30.1 200.8,30.2 C203,30.3 205,30.9 206.4,31.5 C205.9,31.5 205.5,31.6 205.1,31.6 C198.5,32.4 194.5,34.8 193.2,41 C192.5,44.5 191.8,48 192.1,51.6 C192.2,52.4 192.3,53.3 192.3,54.1 C192.2,57.3 192,60.4 192.1,63.6 C192.1,67.9 192.2,72.3 192.5,76.6 C192.7,79.7 193.2,82.9 193.7,86 C193.9,87.2 194.5,88.4 195,89.5 C195.9,91.4 197.5,92.6 199.5,93.1 C201.8,93.6 204.1,94 206.4,94.2 C208.5,94.4 210.7,94.2 212.8,94.1 C215.8,93.9 218.9,93.8 221.9,93.1 C227.4,91.7 228.8,90.5 229.7,85.2 C230.5,80.7 230.7,76.1 230.9,71.5 C231.1,67.3 231,63.2 231.1,59 C231.2,55.8 231.2,52.7 231.3,49.5 C231.5,45 231.3,40.6 229.1,36.5 Z M216.3,20 L216.3,19.9 L216.3,20 C216.3,19.9 216.3,20 216.3,20 C216.3,21.4 216.2,22.7 215.3,24 C215.3,22.5 215.3,21.1 216.3,20 Z M215.3,3 C214.6,4.9 213.9,6.8 213.1,8.9 C213.2,7 213.8,5.1 215.3,3 Z M212.5,16.8 L212.7,16.8 C212.7,17.6 212.6,18.3 212.6,19.1 L212.4,19.1 C212.4,18.3 212.4,17.6 212.5,16.8 Z M208.3,29.1 C207.7,28.6 207.1,28.1 206.6,27.6 C206.7,27.5 206.7,27.5 206.8,27.4 C207.4,27.9 208,28.4 208.5,28.9 C208.4,29 208.4,29.1 208.3,29.1 Z M208.2,22.6 C208.3,23.3 208.4,23.9 208.6,24.6 L208.6,24.8 L208.5,24.7 C208.3,24 208.2,23.3 208.2,22.6 Z M201.2,20.9 C201.1,20.9 201.1,20.9 201.2,20.9 L201.1,20.8 C201.1,20.8 201.2,20.9 201.2,20.9 C202.2,21.3 203.1,21.9 203.6,23 C202.7,22.4 201.6,22 201.2,20.9 Z M205.8,12.8 L205.8,11.9 L206,11.9 L206,12.8 L205.8,12.8 Z M206.5,17.7 C206.3,16.4 206.2,15.1 206,13.8 L206.4,13.8 C206.6,15 206.7,16.3 206.9,17.5 C206.8,17.6 206.6,17.6 206.5,17.7 Z M200.7,36.4 L200.9,36.4 L200.9,39.3 L200.7,39.3 L200.7,36.4 Z M195.3,51.8 L195.3,51.6 L195.4,51.6 L195.3,51.8 Z M197.1,89.7 C197.5,89.9 198,90.1 198.9,90.4 C197.7,90.6 197.2,90.4 197.1,89.7 Z M201.4,77.4 L201.1,77.4 L201.1,73.6 C201.2,73.6 201.3,73.6 201.4,73.7 L201.4,77.4 Z M221.5,72.2 L221.1,72.2 C221.3,70 221.4,67.8 221.6,65.6 L222.2,65.6 C221.9,67.8 221.7,70 221.5,72.2 Z M222.5,87.3 L222.2,87.3 L222.2,78 L222.5,78 L222.5,87.3 Z M228,47.7 L227.7,47.7 L227.7,42.6 L228,42.6 L228,47.7 Z"></path>
  </g>
</svg>