<svg class="ui-phone" viewBox="0 0 622 1056" version="1.1" xmlns="http://www.w3.org/2000/svg">
  <rect id="ui-phone__topbar" fill="#222" x="0" y="0" width="621.803253" height="74"></rect>
  <g class="ui-phone__text" transform="translate(31.000000, 27.000000)" fill="#fff">
    <path d="M239.599609,17 L242.070312,17 L242.070312,2.90820312 L239.580078,2.90820312 L235.898438,5.49609375 L235.898438,7.86914062 L239.541016,5.31054688 L239.599609,5.31054688 L239.599609,17 Z M249.635547,17 L252.10625,17 L252.10625,2.90820312 L249.616016,2.90820312 L245.934375,5.49609375 L245.934375,7.86914062 L249.576953,5.31054688 L249.635547,5.31054688 L249.635547,17 Z M257.767187,14.9394531 C258.548437,14.9394531 259.163672,14.3242188 259.163672,13.5332031 C259.163672,12.7421875 258.548437,12.1269531 257.767187,12.1269531 C256.976172,12.1269531 256.360937,12.7421875 256.360937,13.5332031 C256.360937,14.3242188 256.976172,14.9394531 257.767187,14.9394531 L257.767187,14.9394531 Z M257.767187,7.88867188 C258.548437,7.88867188 259.163672,7.26367188 259.163672,6.48242188 C259.163672,5.69140625 258.548437,5.07617188 257.767187,5.07617188 C256.976172,5.07617188 256.360937,5.69140625 256.360937,6.48242188 C256.360937,7.26367188 256.976172,7.88867188 257.767187,7.88867188 L257.767187,7.88867188 Z M268.906641,17 L271.308984,17 L271.308984,14.3339844 L273.203516,14.3339844 L273.203516,12.2734375 L271.308984,12.2734375 L271.308984,2.90820312 L267.725,2.90820312 C264.668359,7.3515625 263.096094,9.86132812 261.875391,12.1660156 L261.875391,14.3339844 L268.906641,14.3339844 L268.906641,17 Z M264.160547,12.2636719 C265.283594,10.1542969 266.63125,8.07421875 268.906641,4.7734375 L268.945703,4.7734375 L268.945703,12.3320312 L264.160547,12.3320312 L264.160547,12.2636719 Z M280.466016,17.2832031 C284.079297,17.2832031 286.217969,14.4902344 286.217969,9.79296875 C286.217969,8.03515625 285.876172,6.56054688 285.212109,5.40820312 C284.274609,3.61132812 282.594922,2.61523438 280.524609,2.61523438 C277.477734,2.61523438 275.260937,4.67578125 275.260937,7.52734375 C275.260937,10.203125 277.262891,12.1855469 279.938672,12.1855469 C281.764844,12.1855469 283.210156,11.2578125 283.757031,9.88085938 L283.766797,9.88085938 L283.776562,9.88085938 L283.796094,9.88085938 C283.835156,13.2890625 282.585156,15.2421875 280.505078,15.2421875 C279.274609,15.2421875 278.26875,14.5390625 277.95625,13.4746094 L275.45625,13.4746094 C275.856641,15.7402344 277.878125,17.2832031 280.466016,17.2832031 L280.466016,17.2832031 Z M280.534375,10.2128906 C278.932812,10.2128906 277.741406,9.04101562 277.741406,7.44921875 C277.741406,5.90625 278.981641,4.68554688 280.553906,4.68554688 C282.135937,4.68554688 283.366406,5.91601562 283.366406,7.48828125 C283.366406,9.04101562 282.145703,10.2128906 280.534375,10.2128906 L280.534375,10.2128906 Z M298.021484,17 L300.677734,17 L295.677734,2.90820312 L292.835937,2.90820312 L287.835937,17 L290.433594,17 L291.634766,13.3574219 L296.820312,13.3574219 L298.021484,17 Z M294.193359,5.3984375 L294.261719,5.3984375 L296.224609,11.4140625 L292.220703,11.4140625 L294.193359,5.3984375 Z M317.422656,2.90820312 L314.5125,2.90820312 L310.196094,13.5429688 L310.117969,13.5429688 L305.801562,2.90820312 L302.881641,2.90820312 L302.881641,17 L305.157031,17 L305.157031,7 L305.225391,7 L309.297656,16.8828125 L311.016406,16.8828125 L315.088672,7 L315.157031,7 L315.157031,17 L317.422656,17 L317.422656,2.90820312 Z"></path>
    <path d="M455.658203,17 L457.796875,17 L457.796875,2.90820312 L455.638672,2.90820312 L451.927734,5.54492188 L451.927734,7.69335938 L455.609375,5.07617188 L455.658203,5.07617188 L455.658203,17 Z M467.061328,17.2636719 C470.440234,17.2636719 472.422656,14.421875 472.422656,9.9296875 C472.422656,5.46679688 470.430469,2.64453125 467.061328,2.64453125 C463.701953,2.64453125 461.680469,5.4765625 461.680469,9.93945312 C461.680469,14.4316406 463.682422,17.2636719 467.061328,17.2636719 L467.061328,17.2636719 Z M467.061328,15.4277344 C465.049609,15.4277344 463.897266,13.3378906 463.897266,9.93945312 C463.897266,6.58984375 465.069141,4.48046875 467.061328,4.48046875 C469.053516,4.48046875 470.215625,6.58007812 470.215625,9.93945312 C470.215625,13.3476562 469.073047,15.4277344 467.061328,15.4277344 L467.061328,15.4277344 Z M480.2125,17.2636719 C483.591406,17.2636719 485.573828,14.421875 485.573828,9.9296875 C485.573828,5.46679688 483.581641,2.64453125 480.2125,2.64453125 C476.853125,2.64453125 474.831641,5.4765625 474.831641,9.93945312 C474.831641,14.4316406 476.833594,17.2636719 480.2125,17.2636719 L480.2125,17.2636719 Z M480.2125,15.4277344 C478.200781,15.4277344 477.048437,13.3378906 477.048437,9.93945312 C477.048437,6.58984375 478.220312,4.48046875 480.2125,4.48046875 C482.204687,4.48046875 483.366797,6.58007812 483.366797,9.93945312 C483.366797,13.3476562 482.224219,15.4277344 480.2125,15.4277344 L480.2125,15.4277344 Z M501.781641,13.6113281 C501.781641,11.4433594 500.6,10.0566406 498.744531,10.0566406 C496.889062,10.0566406 495.687891,11.453125 495.687891,13.6113281 C495.687891,15.7792969 496.889062,17.1757812 498.744531,17.1757812 C500.590234,17.1757812 501.781641,15.7792969 501.781641,13.6113281 L501.781641,13.6113281 Z M498.744531,15.7988281 C497.963281,15.7988281 497.475,14.9492188 497.475,13.6113281 C497.475,12.2734375 497.963281,11.4433594 498.744531,11.4433594 C499.535547,11.4433594 499.994531,12.2441406 499.994531,13.6113281 C499.994531,14.9589844 499.516016,15.7988281 498.744531,15.7988281 L498.744531,15.7988281 Z M493.695703,6.20898438 C493.695703,4.04101562 492.514062,2.65429688 490.658594,2.65429688 C488.803125,2.65429688 487.601953,4.05078125 487.601953,6.20898438 C487.601953,8.37695312 488.803125,9.7734375 490.658594,9.7734375 C492.504297,9.7734375 493.695703,8.37695312 493.695703,6.20898438 L493.695703,6.20898438 Z M490.658594,8.39648438 C489.877344,8.39648438 489.389062,7.546875 489.389062,6.20898438 C489.389062,4.87109375 489.877344,4.04101562 490.658594,4.04101562 C491.449609,4.04101562 491.908594,4.84179688 491.908594,6.20898438 C491.908594,7.55664062 491.430078,8.39648438 490.658594,8.39648438 L490.658594,8.39648438 Z M490.502344,17 L500.785547,2.90820312 L498.812891,2.90820312 L488.510156,17 L490.502344,17 Z"></path>
    <path fill="#fff" class="ui-phone__text" d="M5.59175587,14.1835117 C8.67999736,14.1835117 11.1835117,11.6799974 11.1835117,8.59175587 C11.1835117,5.50351438 8.67999736,3 5.59175587,3 C2.50351438,3 0,5.50351438 0,8.59175587 C0,11.6799974 2.50351438,14.1835117 5.59175587,14.1835117 Z M19.01197,14.1835117 C22.1002115,14.1835117 24.6037258,11.6799974 24.6037258,8.59175587 C24.6037258,5.50351438 22.1002115,3 19.01197,3 C15.9237285,3 13.4202141,5.50351438 13.4202141,8.59175587 C13.4202141,11.6799974 15.9237285,14.1835117 19.01197,14.1835117 Z M32.4321841,14.1835117 C35.5204255,14.1835117 38.0239399,11.6799974 38.0239399,8.59175587 C38.0239399,5.50351438 35.5204255,3 32.4321841,3 C29.3439426,3 26.8404282,5.50351438 26.8404282,8.59175587 C26.8404282,11.6799974 29.3439426,14.1835117 32.4321841,14.1835117 Z M45.8523981,14.1835117 C48.9406396,14.1835117 51.444154,11.6799974 51.444154,8.59175587 C51.444154,5.50351438 48.9406396,3 45.8523981,3 C42.7641567,3 40.2606423,5.50351438 40.2606423,8.59175587 C40.2606423,11.6799974 42.7641567,14.1835117 45.8523981,14.1835117 Z M59.2726122,14.1835117 C62.3608537,14.1835117 64.8643681,11.6799974 64.8643681,8.59175587 C64.8643681,5.50351438 62.3608537,3 59.2726122,3 C56.1843707,3 53.6808564,5.50351438 53.6808564,8.59175587 C53.6808564,11.6799974 56.1843707,14.1835117 59.2726122,14.1835117 Z"></path>
    <g class="ui-phone__battery" transform="translate(507.000000, 0.000000)">
      <rect stroke="#fff" fill="transparent" x="0" y="0" width="45" height="19" rx="3"></rect>
      <rect fill="#fff" x="2" y="2" width="41" height="15" rx="2"></rect>
      <path fill="#fff" d="M46,6.00000578 C46.0016267,6.00000193 46.0032539,6 46.0048815,6 L46.9951185,6 C48.102384,6 49,6.88655484 49,8.00591905 L49,10.9940809 C49,12.1019194 48.1061002,13 46.9951185,13 L46.0048815,13 C46.0032539,13 46.0016267,12.9999981 46,12.9999943 L46,6.00000536 Z"></path>
    </g>
  </g>
</svg>