<?xml version="1.0" encoding="UTF-8"?>
<svg width="800px" height="600px" viewBox="0 0 800 600" version="1.1" xmlns="http://www.w3.org/2000/svg" xmlns:xlink="http://www.w3.org/1999/xlink">
    <!-- Generator: Sketch 45.2 (43514) - http://www.bohemiancoding.com/sketch -->
    <title>Artboard</title>
    <desc>Created with Sketch.</desc>
    <defs>
        <linearGradient x1="100%" y1="5.10784263%" x2="0%" y2="100%" id="linearGradient-1">
            <stop stop-color="#FFFFFF" offset="0%"></stop>
            <stop stop-color="#FFFFFF" stop-opacity="0.959800606" offset="4.01993937%"></stop>
            <stop stop-color="#FFFFFF" stop-opacity="0.954806048" offset="4.51939521%"></stop>
            <stop stop-color="#FFFFFF" stop-opacity="0.954806048" offset="4.51939521%"></stop>
            <stop stop-color="#FFFFFF" stop-opacity="0" offset="100%"></stop>
        </linearGradient>
    </defs>
    <g id="Page-1" stroke="none" stroke-width="1" fill="none" fill-rule="evenodd">
        <g id="Artboard">
            <path d="M201.076141,516.278955 C203.596896,517.83224 206.195243,519.534405 208.898822,521.049379 C210.036993,521.68757 211.389996,521.95429 212.661042,522.335459 C213.034936,522.447967 213.492241,522.284539 213.86371,522.399957 C221.624318,524.799475 228.628409,528.500106 233.904633,534.825755 C234.829912,535.934829 234.851734,537.835337 235.179074,539.393957 C235.509322,540.9647 235.793016,542.314308 237.962185,541.391454 C239.215288,540.858012 239.952892,541.542272 240.110985,542.855024 C240.168694,543.335606 240.334546,543.830252 240.271018,544.294347 C239.900518,547.000351 241.202601,548.264608 243.664192,549.248566 C248.331808,551.113672 248.575251,552.905552 244.410041,555.835602 C240.804944,558.371875 236.848746,560.429505 232.951227,562.519142 C231.790263,563.140844 230.213701,563.606878 228.98533,563.36004 C225.932103,562.747067 223.747416,563.907545 221.582128,565.806113 C220.514759,566.742061 219.113262,567.331757 217.800996,567.945215 C215.604185,568.971848 214.384544,570.116323 213.921904,572.993514 C213.50291,575.601559 210.840066,577.88469 208.995812,580.173155 C208.802803,580.412234 207.059903,579.968507 206.704437,579.413243 C205.034279,576.805682 202.778306,575.137465 200.044659,573.686503 C196.855162,571.994038 196.536067,568.528606 197.455042,565.546667 C198.793496,561.202996 198.094202,557.582866 196.205333,553.514645 C194.842632,550.580715 194.008523,547.474629 191.957682,544.787538 C190.217207,542.506832 190.832605,539.875024 193.62687,538.777589 C198.035038,537.046328 199.276503,532.531471 202.46115,529.78667 C202.857352,529.445268 202.610514,528.031162 202.28463,527.276584 C201.989782,526.593294 201.18574,526.12629 200.597014,525.572965 C197.177652,522.360676 197.19705,520.006743 201.076141,516.278955 Z M185.270116,511.000888 C183.814305,510.740472 182.869629,510.543098 181.916223,510.406828 C180.258674,510.170659 179.69177,509.246835 179.668978,507.583951 C179.640851,505.496254 179.313512,503.410982 179.076858,501.329104 C178.889183,499.680769 178.082231,499.242377 176.3951,499.62985 C175.423266,499.85341 174.115364,499.560502 173.237125,499.03482 C171.658137,498.089658 170.374483,496.657124 168.811013,495.678501 C166.521578,494.245482 166.687915,491.893004 167.279066,490.119553 C167.673812,488.933857 169.71544,487.960568 171.194528,487.592009 C172.168302,487.34905 173.579983,488.168611 174.557636,488.852386 C175.370892,489.421229 175.847595,490.478414 176.454749,491.33192 C178.577362,494.317255 179.223312,494.45304 182.30515,492.534589 C185.97232,490.251943 187.867493,490.37027 191.308677,493.037479 C194.470532,495.488402 197.278861,498.382566 201.445526,499.39756 C203.842619,499.981436 204.331446,502.989078 202.260722,504.276127 C199.793311,505.809045 196.95928,506.77312 194.239212,507.87104 C192.496798,508.574698 190.666122,509.058675 188.886852,509.673103 C187.547913,510.134773 186.226917,510.647847 185.270116,511.000888 Z M90.1762172,460.498889 C91.6262089,460.311215 92.5805847,460.098808 93.539325,460.08038 C96.1483402,460.029461 98.1118909,458.871407 99.8096905,456.936953 C101.025938,455.551459 102.418221,454.278473 103.896339,453.175704 C105.717801,451.816397 106.523783,452.314438 107.560114,454.241133 C108.681312,456.32592 110.063411,458.332631 111.652098,460.08232 C112.786874,461.331543 113.74125,462.214632 112.686005,463.995358 C112.420254,464.443449 112.831489,465.387156 113.107909,466.026801 C113.28346,466.433672 113.806717,466.679055 114.135997,467.032096 C116.526301,469.594556 116.523391,469.597466 118.243013,466.091784 C119.162958,468.13923 119.913656,469.823451 120.676962,471.501853 C121.208949,472.67203 121.809314,473.814566 122.277288,475.00899 C122.507153,475.597231 122.505213,476.276642 122.608022,476.914347 C122.040149,476.925986 121.471306,476.921137 120.904403,476.952658 C119.788539,477.014731 118.334668,476.676238 117.621796,477.250416 C115.607326,478.872564 114.2873,478.090344 112.885318,476.553062 C111.90233,475.475994 111.124475,473.850937 109.138132,474.965345 C109.023685,475.029358 108.118288,474.209313 108.068339,473.748613 C107.979109,472.923233 108.261348,472.057118 108.388404,471.20846 C107.204648,471.188092 106.020407,471.148327 104.837622,471.16724 C104.641703,471.170634 104.450634,471.430566 104.129599,471.664795 C104.474881,472.331113 104.821133,472.9984 105.284258,473.892157 C103.439034,474.659344 101.703894,475.444958 99.9134692,476.070055 C99.5507288,476.197111 98.7379575,475.852798 98.5352496,475.496362 C95.7734761,470.640102 93.0829898,465.743592 90.1762172,460.498889 Z M66.059121,453.289327 C66.0469973,453.368858 66.0605758,453.465848 66.0193553,453.525496 C63.2779496,457.533099 63.8991668,463.547412 58.51092,466.000759 C57.3392879,466.534201 56.4920854,466.937192 55.2331628,465.988636 C54.3937195,465.35675 53.0135601,465.148707 51.9093357,465.227269 C49.9268721,465.368388 48.4647567,464.865983 47.4279399,463.113384 C46.3833639,461.347692 44.8097107,460.432597 42.7448062,460.068887 C40.3564419,459.647953 40.4350033,458.676604 41.2841456,456.473004 C43.0149217,451.982395 46.3484478,449.37241 50.4554644,447.513607 C51.2881185,447.136804 52.455871,447.500999 53.4689254,447.523306 C54.2293224,447.54028 55.1041669,447.811365 55.7326583,447.531066 C59.9347246,445.658685 66.0339037,449.012579 66.059121,453.289327 Z M170.165955,478.885221 C169.341545,479.904094 168.897334,480.654308 168.271752,481.193569 C163.833032,485.017861 159.048544,487.119137 153.284948,484.021295 C152.650153,483.679892 151.944555,483.472335 151.278237,483.188641 C148.058189,481.816726 145.177118,480.26732 141.288328,482.351137 C138.937305,483.611515 135.516973,482.87585 132.208179,483.056735 C133.600462,480.086435 134.62758,477.690796 135.872439,475.41397 C136.117337,474.966364 137.251629,474.711766 137.892729,474.827669 C140.061412,475.221931 142.184025,475.862546 144.34107,476.332944 C146.227999,476.744664 148.125596,477.190816 150.041622,477.354243 C151.047887,477.440563 152.095858,476.904212 153.139464,476.74321 C153.772805,476.64525 154.655409,476.456121 155.044821,476.774246 C156.98073,478.356143 159.1756,478.332381 161.4694,478.225693 C163.47902,478.132098 165.49931,478.186412 167.51087,478.269338 C168.250899,478.29989 168.97929,478.599587 170.165955,478.885221 Z M142.876336,494.020855 C145.183714,491.653828 147.580807,490.644168 150.62094,491.978743 C151.421103,492.330329 152.335228,492.64409 153.187765,492.620328 C158.677366,492.466115 160.952737,496.48875 163.336252,500.347474 C163.618006,500.803324 163.757671,501.842566 163.499194,502.059822 C161.012871,504.152369 159.118667,507.133338 155.56546,507.693937 C152.607768,508.160456 151.499664,507.403939 151.734379,504.455461 C152.037955,500.641352 150.2582,498.411081 147.132231,496.761776 C145.714731,496.013987 144.422832,495.027605 142.876336,494.020855 Z M21.1993842,474.841781 C18.691723,468.737267 20.1586878,464.772825 25.2026222,461.920366 C26.5226481,461.174033 27.5066057,459.789024 28.5521515,458.614482 C29.4512434,457.603852 30.0855541,456.316318 31.1005483,455.466206 C31.589375,455.057395 32.7852544,455.154385 33.4617556,455.461356 C33.7633926,455.598111 33.8943283,457.071866 33.5529256,457.500559 C32.1218468,459.293893 31.2906476,461.025154 32.2750901,463.386846 C32.4336678,463.76753 31.1626216,465.345062 30.5433442,465.350397 C26.6172128,465.384828 24.9548143,468.023425 23.4354751,470.978207 C22.8307461,472.154204 22.1130245,473.272007 21.1993842,474.841781 Z M164.048251,519.156437 C162.839763,514.257502 163.629257,513.003914 169.489842,509.909951 C172.21379,508.471598 172.885926,508.704373 176.073968,512.16641 C175.69571,513.112542 175.0066,514.041215 175.020663,514.95922 C175.055095,517.216649 173.658932,517.555627 172.21573,516.910162 C168.959795,515.452896 166.447284,516.366051 164.048251,519.156437 Z" id="hawaii" fill-opacity="0.12" fill="#FFFFFF"></path>
            <path d="M679.854661,396.139629 C679.8241,395.816883 679.826337,395.362951 679.731674,394.930636 C679.18159,392.403824 679.646702,389.832289 679.407437,387.321876 C679.209168,385.234088 678.452616,383.132138 677.598419,381.188207 C675.243788,375.831217 671.519163,371.551289 666.807665,368.089035 C665.422018,367.071602 664.204825,365.82683 662.881789,364.720698 C662.149088,364.108747 661.423096,363.431204 660.579334,363.02274 C658.015254,361.78244 655.741868,360.172436 653.902289,358.007875 C652.609814,356.487316 650.933472,355.908162 649.054388,355.667406 C648.078696,355.542184 647.303509,355.756106 646.898026,356.754159 C646.549937,357.609847 645.923825,357.764139 645.116587,357.42574 C644.690979,357.24685 644.269098,357.05678 643.833056,356.910687 C642.791771,356.560362 642.362436,355.866421 642.57114,354.781904 C643.258374,351.207099 641.848129,348.374684 639.311627,346.03347 C638.722038,345.489348 637.781378,345.113681 636.976376,345.062995 C635.531845,344.970569 634.042591,345.042125 632.616694,345.294806 C628.611063,346.005146 625.07949,344.588939 621.459962,343.211491 C618.338343,342.022622 615.687799,340.534859 614.732977,337.057697 C614.650241,336.757312 614.356564,336.445747 614.077795,336.278038 C610.470939,331.878105 606.098585,329.970698 600.959989,330.553579 C598.538274,331.254974 596.113578,330.938191 593.685901,329.603229 C588.766444,327.690604 583.797047,327.619794 578.724789,328.605921 C576.18456,327.934341 573.958878,326.698514 572.045508,324.89844 C570.331897,324.325248 570.117975,323.943618 570.622592,322.279947 C571.180131,320.44335 571.473807,318.629859 570.859621,316.735868 C571.089195,315.131827 570.889436,313.561327 570.258851,312.021388 C569.5664,311.188808 569.625284,310.328648 569.851132,309.320905 C570.232763,307.614748 570.578615,305.872067 570.649426,304.133114 C570.726199,302.277882 569.714729,301.247778 567.890058,300.838568 C567.029153,300.644772 566.140669,300.539674 565.304361,300.272831 C558.683219,298.156719 567.252019,292.008143 561.395629,290.254282 C558.627316,289.425428 556.91296,287.568706 555.505697,285.239418 C554.5792,283.706187 553.278525,282.623161 551.567896,282.034317 C550.277656,281.58933 549.435386,280.720971 549.135001,279.350977 C548.729518,277.503199 547.546612,276.116807 546.254882,274.851165 C545.007875,273.630245 544.113428,272.275903 543.760121,270.543658 C543.488061,269.205715 542.713619,268.249402 541.479282,267.530864 C540.704095,267.080659 539.956487,266.295782 539.591254,265.484071 C538.375552,262.779115 536.509885,260.756175 533.944314,259.310898 C531.703725,258.046747 530.354601,256.160955 529.964026,253.566314 C529.73147,252.015195 529.287228,250.496126 528.973426,248.955442 C528.687204,247.548924 528.388309,246.140916 528.210165,244.719491 C528.093142,243.784794 528.778139,243.460557 529.601775,243.415835 C531.998147,243.288376 531.998147,243.292103 532.58401,241.020208 C532.622769,240.871134 532.646621,240.71386 532.715195,240.578948 C534.293148,234.528761 532.99471,230.899544 528.819134,229.689805 C528.3898,229.609305 527.907544,229.767323 527.455103,229.850805 C524.16503,230.46052 521.606912,229.219475 519.51018,226.754529 C518.216959,225.234715 516.927465,223.708192 515.567161,222.249499 C514.001879,220.572411 513.395146,218.802898 513.739508,216.395345 C514.191204,213.234967 513.281104,210.242297 510.945853,207.872013 C510.154268,207.069247 509.92842,206.124115 510.217624,205.118608 C508.895334,209.723518 512.95165,187.591925 514.294811,197.491214 C513.831934,200.152193 514.516932,202.54931 516.349802,204.684802 C518.606789,206.054796 520.749734,207.612624 522.941874,209.090697 C523.228097,209.283748 523.489723,209.558791 523.805015,209.648235 C527.631011,210.742442 518.712632,198.076331 518.062667,197.521774 C517.040762,196.649689 516.413904,195.692631 516.543599,194.250335 C516.662858,192.944443 516.051653,191.902413 514.949993,191.119026 C513.494281,190.085195 513.528568,188.972354 515.008877,187.942995 C515.983824,187.264706 517.010947,186.658719 517.97844,185.968504 C518.511381,184.528445 518.069376,183.475979 516.654659,182.811107 C515.097577,181.550683 513.25278,181.529812 511.662156,182.710482 C510.600746,183.49834 510.225078,184.488195 510.467324,185.831356 C510.34881,185.173937 513.0724,197.389098 508.509976,193.825473 C507.906225,193.353652 507.403844,192.733503 506.759097,192.336219 C506.131494,191.949371 505.400283,191.6065 504.680254,191.519291 C503.634497,191.391833 502.874962,190.981878 502.309225,190.112774 C501.059235,188.191204 499.229346,186.926307 497.322684,185.748619 C496.130834,185.855953 495.356392,186.496973 494.999359,187.672425 L494.569279,187.517388 C494.612511,187.116377 494.622201,186.708659 494.702701,186.315848 C495.153651,184.109546 495.729824,181.922623 496.050334,179.699178 C496.322395,177.812641 495.539008,176.333822 493.926023,175.162842 C491.912772,172.111288 489.546961,169.345957 486.827097,166.866849 C485.922961,166.480001 485.12094,165.688416 484.467249,164.916955 C480.779147,159.935633 476.707178,155.300162 472.252088,151.011291 C471.108687,149.835838 470.940233,148.563488 471.618522,147.007896 C471.986736,142.527463 471.047567,138.326545 468.80176,134.405887 C468.000485,132.315118 467.982596,130.181117 468.603491,128.068732 C469.892985,123.683707 469.61198,119.526021 467.712771,115.284853 C466.457564,112.482998 465.608585,109.517162 463.527506,107.153587 C463.122023,106.692947 462.672564,106.268085 462.295406,105.785829 C460.445392,103.067456 458.292757,100.6122 455.839737,98.4193146 C454.609872,97.2669691 453.269693,96.2309017 452.030139,95.088246 C450.283732,93.4774965 449.698614,84.6552705 450.142111,83.3173273 C453.255531,73.9338359 455.060823,74.8916393 458.156353,64.2156724 C458.508915,62.9984795 458.393382,61.8446432 457.826899,60.7504367 C456.94736,59.0487519 457.056929,57.4022246 457.748635,55.649109 C459.18124,52.0131831 460.07196,48.2244559 460.013076,44.306034 C459.985497,42.4858349 459.582996,40.6544553 459.193912,38.8625803 C459.006078,35.4569745 457.708385,32.6036895 455.301578,30.3034707 C454.298307,27.7274642 454.42502,25.1298418 455.682463,22.5106037 C455.663083,20.2573434 455.929181,20.0039168 458.204057,20.0039168 C501.537764,20.0009353 544.870726,19.9994446 588.204433,20.0001899 C590.667888,20.0001899 590.971255,20.3244269 590.971255,22.9451557 C590.973491,62.9753729 590.972746,103.006336 590.974982,143.036553 C590.974982,143.766272 590.838579,144.546677 591.051755,145.21304 C591.355122,146.161153 591.710664,147.261323 592.410569,147.888181 C599.695837,154.425841 607.062351,160.873311 614.390106,167.363267 C620.827886,173.06462 627.238833,178.795787 633.672141,184.501612 C640.162843,190.258121 646.679632,195.985562 653.159153,201.755489 C655.480242,203.823151 657.746174,205.954916 659.999435,208.097861 C665.424254,213.257328 670.813295,218.453318 676.240351,223.610549 C681.723309,228.81921 687.243536,233.989112 692.729476,239.193301 C697.743595,243.949521 702.744297,248.719159 707.730838,253.503703 C712.274627,257.863385 716.792328,262.252137 721.320465,266.628963 C726.013329,271.166044 730.69203,275.717287 735.400547,280.23797 C740.304351,284.94276 745.213373,289.642332 750.161154,294.299418 C754.130261,298.035223 758.153035,301.71289 762.170592,305.398011 C763.703077,306.803783 764.382856,308.536773 764.584852,310.585056 C764.673552,311.479503 765.213947,312.336681 765.585887,313.19535 C766.452755,315.195929 768.1045,316.723197 769.124915,318.541905 C770.579136,321.133564 772.131746,323.822867 772.482817,326.937778 C772.544683,327.493826 773.053027,328.110249 773.524102,328.488898 C775.230259,329.860383 777.025115,331.120807 778.753634,332.463968 C780.75943,334.024778 780.880181,334.939349 779.020477,336.615691 C777.204005,338.251784 775.243676,339.738801 773.26024,341.172897 C772.213737,341.92945 771.50787,342.774702 771.081517,344.014257 C769.379087,348.959056 767.772064,347.155255 768.335566,353.509554 C768.509983,355.478827 768.626261,357.413814 767.815296,359.290661 C767.652059,359.668565 767.676656,360.123242 767.557397,360.524252 C767.168313,361.83089 766.824696,363.159143 766.320079,364.421058 C765.967518,365.303579 765.337678,366.069822 764.907599,366.927 C764.434287,367.872132 763.799975,368.573527 762.734093,368.820245 C761.885859,369.015533 761.715915,369.582016 761.592928,370.418323 C761.33652,372.161749 761.781507,373.665165 762.359916,375.285604 C762.781797,376.466274 762.564894,377.93093 762.421782,379.246512 C762.103508,382.181788 762.712477,383.051638 765.663406,383.502588 C767.000604,383.706075 768.502529,383.791047 768.917701,385.393598 C769.433499,387.383741 770.416645,389.437987 768.631478,391.382664 C768.13357,391.925295 767.810823,392.673648 767.549943,393.379516 C767.07216,394.671991 766.578723,395.167664 765.273576,394.974613 C763.606179,394.726404 762.133323,395.122196 760.569532,395.658864 C759.148852,396.147083 757.559719,396.188824 756.036178,396.325227 C748.539969,396.993826 741.040779,397.615466 733.54457,398.279593 C725.513184,398.990678 717.482543,399.72487 709.453393,400.458316 C698.81395,407.080203 690.284655,407.130143 683.86849,400.608881 C683.756685,398.787192 682.593904,397.60354 681.460193,396.417653 C681.205275,396.151555 680.570218,396.248454 679.854661,396.139629" id="Fill-1" fill-opacity="0.12" fill="#FFFFFF"></path>
            <path d="M136.927819,-171.985051 C130.506291,-177.323065 123.79456,-182.17601 117.39268,-187.367794 C117.767916,-188.173021 118.297111,-187.93403 118.720339,-187.811313 C120.983994,-187.154892 123.275671,-186.568042 125.485537,-185.75895 C131.568225,-183.531368 137.167455,-180.367147 142.455866,-176.650217 C145.221339,-174.706398 147.9356,-172.689142 150.668542,-170.698942 C151.004161,-170.454475 151.313368,-170.173612 151.706963,-169.850877 C151.465717,-169.644094 151.331405,-169.485303 151.161019,-169.389642 C144.097242,-165.425669 137.070183,-161.389869 129.480754,-158.465605 C123.860588,-156.30051 118.133811,-154.527721 112.162567,-153.628765 C111.528692,-153.533426 110.883543,-153.50476 110.241938,-153.472873 C110.107948,-153.466431 109.967839,-153.58335 109.757191,-153.675468 C109.854463,-154.414667 110.499611,-154.54447 110.965354,-154.80794 C115.307785,-157.263884 119.653436,-159.714352 124.010361,-162.145172 C127.898643,-164.314777 131.80303,-166.455716 135.697754,-168.614047 C136.154157,-168.867211 136.594455,-169.149362 137.297579,-169.571302 C136.665637,-169.702393 136.326797,-169.81899 135.982804,-169.837027 C127.302453,-170.286988 118.625644,-170.876736 109.938851,-171.127645 C100.444897,-171.402067 90.9399927,-171.538955 81.4437847,-171.413018 C69.8536633,-171.25938 58.2757813,-170.664156 46.7188353,-169.667607 C35.9162263,-168.73612 25.1641856,-167.441958 14.4594922,-165.72779 C-20.2551502,-160.169144 -53.5516262,-150.143097 -84.9580723,-134.169961 C-98.3306451,-127.368688 -111.100908,-119.57151 -123.113935,-110.58324 C-131.670281,-104.181682 -139.789872,-97.2473852 -147.504595,-89.8392929 C-156.963763,-80.7566497 -165.822875,-71.1167891 -174.199173,-61.0417836 C-188.807931,-43.4704329 -201.90737,-24.8236205 -213.553536,-5.1590006 C-225.652883,15.2715516 -236.281241,36.4519316 -245.883094,58.1573199 C-248.899154,64.9759857 -251.948712,71.7798353 -254.986996,78.5885163 C-255.201186,79.0684318 -255.451129,79.5325649 -255.711056,80.0578953 C-256.303059,79.8739813 -256.801978,79.7190556 -257.448093,79.5183929 C-257.20588,78.0612534 -256.996521,76.6463077 -256.732729,75.2413469 C-250.494793,42.0221728 -239.764332,10.3326087 -224.330699,-19.7493994 C-217.066582,-33.9081963 -208.800117,-47.4588854 -199.32098,-60.2452526 C-193.982322,-67.4468846 -188.234287,-74.320628 -182.160295,-80.9267137 C-166.186838,-98.2996564 -148.052472,-113.062696 -128.289614,-125.893834 C-98.0568678,-145.523024 -65.3198639,-159.206414 -30.2341726,-167.354994 C-17.9979367,-170.197124 -5.65895382,-172.492667 6.80983175,-173.975896 C15.3835712,-174.995636 23.99725,-175.716475 32.608352,-176.37193 C45.1943787,-177.330151 57.8103599,-177.482822 70.4269852,-177.244797 C81.9121049,-177.02803 93.3885282,-176.534586 104.827911,-175.443664 C113.585887,-174.608804 122.333555,-173.662501 131.083478,-172.743576 C133.036638,-172.538404 134.979813,-172.24047 136.927819,-171.985051" id="Fill-1" fill="#16ACE2" transform="translate(-52.870565, -53.942041) rotate(-2.000000) translate(52.870565, 53.942041) "></path>
            <path d="M427.130801,197.068211 C426.080812,197.068211 425.025487,197.134919 423.98217,197.052534 C422.486904,196.934461 421.586009,195.967858 421.569332,194.615681 C421.552988,193.284184 422.473562,192.135801 423.899118,192.067758 C425.995092,191.968029 428.105742,191.976034 430.199715,192.10745 C431.766025,192.205844 432.668922,193.336216 432.604215,194.747096 C432.541509,196.10561 431.483849,197.110237 429.951894,197.190954 C429.013975,197.240652 428.071387,197.200293 427.131134,197.200293 C427.130801,197.156266 427.130801,197.112238 427.130801,197.068211 Z M398.712374,197.94409 C397.941894,198.016135 397.172747,198.126871 396.400599,198.151887 C394.87965,198.201584 393.741607,197.268669 393.595182,195.90782 C393.445756,194.514618 394.306293,193.309199 395.835913,193.127419 C397.917879,192.879598 400.021191,192.737843 402.117832,192.708158 C403.555729,192.687812 404.54101,193.76515 404.600714,195.097315 C404.661752,196.44649 403.805551,197.458454 402.352311,197.705608 C401.753938,197.807338 401.144892,197.86304 400.538513,197.894726 C399.932135,197.926413 399.322755,197.901731 398.715043,197.901731 C398.714042,197.915739 398.713375,197.930082 398.712374,197.94409 Z M124.411708,443.785571 C122.816046,443.805584 121.508898,442.35101 121.919154,440.802377 C122.471498,438.720078 123.148587,436.665797 123.884046,434.6402 C124.367347,433.30937 125.707183,432.751688 127.005993,433.151605 C128.191066,433.516832 129.026253,434.73726 128.681372,436.024397 C128.110015,438.157727 127.394902,440.25637 126.644101,442.335 C126.30122,443.283925 125.373975,443.773897 124.411708,443.785571 Z M507.93964,200.339451 C509.908868,200.739034 512.152601,201.110265 514.347303,201.672283 C515.603087,201.99415 516.221472,203.365005 515.927956,204.600109 C515.655786,205.747825 514.544426,206.710092 513.356685,206.530313 C511.115621,206.191435 508.881227,205.759499 506.681522,205.215826 C505.496116,204.92331 504.843709,203.59248 505.061511,202.452436 C505.299993,201.204324 506.390006,200.322107 507.93964,200.339451 Z M252.715707,247.958688 C251.48694,247.928002 250.747812,247.489729 250.260842,246.672552 C249.768201,245.845703 249.752191,244.977828 250.270848,244.154982 C250.472641,243.834115 250.742809,243.525923 251.049667,243.30712 C252.67268,242.149731 254.288021,240.975999 255.9644,239.899661 C257.23686,239.082818 258.70711,239.421696 259.470253,240.567411 C260.231728,241.711458 259.978904,243.183709 258.762478,244.085605 C257.205507,245.239325 255.606176,246.337677 253.994504,247.414015 C253.551561,247.709866 252.999217,247.841615 252.715707,247.958688 Z M293.638366,218.728855 C294.69169,218.701505 295.767361,219.395271 296.142261,220.261144 C296.572196,221.254097 296.33805,222.426495 295.507865,223.136938 C295.177993,223.419448 294.773074,223.626243 294.378494,223.81903 C292.739138,224.619196 291.116126,225.462055 289.437412,226.171164 C288.029868,226.765868 286.721051,226.18117 286.120343,224.858345 C285.557325,223.617905 285.947569,222.330769 287.27473,221.630332 C289.081857,220.67707 290.95169,219.841216 292.802845,218.972007 C293.098029,218.833587 293.435573,218.785891 293.638366,218.728855 Z M174.755278,333.903897 C174.655882,334.166394 174.528469,334.713069 174.259635,335.177358 C173.316714,336.804707 172.352112,338.421048 171.343483,340.008372 C170.508295,341.322525 169.130769,341.692089 167.90267,341.013332 C166.63121,340.310894 166.20828,338.843979 166.999106,337.427095 C167.969712,335.68801 169.006358,333.981946 170.090368,332.311237 C170.792472,331.228562 171.894827,330.893353 172.975834,331.258914 C174.041833,331.619806 174.72726,332.532709 174.755278,333.903897 Z M354.921692,203.930224 C353.280669,203.915548 352.235684,203.030997 352.013212,201.758536 C351.810752,200.601481 352.470497,199.33836 353.681919,199.035171 C355.82559,198.498503 357.999946,198.061897 360.18164,197.70801 C361.428418,197.505217 362.621829,198.490164 362.872652,199.688245 C363.121474,200.874652 362.557455,202.209818 361.391395,202.520011 C359.151664,203.11705 356.859568,203.518634 354.921692,203.930224 Z M220.736125,275.010695 C218.458038,275.022369 217.223268,273.055476 218.073798,271.374761 C218.245238,271.035882 218.49306,270.718351 218.765229,270.451184 C220.068709,269.169718 221.366519,267.880581 222.716694,266.650147 C223.979815,265.498428 225.374018,265.486421 226.431011,266.525069 C227.448312,267.524025 227.451981,269.077327 226.322944,270.234383 C224.969433,271.620914 223.561555,272.957748 222.11732,274.24922 C221.650362,274.66648 220.99462,274.872943 220.736125,275.010695 Z M499.14412,203.974519 C497.328988,203.663992 495.246022,203.36714 493.19174,202.935204 C491.830225,202.648692 491.065748,201.367559 491.286552,200.05374 C491.493014,198.828642 492.586696,197.842694 493.897514,197.99779 C496.090549,198.257286 498.277913,198.622847 500.43726,199.08647 C501.701382,199.357639 502.429503,200.712484 502.193689,201.912566 C501.93286,203.237726 500.863859,204.031888 499.14412,203.974519 Z M128.689743,430.476836 C127.146447,430.433476 125.914679,429.075629 126.32727,427.549343 C126.917305,425.368316 127.685117,423.224646 128.532645,421.128005 C129.023952,419.91258 130.456512,419.475307 131.630911,419.92392 C132.814316,420.376536 133.541103,421.603635 133.158864,422.872093 C132.53781,424.934379 131.823031,426.971983 131.049549,428.982571 C130.638292,430.051904 129.759744,430.506855 128.689743,430.476836 Z M457.305523,198.561976 C455.539421,198.426891 453.767316,198.346842 452.009552,198.139379 C450.520957,197.96427 449.679766,197.097729 449.567362,195.852619 C449.421605,194.246617 450.623021,192.955812 452.317745,193.046202 C454.250617,193.148933 456.180487,193.342053 458.104688,193.558521 C459.746712,193.743637 460.719319,194.870673 460.577897,196.300565 C460.443813,197.651741 459.322781,198.579987 457.802166,198.598665 C457.636062,198.600667 457.469958,198.598999 457.304188,198.598999 C457.304522,198.586658 457.304855,198.574317 457.305523,198.561976 Z M480.480478,195.966624 C482.276599,196.213778 484.203801,196.422908 486.108989,196.758784 C487.729333,197.044296 488.554181,198.231703 488.330041,199.720298 C488.114907,201.148522 486.924164,201.959028 485.247785,201.754234 C483.435989,201.532429 481.626193,201.287276 479.823735,200.999429 C478.196387,200.739934 477.198431,199.560532 477.368537,198.20035 C477.547649,196.767123 478.722048,195.887574 480.480478,195.966624 Z M154.696532,370.712991 C154.633159,370.930793 154.57012,371.32037 154.410354,371.664918 C153.571164,373.46971 152.74765,375.283842 151.83875,377.053279 C151.196349,378.303059 150.003271,378.756675 148.767834,378.372102 C147.415324,377.950839 146.652181,376.427222 147.253556,375.008337 C148.0724,373.076132 148.985637,371.178615 149.961245,369.319455 C150.565956,368.167403 151.798725,367.770489 152.949109,368.151727 C153.945064,368.482266 154.695865,369.511908 154.696532,370.712991 Z M335.669117,206.708991 C335.59507,207.805008 335.090089,208.648201 334.039433,208.991415 C331.991156,209.660832 329.931871,210.309904 327.845236,210.84357 C326.6108,211.1591 325.378698,210.317242 324.986453,209.119494 C324.597544,207.93142 325.118536,206.524876 326.355974,206.09294 C328.492307,205.347141 330.66733,204.67172 332.873706,204.180747 C334.40266,203.840535 335.709475,205.165028 335.669117,206.708991 Z M471.171605,199.95868 C469.561267,199.77123 467.632397,199.589116 465.717203,199.310276 C464.217267,199.091473 463.36607,197.926413 463.531506,196.496187 C463.685602,195.164023 464.729253,194.212096 466.188497,194.31516 C468.283137,194.463252 470.375108,194.708072 472.452738,195.017932 C473.803914,195.219057 474.703141,196.540882 474.516358,197.79433 C474.303892,199.224222 473.170519,200.038397 471.171605,199.95868 Z M281.108417,224.999033 C282.382879,224.992029 283.378166,225.687462 283.72138,226.68842 C284.068263,227.69905 283.767409,228.856106 282.836828,229.49884 C281.975958,230.093211 281.021696,230.554165 280.103123,231.063482 C279.135853,231.599483 278.184927,232.173842 277.184303,232.639799 C275.898167,233.239173 274.553662,232.798231 273.878907,231.648848 C273.192479,230.479785 273.442969,229.050894 274.670735,228.304428 C276.51155,227.18573 278.437751,226.206453 280.340938,225.19282 C280.620779,225.043727 280.973333,225.031386 281.108417,224.999033 Z M184.757617,317.747653 C182.458182,317.80769 181.072318,315.881155 182.046592,314.236129 C183.224327,312.247889 184.637875,310.38406 186.087446,308.5776 C186.866599,307.607328 188.248461,307.639348 189.251086,308.368803 C190.293403,309.126942 190.740682,310.353374 190.055588,311.428378 C188.809811,313.38193 187.420278,315.249094 186.000058,317.081571 C185.673855,317.502167 184.978421,317.635917 184.757617,317.747653 Z M207.776842,288.884583 C207.637088,289.158754 207.432294,289.806157 207.034712,290.298464 C205.853642,291.762711 204.628878,293.194938 203.36042,294.584805 C202.21137,295.84359 200.8155,295.948656 199.68913,294.963374 C198.612459,294.021787 198.464033,292.640926 199.44798,291.402486 C200.687086,289.843514 202.006242,288.346914 203.326399,286.854316 C204.101883,285.977769 205.099505,285.75363 206.196189,286.17089 C207.148116,286.533449 207.774174,287.497384 207.776842,288.884583 Z M156.144402,365.885113 C153.994728,365.928473 152.62454,364.205732 153.314303,362.608402 C154.209862,360.532107 155.276527,358.518851 156.4089,356.558962 C157.044297,355.459276 158.385133,355.219793 159.489489,355.74312 C160.638872,356.287126 161.312626,357.598277 160.780627,358.793022 C159.860053,360.860312 158.826408,362.887576 157.681361,364.838126 C157.344818,365.412485 156.473274,365.672647 156.144402,365.885113 Z M167.663954,345.931233 C167.570563,346.189394 167.456825,346.681034 167.226348,347.109635 C166.337127,348.764667 165.410549,350.399687 164.497646,352.042045 C163.892935,353.128722 162.979365,353.623698 161.74126,353.427909 C160.10624,353.168747 159.161651,351.450342 159.931464,349.871357 C160.850704,347.986848 161.903027,346.161376 162.993041,344.368258 C163.64945,343.288585 164.758475,342.976723 165.881509,343.334947 C166.900812,343.659816 167.63527,344.636759 167.663954,345.931233 Z M176.844147,329.408894 C174.627431,329.365533 173.332623,327.464014 174.215508,325.855677 C175.302185,323.875442 176.605332,322.002607 177.9435,320.177469 C178.683961,319.168172 180.071827,319.081452 181.098468,319.724186 C182.180142,320.401275 182.703469,321.773131 182.047059,322.897832 C180.906014,324.851718 179.64823,326.745566 178.313397,328.572038 C177.944834,329.076686 177.129659,329.255131 176.844147,329.408894 Z M114.012322,467.452033 C114.525642,465.659582 115.072316,463.454873 115.802772,461.312537 C116.225369,460.074431 117.637583,459.546769 118.825657,459.934344 C120.027407,460.326255 120.855257,461.548351 120.555403,462.789458 C120.050088,464.885432 119.478731,466.970733 118.80798,469.019011 C118.380046,470.326159 117.112255,470.912859 115.896497,470.589657 C114.593017,470.243441 113.89725,469.249488 114.012322,467.452033 Z M248.524592,250.584325 C248.329471,250.910529 248.074311,251.695685 247.540312,252.160642 C246.038708,253.467457 244.450718,254.680547 242.842381,255.856281 C241.620953,256.749171 240.134025,256.531702 239.275823,255.457365 C238.419622,254.385363 238.546368,252.891098 239.71443,251.910486 C241.282075,250.593998 242.908089,249.344219 244.551781,248.12279 C245.36829,247.515745 246.313546,247.479389 247.21711,247.985705 C248.051297,248.452662 248.499577,249.182785 248.524592,250.584325 Z M309.185831,215.997018 C309.138801,216.813527 308.66684,217.595682 307.718582,218.003603 C305.788045,218.833454 303.857841,219.669642 301.89028,220.402766 C300.661513,220.860385 299.397725,220.236996 298.845047,219.082276 C298.289367,217.921218 298.595892,216.498664 299.79564,215.919303 C301.832244,214.935356 303.921213,214.016449 306.070221,213.324684 C307.7466,212.785348 309.233194,214.099167 309.185831,215.997018 Z M319.195308,208.316093 C320.921384,208.304419 321.927011,209.065227 322.213857,210.166915 C322.513044,211.316965 322.127136,212.558406 321.050131,212.994345 C318.904126,213.86322 316.711758,214.639371 314.491373,215.293779 C313.354998,215.628655 312.285331,214.896198 311.820374,213.818859 C311.364089,212.761533 311.584894,211.362327 312.622207,210.892033 C314.923977,209.848382 317.329811,209.032874 319.195308,208.316093 Z M217.202655,278.600835 C217.070239,278.853659 216.865778,279.505065 216.455188,279.976693 C215.221419,281.393577 213.932281,282.765432 212.616127,284.107269 C211.470413,285.275331 209.969143,285.374059 208.911817,284.436141 C207.79979,283.449526 207.77444,281.887218 208.928494,280.609754 C210.225636,279.174192 211.564471,277.774986 212.918649,276.393458 C213.690464,275.6063 214.653731,275.450203 215.673367,275.844782 C216.619624,276.211678 217.211327,277.161603 217.202655,278.600835 Z M198.791771,299.580054 C198.678367,299.83488 198.525271,300.441258 198.180723,300.906215 C197.061358,302.415823 195.900634,303.897414 194.700552,305.343983 C193.630885,306.633787 192.197657,306.851256 191.060281,305.987384 C189.860533,305.076149 189.716443,303.580216 190.772102,302.175673 C191.934827,300.629375 193.121901,299.098087 194.370013,297.620498 C195.164175,296.680912 196.200821,296.49046 197.214453,296.909055 C198.180389,297.30797 198.776761,298.188853 198.791771,299.580054 Z M264.245999,240.070934 C263.107956,240.073936 262.321131,239.644668 261.82649,238.736102 C261.32451,237.814193 261.282484,236.675149 262.059635,236.12514 C264.20464,234.606526 266.452041,233.201316 268.784496,231.994563 C269.74176,231.499588 270.905486,232.282076 271.402463,233.236671 C271.935795,234.260643 271.817055,235.573129 270.847116,236.24288 C268.941261,237.558701 266.929339,238.721426 264.947103,239.924176 C264.725965,240.057926 264.412769,240.038914 264.245999,240.070934 Z M141.354877,388.381545 C141.407243,388.210772 141.487293,387.830201 141.637386,387.479316 C142.3545,385.801603 143.057606,384.116885 143.829087,382.463854 C144.536528,380.947241 145.872695,380.373217 147.209529,380.920892 C148.604065,381.492248 149.126391,382.911467 148.455973,384.529809 C147.715511,386.317258 146.952368,388.098035 146.108175,389.837787 C145.52281,391.043539 144.375428,391.508496 143.212035,391.190631 C141.994276,390.857757 141.280831,389.865471 141.354877,388.381545 Z M135.536481,406.668685 C137.24588,406.655677 138.505333,408.12893 137.992346,409.791633 C137.358284,411.846582 136.561454,413.858504 135.71626,415.838072 C135.172587,417.110532 133.899126,417.574822 132.685369,417.157561 C131.429919,416.725959 130.633756,415.604926 131.034673,414.303114 C131.715431,412.093403 132.576635,409.933722 133.471526,407.799057 C133.80907,406.993221 134.624912,406.640668 135.536481,406.668685 Z M440.988078,192.418177 C442.037399,192.471543 443.089388,192.496225 444.136041,192.585948 C445.659658,192.716363 446.638602,193.767685 446.602246,195.170894 C446.566224,196.556425 445.511899,197.626426 443.997288,197.609081 C441.953013,197.586067 439.905736,197.478 437.866797,197.316566 C436.436238,197.203162 435.526337,196.115817 435.563361,194.765975 C435.599717,193.444817 436.607012,192.4015 438.004883,192.326453 C438.996836,192.272753 439.994458,192.31578 440.989412,192.31578 C440.988745,192.350134 440.988411,192.383822 440.988078,192.418177 Z M124.508769,449.012165 C124.488756,449.157589 124.485754,449.440432 124.40904,449.702262 C123.849358,451.611119 123.315691,453.528648 122.690968,455.415826 C122.301726,456.591893 121.442523,457.15391 120.332497,457.166251 C119.202793,457.178592 118.262539,456.564542 117.916657,455.497877 C117.785242,455.09229 117.691183,454.595981 117.801919,454.203736 C118.40196,452.078077 118.992995,449.943746 119.746465,447.870119 C120.219427,446.567973 121.678003,446.072331 122.925448,446.556299 C123.868369,446.921861 124.480084,447.822089 124.508769,449.012165 Z M237.57603,259.388017 C237.418932,259.672528 237.205132,260.403984 236.727834,260.861269 C235.292939,262.23646 233.784998,263.53994 232.24904,264.803061 C231.095988,265.751319 229.565033,265.617236 228.661469,264.604271 C227.765243,263.598977 227.810271,262.037336 228.895615,261.030041 C230.392882,259.639507 231.951188,258.311679 233.524836,257.007199 C234.367695,256.309096 235.351309,256.24539 236.315243,256.788729 C237.148763,257.259022 237.580366,257.99815 237.57603,259.388017 Z M341.469301,207.03863 C339.602804,207.027623 338.690234,206.309508 338.416397,205.065733 C338.152232,203.865651 338.679561,202.631548 339.904659,202.26165 C342.067675,201.608243 344.272717,201.062902 346.492435,200.63697 C347.725204,200.400156 348.816217,201.278704 349.138418,202.424085 C349.463955,203.580473 348.982655,204.957332 347.824265,205.329897 C345.570526,206.055016 343.249745,206.571005 341.469301,207.03863 Z M387.623724,193.808044 C389.417176,193.76435 390.484509,194.63556 390.611921,196.057447 C390.741002,197.496011 389.910817,198.628717 388.37019,198.846853 C386.345594,199.133365 384.304987,199.33816 382.264048,199.470242 C380.878183,199.559965 379.784835,198.536994 379.631405,197.214168 C379.488983,195.98807 380.264133,194.851028 381.594964,194.522823 C382.392128,194.326367 383.23432,194.30969 384.056499,194.215298 C385.319954,194.06954 386.584076,193.926451 387.623724,193.808044 Z M368.806653,201.359621 C366.971175,201.369961 365.978222,200.561456 365.817455,199.197606 C365.655021,197.816744 366.39615,196.646348 367.809031,196.390188 C369.871317,196.015954 371.95395,195.716768 374.040251,195.52298 C375.520508,195.385561 376.496784,196.267778 376.71025,197.658312 C376.911042,198.96346 376.143897,200.153869 374.699663,200.437712 C372.64338,200.841965 370.557079,201.092788 368.806653,201.359621 Z M143.275375,396.241615 C143.206999,396.513117 143.14496,396.957395 142.984527,397.362981 C142.314109,399.057371 141.617341,400.741755 140.923908,402.42714 C140.569687,403.288677 140.011005,403.930411 139.049072,404.133537 C137.157559,404.533454 135.510198,402.987823 136.085557,401.104648 C136.743634,398.950638 137.665542,396.865337 138.615802,394.81706 C139.116114,393.73872 140.315529,393.411516 141.480922,393.735385 C142.49222,394.016894 143.239686,394.993836 143.275375,396.241615 Z M413.229896,192.180395 C414.169816,192.180395 415.111737,192.147708 416.049655,192.187733 C417.526243,192.251106 418.515193,193.169345 418.601247,194.494172 C418.692971,195.893044 417.753718,197.087122 416.246778,197.187518 C414.151805,197.327272 412.044824,197.350287 409.94418,197.319601 C408.590669,197.299922 407.654752,196.300965 407.569366,195.019833 C407.48031,193.681331 408.372533,192.490589 409.749726,192.350501 C410.898776,192.233428 412.069172,192.326153 413.229896,192.326153 L413.229896,192.180395 Z" id="Combined-Shape" fill="url(#linearGradient-1)"></path>
        </g>
        <path d="" id="Path-3" stroke="#979797"></path>
    </g>
</svg>