<svg class="graphic graphic--prototyping" xmlns="http://www.w3.org/2000/svg" viewBox="0 0 88 71" xmlns:xlink="http://www.w3.org/1999/xlink">
  <g class="graphic--prototyping__boxes" transform="translate(1)" fill-opacity=".1" stroke-width="1.5">
    <rect width="86" height="23" y="7" rx="2"/>
    <rect class="graphic--prototyping__box graphic--prototyping__box--01" width="52" height="26.57" y="35" rx="2"/>
    <rect class="graphic--prototyping__box graphic--prototyping__box--02" width="29" height="26.57" x="57" y="35" rx="2"/>
  </g>
  <g class="graphic--prototyping__hand" transform="translate(10,15)">
    <path fill="#FFF" fill-opacity=".6" d="M30.02 33.8c-1.35-2.68-3.5-2.52-4.47-2.28-.3.07-.63 0-.87-.2-1-.82-2-.82-2.8-.58-.55.17-1 .47-1.25.65h-.1c-.1.03-.24 0-.33-.08-1.06-.97-2.14-.98-2.98-.72-.5.16-.9.4-1.16.58-.02.02-.1.04-.12.05-.16.05-.38-.03-.43-.2l-1.8-6.1c-.43-1.4-1.7-1.78-2.75-1.45-1.04.34-1.9 1.36-1.45 2.75L12.7 37c.2.63-.17 1.17-.7 1.33-.3.1-.66.04-.97-.2l-1.5-1.26c-.66-.6-1.4-.7-2.04-.5-1.4.44-2.4 2.43-.85 3.77l12.6 12.7c.08.1.2.14.32.1l11.2-3.42c.15-.05.24-.22.2-.38l-1.1-4.62c-.02-.05-.02-.1 0-.17 1.5-5.02 1.47-7.95.18-10.54"/>
    <path fill="#000" d="M29.84 44.5l1.1 4.63c.04.16-.05.34-.2.4l-11.2 3.4c-.1.04-.24 0-.32-.08l-12.6-12.7c-1.5-1.35-.56-3.34.9-3.78.64-.2 1.38-.1 2.05.5l1.5 1.24c.3.3.64.37.96.27.52-.16.9-.7.7-1.33L9.43 26.3c-.4-1.4.42-2.43 1.48-2.75 1.1-.3 2.37.08 2.8 1.47l1.87 6.1c.05.18.27.26.43.2l.1-.04c.26-.18.67-.42 1.16-.57.83-.25 1.92-.25 3 .7.07.1.2.1.3.1.05 0 .08-.03.1-.05.26-.2.7-.5 1.27-.66.78-.25 1.8-.26 2.8.57.23.2.56.27.86.2.95-.24 3.1-.4 4.45 2.3 1.3 2.57 1.32 5.5-.18 10.53 0 .04-.02.1 0 .15m1.6-11.4c-1.76-3.53-4.74-3.4-5.98-3.2-1.2-.86-2.64-1.1-4.05-.67-.34.1-.65.24-.92.38-1.1-.7-2.45-.85-3.76-.45l-.12.04-.34-1.14-.6-1.93-.47-1.6c-.12-.4-.25-.75-.46-1.06-.9-1.34-2.54-1.96-4.23-1.44-1.66.5-2.7 1.92-2.73 3.5 0 .4.04.83.16 1.24l.5 1.57.6 1.93 1.68 5.53-.1-.1c-1.02-.9-2.3-1.2-3.54-.83-1.33.4-2.4 1.56-2.7 2.9-.3 1.33.15 2.6 1.18 3.55L18.1 53.97c.5.5 1.24.7 1.93.5l11.2-3.43c.96-.3 1.53-1.3 1.3-2.28l-1.03-4.3c1.48-5.08 1.47-8.4-.02-11.37"/>
  </g>
</svg>