<svg xmlns="http://www.w3.org/2000/svg" width="175.7" height="23.8" viewBox="0 0 175.7 23.8"><g fill="#1E1E20"><path d="M68.8 4h4.6v11c0 1 .6 1.4 1.6 1.4h7.8c1 0 1.6-.4 1.6-1.4V4H89v11.7c0 2.5-2.1 4.4-4.6 4.4H73.3c-2.4 0-4.6-1.9-4.6-4.4V4h.1zM47 15.2h4.6c.1.9.6 1.3 1.5 1.3h8.4c.8 0 1.2-.7 1.2-1.4 0-1-.7-1.5-1.6-1.5H52c-3 0-5.1-1.5-5.1-4.6 0-1.7.6-3.4 2.1-4.3.9-.6 2-.7 3.1-.7h10.8c2.3 0 4.2 1.7 4.2 4v.9h-4.7c0-.7-.5-1.2-1.3-1.2h-8c-.8 0-1.5.4-1.5 1.3s.7 1.2 1.5 1.2h9.8c3.2 0 4.8 2.1 4.8 5.2 0 2.9-1.4 4.8-4.4 4.8H51.6c-2.7 0-4.5-1.1-4.6-3.9v-1.1zM155.6 4h4.6v11c0 1 .6 1.4 1.6 1.4h7.8c1 0 1.6-.4 1.6-1.4V4h4.6v11.7c0 2.5-2.1 4.4-4.6 4.4h-10.9c-2.5 0-4.6-1.9-4.6-4.4V4h-.1zM116.9 17l-1.8 3.2H110L118.8 4h6l8.8 16.1h-5.1l-1.8-3.2h-9.8v.1zm4.8-8.9l-2.9 5.4h5.8l-2.9-5.4zM90.6 4h14.1c3 0 5.3 1.1 5.3 4.5 0 1.5-.6 2.8-1.9 3.5 1.4.8 2.2 2.2 2.2 3.8 0 2.3-1.5 4.4-3.9 4.4H90.6V4zm4.7 12.5h8.7c.9 0 1.6-.5 1.6-1.4 0-.9-.8-1.4-1.6-1.4h-8.7v2.8zm0-6.1h8.7c.8 0 1.3-.6 1.3-1.3 0-.8-.5-1.3-1.3-1.3h-8.7v2.6zM134.4 4h15.4c3.1 0 4.5 2.5 4.5 5.3 0 1.8-.7 3.5-2.3 4.4 1.6.8 2.4 2 2.4 3.8v2.6h-4.6v-2.6c0-1.5-.9-2.1-2.3-2.1h-8.3v4.7h-4.7V4h-.1zm4.7 7.8h8.6c1.1 0 1.9-1 1.9-2 0-1.3-1-2.1-2.3-2.1h-8.2v4.1zM35.2 3.8C30.9 1 25.4 0 20.3 0 15.8 0 11 .8 7 2.9c-3.4 1.8-7 4.8-7 9 0 3.6 2.6 6.3 5.5 8.1 4.3 2.8 9.8 3.8 14.9 3.8 4.5 0 9.3-.8 13.4-2.9 3.4-1.8 7-4.8 7-9-.2-3.6-2.8-6.3-5.6-8.1zm-1 15.2c-4.1 2.5-9.2 3.4-13.9 3.4-4.2 0-8.7-.7-12.5-2.6-3.1-1.5-6.5-4.2-6.5-8 0-3.2 2.5-5.7 5.1-7.2 4.1-2.5 9.2-3.4 13.9-3.4 4.2 0 8.7.7 12.5 2.6 3.1 1.5 6.5 4.2 6.5 8 0 3.3-2.5 5.7-5.1 7.2z"/><path d="M2.4 9.2l7.8-1.3 2.4-5.1 2.3 5.1 7.8 1.3-7.8 1.3-2.3 5.1-2.4-5.1-7.8-1.3M19.5 13.1l3.5-.6 1-2.3 1 2.3 3.5.6-3.5.6-1 2.3-1-2.3-3.5-.6M26.6 6.9l3.5-.6 1-2.3 1 2.3 3.5.6-3.5.6-1 2.3-1-2.3-3.5-.6M23 17.8l3.4-.6 1-2.3 1.1 2.3 3.4.6-3.4.6-1.1 2.3-1-2.3-3.4-.6M12.4 18.7l3.5-.6 1-2.3 1 2.3 3.5.6-3.5.6-1 2.3-1-2.3-3.5-.6M29.7 13l3.4-.6 1-2.3 1.1 2.3 3.4.6-3.4.6-1.1 2.3-1-2.3-3.4-.6"/></g></svg>