<svg class="logo-seekout" xmlns="http://www.w3.org/2000/svg" viewBox="0 0 270 167.3">
  <g fill="#fff">
    <path d="M135 25.5c-11 0-20 9-20 20 0 1.4 1 2.5 2.5 2.5s2.5-1 2.5-2.5c0-8.3 6.7-15 15-15s15 6.7 15 15c0 1.4 1 2.5 2.5 2.5s2.5-1 2.5-2.5c0-11-9-20-20-20z"></path>
    <path d="M135 35.5c-5.5 0-10 4.5-10 10 0 1.4 1 2.5 2.5 2.5s2.5-1 2.5-2.5c0-2.8 2.2-5 5-5s5 2.2 5 5c0 1.4 1 2.5 2.5 2.5s2.5-1 2.5-2.5c0-5.5-4.5-10-10-10z"></path>
    <path d="M189.2 91.3l-18-18c5.8-7.8 9.3-17.3 9.3-27.7C180.5 20.4 160 0 135 0S89.5 20.4 89.5 45.5 110 91 135 91c10.4 0 20-3.5 27.6-9.4l18 18c1.2 1.2 2.7 2 4.3 2 3.2 0 6-2.8 6-6 0-1.8-.7-3.3-1.8-4.3zM135 10.5c19.3 0 35 15.7 35 35s-15.7 35-35 35-35-15.7-35-35 15.7-35 35-35z"></path>
    <path d="M107.5 48c1.4 0 2.5-1 2.5-2.5 0-13.8 11.2-25 25-25s25 11.2 25 25c0 1.4 1 2.5 2.5 2.5s2.5-1 2.5-2.5c0-16.5-13.5-30-30-30s-30 13.5-30 30c0 1.4 1 2.5 2.5 2.5zM15.3 158.6c1.5 0 2.7 0 3.6-.4.8-.2 1.6-.6 2.2-1 .6-.4 1-1 1.2-1.5.2-.6.3-1.2.3-2 0-1.4-.7-2.6-2-3.6-1.5-1-4-2-7.4-3-1.5-.6-3-1.2-4.5-2-1.5-.6-2.8-1.4-4-2.5s-2.2-2.3-3-3.8c-.6-1.5-1-3.3-1-5.4 0-2 .4-4 1.2-5.7.8-1.7 2-3 3.4-4.3 1.5-1.2 3.2-2 5.3-2.7 2-.6 4.4-1 7-1 3 0 5.8.3 8 1s4 1.4 5.6 2.2l-3 8-4.3-1.7c-1.6-.4-3.4-.7-5.7-.7-2.5 0-4.2.3-5.3 1-1 .7-1.6 1.7-1.6 3 0 1 .2 1.6.6 2.2.4.6 1 1 1.7 1.6.7.6 1.6 1 2.5 1.4l3 1.2 6.3 2.6c1.8 1 3.2 2 4.4 3 1 1 2 2.5 2.5 4 .6 1.5 1 3.4 1 5.6 0 4.3-1.6 7.6-4.6 10-3 2.3-7.6 3.4-13.6 3.4-2 0-4 0-5.5-.4-1.7-.2-3.2-.5-4.4-1-1.3-.3-2.3-.6-3.2-1l-2.3-1 3-8.3c1.4.8 3 1.4 5 2 2 .8 4.4 1 7.3 1zM39 149.3c0-3 .5-5.8 1.4-8 1-2.4 2.2-4.3 3.7-6 1.6-1.4 3.4-2.6 5.4-3.4 2-1 4-1.3 6.2-1.3 5 0 8.8 1.5 11.7 4.5 3 3 4.3 7.5 4.3 13.3v2l-.2 1.7H49c.3 2 1.3 3.6 3 4.8 1.6 1.2 3.8 1.8 6.6 1.8 1.8 0 3.6-.2 5.3-.5 1.6-.3 3-.7 4.2-1.2l1.3 8c-.5.4-1.2.6-2 1l-3 .6-3.5.5c-1.2.2-2.5.3-3.7.3-3 0-5.8-.5-8.2-1.4-2.2-1-4-2.3-5.7-4-1.5-1.5-2.6-3.4-3.4-5.6-.6-2.2-1-4.5-1-7zm23-3.8c0-.8 0-1.7-.3-2.4-.2-.7-.6-1.4-1-2-.6-.6-1.2-1-2-1.5-.8-.4-1.7-.6-3-.6-1 0-2 0-2.7.5-.8.4-1.5 1-2 1.5-.5.6-1 1.3-1.2 2-.3 1-.5 1.7-.6 2.6h13zM77.6 149.3c0-3 .5-5.8 1.4-8 1-2.4 2.2-4.3 3.7-6 1.5-1.4 3.3-2.6 5.3-3.4 2-1 4-1.3 6.2-1.3 5 0 8.8 1.5 11.7 4.5 2.8 3 4.2 7.5 4.2 13.3v2l-.2 1.7H87.7c.2 2 1.2 3.6 2.8 4.8 1.7 1.2 4 1.8 6.7 1.8 1.8 0 3.6-.2 5.3-.5 1.7-.3 3.2-.7 4.3-1.2l1.3 8c-.4.4-1 .6-2 1l-3 .6c-1 .2-2 .4-3.4.5-1.2.2-2.5.3-3.7.3-3.2 0-6-.5-8.3-1.4-2.3-1-4.2-2.3-5.8-4-1.6-1.5-2.7-3.4-3.5-5.6-.5-2.2-1-4.5-1-7zm23-3.8c0-.8 0-1.7-.3-2.4-.2-.7-.6-1.4-1-2-.6-.6-1.2-1-2-1.5-.8-.4-1.7-.6-3-.6-1 0-2 0-2.7.5-.8.4-1.5 1-2 1.5-.5.6-1 1.3-1.2 2-.3 1-.5 1.7-.6 2.6h13zM127.7 144l3-3.2 3-3.4c1-1 2-2.2 2.7-3.2 1-1 1.6-2 2.2-2.6h11.7l-6.8 7.7-7.3 7.6c1.3 1 2.7 2.5 4 4.2 1.5 1.7 3 3.4 4.2 5l3.6 5.4 2.8 4.8h-11.3l-2.4-3.8c-.8-1.4-1.8-2.8-2.8-4.2-1-1.4-2-2.7-3.2-4-1-1.3-2.2-2.4-3.3-3.2v15.2H118l-.2-41 9.8-1.5v20zM200.4 143.5c0 4-.6 7.4-1.8 10.3-1.2 3-2.8 5.5-4.8 7.5s-4.4 3.5-7.2 4.5-5.8 1.5-9 1.5c-3 0-6-.5-9-1.5-2.7-1-5-2.5-7.2-4.5-2-2-3.7-4.5-5-7.5-1-3-1.7-6.4-1.7-10.3 0-4 .6-7.4 2-10.3 1-3 2.8-5.5 5-7.5 2-2 4.4-3.5 7.2-4.6 2.7-1 5.6-1.4 8.6-1.4s6 .5 9 1.5c2.7 1 5 2.6 7.2 4.7 2 2 3.7 4.5 5 7.5 1 3 1.6 6.4 1.6 10.3zm-35 0c0 2.2.3 4.3.8 6 .6 2 1.3 3.5 2.4 4.8 1 1.3 2.3 2.3 3.8 3 1.5.7 3.2 1 5.2 1s3.6-.3 5-1c1.6-.7 3-1.7 4-3s1.7-3 2.3-4.7c.5-1.8.7-3.8.7-6 0-2.3-.3-4.4-.8-6.2-.7-1.8-1.4-3.4-2.5-4.7-1-1.3-2.3-2.3-3.8-3-1.5-.7-3.2-1-5-1-2 0-3.8.3-5.3 1s-2.8 1.7-3.8 3-1.8 3-2.4 4.7c-.5 2-.8 4-.8 6zM238 165.2c-1.7.5-3.8 1-6.5 1.4-2.6.4-5.4.6-8.3.6-3 0-5.4-.4-7.4-1.2-2-.8-3.5-2-4.7-3.3-1-1.4-2-3-2.3-5-.5-2-.7-4.3-.7-6.6v-19.3h9.8V150c0 3 .4 5.4 1.3 6.8 1 1.4 2.5 2 4.8 2h2.2c.8 0 1.5 0 2-.2v-26.8h10v33.4zM247 125.5l9.7-1.6v7.6h11.8v8.2h-11.8V152c0 2 .4 3.7 1 5s2.3 2 4.5 2c1 0 2-.2 3.3-.4l3-.8 1.5 7.7c-1.2.5-2.5 1-4 1.3-1.5.4-3.2.5-5.4.5-2.7 0-5-.4-6.7-1-2-.8-3.3-1.8-4.3-3-1-1.4-1.8-3-2.2-4.8-.4-2-.6-4-.6-6v-27z"></path>
  </g>
</svg>