<svg xmlns="http://www.w3.org/2000/svg" width="559.9" height="127.8" viewBox="0 0 559.9 127.8"><g fill="#fff"><path d="M381.5 5.2c9 0 17.7-.6 26.3.1 11.7 1 18.1 8.3 18.7 20.2.3 7.3.2 14.7 0 22-.2 6.6-3.7 11.2-9.8 14.5 8.9 4.6 10.9 12.3 10.9 21-.1 13.9 0 27.9 0 42.1h-12.8c-.1-1.9-.4-3.9-.4-5.8-.1-12.8 0-25.6-.3-38.5-.3-9.1-2.9-11.2-12.1-11.3h-7.4V125h-13c-.1-40-.1-79.9-.1-119.8zm13.3 52.2c2.6 0 5 .1 7.5 0 7.1-.5 10.4-3.3 10.8-10.5.4-6.9 0-13.9-.3-20.9-.2-3.7-2.4-6.4-6-7-4-.7-8.1-.5-12.4-.7v36.2c0 .7.2 1.5.4 2.9zM147.4 5.1h12.7v38.5c.3.1.7.3 1 .4.7-1.1 1.6-2.1 2.2-3.2 5.8-10.5 11.7-20.9 17.2-31.5 1.7-3.2 3.6-4.7 7.3-4.3 3.3.3 6.6.1 10.6.1-1.2 2.2-1.9 3.8-2.8 5.3-7.5 13-14.9 26-22.6 38.8-2 3.3-2 5.9-.6 9.3 8.2 20.6 16.2 41.2 24.2 61.8.6 1.5 1.1 3.1 1.9 5.4-4.7 0-9 .3-13.2-.2-1.4-.2-3.1-2.2-3.7-3.7-6.2-16.3-12.2-32.7-18.2-49.1-.7-1.8-1.4-3.7-3-5.4v58.1h-13.1c.1-40.4.1-80.3.1-120.3zM524.3 33.7c0-7.8.5-14.9-.2-21.9-.6-6.1 1.7-8.9 7.4-9.8 1.8-.3 3.5-1 5.6-1.6v124c-7.4-1.1-12.7-7.5-12.8-16.4-.2-16.7-.1-33.3-.1-50 0-2.5 0-5-.4-7.5-.9-5.1-4.9-8.1-9.9-7.9-5.5.2-9.4 3.6-9.4 9-.2 17.8-.1 35.6 0 53.5 0 4.7 2.7 7.8 7.5 8.6 4.3.8 7.2 2.5 6.4 7.6-.8 4.7-3.5 6.5-9.2 6-9.7-.8-17-8.2-17.5-19.2-.6-14.5-.4-29-.5-43.5 0-5-.1-10 .2-15 1.2-16 15.2-24.1 29.9-17.4.7.5 1.4.8 3 1.5zM482.1 98.5c2.2 20.2-10.8 32.6-28.9 28-8.9-2.3-15.2-9-15.6-18.5-.6-14.5-.5-29-.5-43.5 0-4.8-.1-9.7.3-14.5 1-11.6 8.5-18.8 20.1-19.7 12.5-.9 22.3 5.1 24.8 16.2 3.2 14.1 1 33.3-16.2 43.8-3.7 2.3-7.4 4.5-11.2 6.6-5.1 2.8-6.1 10.2-2 14.5 4.5 4.6 14.2 3 15.2-3.1.9-5.9 4.4-7 8.7-8.2 1.8-.4 3.5-1 5.3-1.6zM450.5 84c18.6-6.1 21.7-21 18.6-34.9-1.1-4.6-4.9-6.5-9.6-6.3-4.8.2-8.8 3.3-8.9 7.9-.3 11-.1 22-.1 33.3zM306.7 125.1h-13.1v-5.6V54c0-8.6-7-13.5-14.9-10.6-4.9 1.8-6.5 5.7-6.5 10.7.1 21.7 0 43.3 0 65v5.8h-12.9V32.3c6.3-1.7 7.7-1.4 10.6 1.9 5.5-1.4 10.4-3.6 15.4-3.8 12.4-.5 21 7.6 21.2 20.1.3 18 .1 36 .2 54v20.6zM248.9 79.1c0 8.5.2 17-.1 25.5-.6 17-15.4 27.1-31.4 21.5-9.2-3.2-14.3-10.2-14.5-19.6-.5-18.5-.5-37 0-55.5.3-12.5 9.9-20.6 23-20.6 12.8 0 22.2 8 22.8 20.2.5 9.5.1 19 .1 28.5h.1zm-13.2-.5c0-8.3.1-16.7 0-25-.1-6.8-3.7-10.8-9.7-10.9-6-.1-10 3.8-10.1 10.6-.2 16.8-.2 33.7 0 50.5.1 6.8 4 10.4 10.3 10.3 6-.2 9.5-3.9 9.5-10.4.1-8.5 0-16.8 0-25.1zM320.4 42c5.2-9.7 14.9-13.6 26.4-11.2 8.9 1.9 15.3 9.3 15.5 19.6.4 23.2.2 46.3.2 69.5v4.5c-7.4-1.3-12.7-7.6-12.8-15.7-.2-9.3 0-18.7 0-28 0-1.6-.1-3.2-.3-5.7-9.9 6.3-18.6 12.5-20.4 24.4-1.3 8.2 2.1 13.1 10.1 14.7 3.4.7 5.6 2.2 5.3 5.9-.3 3.8-1.8 6.7-6.1 7.3-8.6 1.2-17.5-4-20.4-12.8-4.7-14.2-2-27.2 8.4-37.9 5.2-5.3 11.3-9.8 17.4-14.2 4.6-3.3 7.2-7.1 5-12.6-1.1-2.6-3.2-5.8-5.6-6.7-5-1.8-9.4.4-12.2 5.5-3.6-2.1-6.9-4.3-10.5-6.6z"/><path d="M508.2 54c.4-3.8 2.5-6 6.1-5.9 3.6.1 5.8 2.4 6 6 .2 3.3-3.2 6.5-6.4 6.1-3.7-.3-5.5-2.6-5.7-6.2zM17.8 77.3C28.2 63.1 38.6 48.9 49 34.6c3.6 1.8 7 3.5 8.9 4.4 2.1 4 3.2 7.1 5.2 9.5 3.2 3.9 3.6 6.9-.1 10.4-2.3 2.1-5.2 3.6-7.7 5.4-2 1.4-3.9 2.9-6.4 4.8 1.6 1 2.6 1.4 3.3 2.1 1.3 1.2 3.5 2.9 3.3 3.7-.5 1.6-2.3 3.6-3.8 3.8-3.3.4-7.3.8-10.1-.6-8-3.9-15.5-4.9-23.8-.8z"/><path d="M71.7 34.3c12.1 11.9 24 23.6 36.2 35.6-4.6 3.9-10 3.4-14.9 2-7.6-2.2-15-5.2-23.1-8.2 3.7-5.9 1.4-10.2-2.7-14.4-5.1-5.2-4.6-8 1.3-12.4 1.3-1 2.5-2.1 3.2-2.6zM80.5 84.3c-8.4 5.3-16.9 7.4-26.1 4.9-12.3-3.3-24.5-6.6-37.7-2.2 3.9-6.5 9.7-8.6 17.2-6.8 4 1 8 2.4 12.1 2.9 2.9.4 6.3.3 8.7-1 2.5-1.3 5-4.1 5.7-6.7.5-1.9-2-4.6-3.3-7.3 3.4-2.6 8.2-2.1 12.8-.8 3 .9 5.9 2.2 8.8 3.5 8.6 4.1 17.2 7.8 27.1 7.2-7.2 2.8-14.4 1.5-21.6.2-3.4-.6-6.9-1.3-10.4-1.3-1.4 0-2.9 1.6-4.3 2.5 1.1 1.3 2 3.2 3.4 3.8 2.2.8 4.6.7 7.6 1.1z"/><path d="M553.3 9.5l2.1 3.8h-2l-2.1-3.6h-1.6v3.6H548V4.6h3.8c2 0 3 .8 3 2.5.1 1.3-.5 2.1-1.5 2.4zm-3.5-1.4h2.4c.7 0 1-.3 1.1-.9 0-.6-.4-.9-1.1-.9h-2.4v1.8z"/></g><g fill="none" stroke="#fff"><circle stroke-width="8" stroke-miterlimit="10" cx="61.9" cy="65.9" r="57.9"/><circle fill="#fff" cx="225.7" cy="53.6" r="6"/><path stroke-width="2" stroke-miterlimit="10" d="M551 16.9c-4.4 0-7.9-3.6-7.9-7.9 0-4.4 3.6-7.9 7.9-7.9 4.4 0 7.9 3.6 7.9 7.9 0 4.3-3.6 7.9-7.9 7.9z"/></g></svg>