<svg class="copy__logo logo-jjd" viewBox="0 0 795 213" version="1.1" xmlns="http://www.w3.org/2000/svg">
  <g fill="#fff">
    <path d="M30.3,212.8 C12.1,212.8 0.3,198.9 0.3,180.8 L0.3,142 C0.3,139.1 1.5,136.5 4.3,136.5 L16.1,136.5 C19,136.5 21.6,139.1 21.6,142 L21.6,180.7 C21.6,186.2 23.3,191.4 29.7,191.4 C36.1,191.4 37.8,186.2 37.8,180.7 L37.8,8.7 C37.8,5.8 40.1,3.2 43,3.2 L54.8,3.2 C57.7,3.2 60.3,5.8 60.3,8.7 L60.3,180.7 C60.4,198.9 48.5,212.8 30.3,212.8 L30.3,212.8 Z"></path>
    <path d="M90.4,209.3 L80.9,209.3 C78,209.3 75.4,206.7 75.4,203.8 L75.4,183.6 C75.4,180.7 78,178.1 80.9,178.1 L90.4,178.1 C93.3,178.1 95.9,180.7 95.9,183.6 L95.9,203.8 C95.9,206.7 93.3,209.3 90.4,209.3 L90.4,209.3 Z"></path>
    <path d="M144.6,212.8 C126.4,212.8 114.6,198.9 114.6,180.8 L114.6,142 C114.6,139.1 115.8,136.5 118.6,136.5 L130.4,136.5 C133.3,136.5 135.9,139.1 135.9,142 L135.9,180.7 C135.9,186.2 137.6,191.4 144,191.4 C150.4,191.4 152.1,186.2 152.1,180.7 L152.1,8.7 C152.1,5.8 154.4,3.2 157.3,3.2 L169.1,3.2 C172,3.2 174.6,5.8 174.6,8.7 L174.6,180.7 C174.7,198.9 162.8,212.8 144.6,212.8 L144.6,212.8 Z"></path>
    <path d="M204.7,209.3 L195.2,209.3 C192.3,209.3 189.7,206.7 189.7,203.8 L189.7,183.6 C189.7,180.7 192.3,178.1 195.2,178.1 L204.7,178.1 C207.6,178.1 210.2,180.7 210.2,183.6 L210.2,203.8 C210.2,206.7 207.6,209.3 204.7,209.3 L204.7,209.3 Z"></path>
    <path d="M298.8,209.3 L272,209.3 C268.8,209.3 266.5,207 266.5,203.8 L266.5,8.4 C266.5,5.2 268.8,3.2 272,3.2 L298.8,3.2 C317,3.2 330.8,17.1 330.8,35.2 L330.8,176.9 C330.8,195.1 317,209.3 298.8,209.3 L298.8,209.3 Z M308.3,35.2 C308.3,29.7 305.1,24.5 298.8,24.5 L294.5,24.5 C291.3,24.5 289,26.8 289,30 L289,182.4 C289,185.6 291.3,187.9 294.5,187.9 L298.8,187.9 C305.2,187.9 308.3,182.4 308.3,176.9 L308.3,35.2 L308.3,35.2 Z"></path>
    <path d="M390,212.8 C371.8,212.8 358,198.7 358,180.5 L358,32.4 C358,14.2 371.9,0.1 390,0.1 C408.1,0.1 422.3,14.2 422.3,32.4 L422.3,180.5 C422.3,198.6 408.2,212.8 390,212.8 L390,212.8 Z M399.8,32.3 C399.8,26.8 396.3,21.6 390,21.6 C383.6,21.6 380.5,26.8 380.5,32.3 L380.5,180.4 C380.5,185.9 383.7,191.4 390,191.4 C396.4,191.4 399.8,185.9 399.8,180.4 L399.8,32.3 L399.8,32.3 Z"></path>
    <path d="M491.6,209.3 L457,209.3 C454.1,209.3 451.8,206.7 451.8,203.8 L451.8,8.4 C451.8,5.5 454.1,3.2 457,3.2 L468.8,3.2 C471.7,3.2 474.3,5.5 474.3,8.4 L474.3,182.5 C474.3,185.4 476.9,188 479.8,188 L491.6,188 C494.5,188 496.8,190.3 496.8,193.2 L496.8,203.9 C496.8,206.7 494.5,209.3 491.6,209.3 L491.6,209.3 Z"></path>
    <path d="M582.8,209.3 L571,209.3 C568.1,209.3 565.2,207 564.9,204.1 L561.4,169.5 C561.1,166.6 558.5,164.3 555.6,164.3 L547.5,164.3 C544.6,164.3 541.7,166.6 541.4,169.5 L537.9,204.1 C537.6,207 535,209.3 532.1,209.3 L520.3,209.3 C517.4,209.3 515.1,207 515.4,204.1 L537.9,8.4 C538.2,5.5 541.1,3.2 544,3.2 L559,3.2 C561.9,3.2 564.8,5.5 565.1,8.4 L587.3,204.1 C587.7,207 585.7,209.3 582.8,209.3 L582.8,209.3 Z M553.7,42.7 C553.7,41.3 552.8,40.7 551.7,40.7 C550.6,40.7 549.4,41.3 549.4,42.7 L544.5,139.4 C544.2,142.3 546.5,144.9 549.4,144.9 L553.7,144.9 C556.6,144.9 559.2,142.3 558.9,139.4 L553.7,42.7 L553.7,42.7 Z"></path>
    <path d="M668.8,209.3 L662.4,209.3 C659.5,209.3 656.6,207 656,204.1 L636.1,98.7 C635.8,97.5 635.2,97 634.7,97 C634.1,97 633.5,97.6 633.5,98.7 L633.5,203.8 C633.5,206.7 630.9,209.3 628,209.3 L617.3,209.3 C614.4,209.3 611.8,206.7 611.8,203.8 L611.8,8.4 C611.8,5.5 614.4,3.2 617.3,3.2 L624.8,3.2 C628.6,3.2 630.6,5.5 631.2,8.4 C635,30.6 640.4,64.4 650,112 C650.3,113.4 651.2,113.7 651.7,113.4 C652.3,113.1 652.9,112.8 652.9,111.7 L652.9,8.4 C652.9,5.5 655.2,3.2 658.1,3.2 L668.8,3.2 C671.7,3.2 674.3,5.5 674.3,8.4 L674.3,203.8 C674.3,206.7 671.7,209.3 668.8,209.3 L668.8,209.3 Z"></path>
    <path d="M705.5,66.4 C704.3,67.8 702.6,69 700.9,69 C699.5,69 698.9,68.1 698.9,66.4 C698.9,64.7 700.1,62.1 700.9,59.2 C702.9,53.4 703.5,47.9 703.5,37.6 C703.5,35.6 702.6,34.4 700.9,34.4 L697.7,34.4 C694.8,34.4 692.2,31.8 692.2,28.9 L692.2,8.7 C692.2,5.8 694.8,3.2 697.7,3.2 L707.2,3.2 C710.1,3.2 712.7,5.8 712.7,8.7 L712.7,34.4 C712.7,48.2 710.4,58.9 705.5,66.4 L705.5,66.4 Z"></path>
    <path d="M762.3,212.8 C742.7,212.8 730.3,198.4 730.3,174.1 C730.3,166.6 730.6,156.8 732.6,146.1 C733.5,142.3 734.6,139.7 737.8,139.7 L747.9,139.7 C752.5,139.7 754,142.6 753.7,146.1 C753.1,151.3 751.7,165.4 752.3,172.9 C753.2,185.9 755.8,191.1 762.1,191.1 C770.2,191.1 772.2,182.4 772.2,172.9 C772.2,144 760.9,129.6 751.1,111.7 C732.6,78.5 728,56.9 728,37.5 C728,15 741,5.68434189e-14 760.3,5.68434189e-14 C781.7,5.68434189e-14 792.3,14.7 792.3,37.5 C792.3,46.7 791.4,60.3 790.9,65.5 C790.3,69.5 788,71.6 784.8,71.6 L775.6,71.6 C772.4,71.6 769,69 769.2,65.5 C769.8,56.3 770.9,45 770.9,36.6 C770.9,27.1 767.7,21.3 760.5,21.3 C753.3,21.3 750.4,27.9 750.4,38.6 C750.4,55.9 756.5,75.5 769.2,96.9 C787.1,126.6 794.6,149.1 794.6,168.5 C794.7,192.3 784.9,212.8 762.3,212.8 L762.3,212.8 Z"></path>
  </g>
</svg>