<svg class="logo-tho" xmlns="http://www.w3.org/2000/svg" viewBox="0 0 1104.07 808.4">
  <path class="logo-tho__shadow" d="M4241,824.55a3,3,0,0,0,2.37-2.9c-0.08-1.43-1.5-1.77-2.59-1.92-2.93-.38-3.15-2.28-3.14-4.67q0.25-64.24.45-128.48c0-1.43-.49-3.16,1.05-4.13,2.25-1.42,1.6-3,.41-4.62-1.31-1.74-1.35-3.71-1.32-5.71,0.08-5.33,0-10.68.37-16,0.2-2.69-1.51-6.36,3.27-7.52,1.57-.38.27-2.18-0.59-3.23s-3.24-2.45-2.11-3.44c2.85-2.49.63-4.24,0.16-6.54-0.83-4-.9-8.22-1.25-12.35a1.24,1.24,0,0,1,1-1.47c5-1,1.69-3.12.43-4.56-1.92-2.18-4.56-4.75-2.23-7.22s0.74-3.73-.39-4.88c-2.87-2.91-4.62-6.46-6.58-9.94a33.82,33.82,0,0,0-15.47-14.41c-1.58-.73-3.43-2.36-5.05-0.85-1.85,1.73.41,3.3,1,4.84,7.28,17.76,10.57,36,7,55.15a2.24,2.24,0,0,0,.34,1.81c2.41,1.86,1.8,4.55,1.93,6.93,1.88,32.29,1.51,64.63,2.13,96.94H4221c0,31.49,0,63,.06,94.47,0,3.38-1.77,6.64-1.21,9.77,2.5,13.95-6.56,28.76-19.06,33.86-4,1.64-8,3.28-12.36,3.86-31,4.17-62.08,4.59-93.25,3.48-3.32-.12-7.61.67-9.71-1.07-3.58-3-5.26-5.18-9.67-.7-2.32,2.36-2.73,2.82-.18,4.17,16.26,8.65,32.81,16.16,51.84,16.43,19.68,0.28,39.29-1.06,58.93-1.83,5.34-.21,10.62.52,16.1-1.26,8.24-2.68,15.58-6.06,21.21-12.9,7.36-8.94,10.78-19.38,12.57-30.56,0.29-1.8-.1-4.39,3.25-3.41a1.52,1.52,0,0,0,2-1,1.67,1.67,0,0,0-1.31-2.27c-2.21-.62-3.17-1.66-3-4.25,0.36-7.15.39-14.32,0.39-21.48C4237.64,828,4237.52,825.47,4241,824.55Zm-6.7-197.28c-3.8-2.12-1.87-6.7-5.89-9.75C4234.84,619.1,4235.17,619.82,4234.31,627.26ZM4224,634.2a42.79,42.79,0,0,1,9.22,8.88C4224.18,642,4223,640.86,4224,634.2Zm-1.56-15.46c4,4.18,7.07,7.71,9.43,12.11C4223.14,629.43,4223.14,629.43,4222.39,618.74Zm9.91-8.31c-3.2-3.61-5.42-6.46-6.87-11C4229.53,602.27,4232,605,4232.3,610.43Zm-11.2-6.2,6.83,7.38C4223,610.81,4220.14,609.67,4221.1,604.23Zm-92,301.51c-8.83-.87-17.86-5.2-25.8-10.57,13.47,0.25,26.85-.58,40.24-0.81,7.82-.14,15.63-0.65,23.44-1,8.71-.37,16.19,3,23.1,10.81C4169.21,904.94,4149.07,907.7,4129.1,905.74Zm80.58-5.65c-2,.89-4.05,1.5-6.1,2.19-5.06,1.73-9.44,1.67-13.34-3.05-2.32-2.81-5.88-4.6-9.38-7.23,8.81-1.12,16.84-2.92,24.26-6.77a2.42,2.42,0,0,1,3.44.66c1.07,1.27,2.28,2.43,3.42,3.64C4218,895.9,4217.9,896.37,4209.68,900.09Zm10.41-8.31c-3-.26-4.15-3.64-7-6.39l10.77,1.33C4223.28,889.29,4221.64,891.92,4220.09,891.78Zm-8.88-9.72c2.49-2.85,4.54-5.14,6.52-7.5,1-1.16,1.79-1.34,2.67,0l5.45,8.42Zm21.62-20.88a62.35,62.35,0,0,1-4.62,18.28c-2.41-2.64-3.88-4-1.88-7.62,1.61-2.93.26-7.43,0.48-11.22,0.08-1.34-1.32-4,1.36-3.8C4230.3,857,4233.22,857.35,4232.82,861.18Zm0.06-8.09a11.78,11.78,0,0,1-7.12-2.95c-2-1.69-.49-3.21.71-4.64,2.21-2.63,4.39-5.29,7.19-8.67,0.82,5.5,0,10.09,0,14.68C4233.62,852.1,4233.71,853.13,4232.88,853.09Zm-0.72-28.94c-2.87,1.8-3.22,4.06-2,7.26,1.65,4.44-2.12,6.42-5.12,10.23V808c4,5.2,5,9.82,8.58,13.11C4234.83,822.23,4233.34,823.4,4232.16,824.15Zm2.58-133.67c-0.4,39.63-.47,79.26-0.65,118.89a13.14,13.14,0,0,1-.68,5c-2.7-6.38-8.71-10.39-8.46-18.81q2.09-69.4-.59-138.83c0-1.12,0-2.24,0-3.37l1-.34,4.28,5.9c-3-.05-5.32.29-3.46,3.84,0.93,1.77,1.55,3.79,2.81,5.27C4234.6,674.62,4234.82,682.33,4234.74,690.48Z" transform="translate(-3373.07 -102.97)"/>
  <path class="logo-tho__shadow" d="M3785,580.69c-0.39-4.72-2.38-7.49-4.93-10.56a21.62,21.62,0,0,0-10.51-7.34c-3.78-1.11-6.17,1.38-5,5.1a19.73,19.73,0,0,1,.67,5.92c0.06,11,.08,22,0.16,33,0.07,9.38-2.83,13.07-12.18,13.35-11.82.35-23.66,0.11-35.48-.32-3.16-.11-4.09.35-4.14,3.53-0.6,36.65-2,73.29-2,110,0.07,35.67-.35,71.33-0.2,107,0,4.07-4.11,7.63-3,9.65a21.49,21.49,0,0,1,2.46,11.36q-0.15,9.25-.2,18.49c0,8.38-2.23,10.61-10.91,10.53a364.46,364.46,0,0,0-38,1.15c-1.58.15-3.62-.21-4.27,1.8-0.55,1.71,1.09,2.65,2,3.74,5,5.73,12.84,7.64,17.74,13.52,0.59,0.7,2.18.8,3.3,0.79,11.66-.05,23.34.19,35-0.41,10.86-.56,14.09-4.65,14.1-15.37,0-41.49,0-83.69,0-124.69h2.35c0-37,0-72.77,0-109.27,0-6.31.38-12.52,0.29-18.83-0.07-5.22,2.41-6.88,7.36-6.75,10.33,0.27,20.66.39,31,.27,9.32-.1,13.92-4.53,14.12-13.69C3785.14,608.65,3786.16,594.73,3785,580.69Zm-4,3.4c-3.09-1.58-4.87-4-7.55-7.48C3778.42,577.76,3781.83,578.68,3781.05,584.08Zm-64.38,60.06c0.55-5.39,0-10.87,1.06-17l10.59,11.24c-2.62,1.85-6.57-2.27-7.9,1.57-1.15,3.33,2.67,4.9,4.28,7.27-1,1.52-2.43.73-3.63,0.94C3717.83,648.78,3716.29,647.91,3716.67,644.14Zm11.51,11.37a8,8,0,0,1-3.77-3.56C3728.62,651.36,3728.62,651.36,3728.18,655.52Zm-13.67,204.64,1.17-.36c1.19,1.47,3.65,3.91,3.38,4.27-1.9,2.52-1.27,5.22-1.37,7.88a1.39,1.39,0,0,1-1.14.47,2.52,2.52,0,0,1-2-2.51C3714.49,866.66,3714.51,863.4,3714.51,860.15Zm0.36,20.09,8.37,11C3713.3,889.8,3712.59,888.79,3714.86,880.24Zm-4.89,19c-3.73-.73-6.79-2.8-10-4.6C3704,894.45,3709.17,891.8,3710,899.29Zm12.67,6.35c-3.22,2-6.91,2.39-10.59,2.38-7.16,0-14.32-.16-21.48-0.33-2.35-.06-4.95.08-3.9-3.81,0.62-2.3-1.72-2.62-3.1-3.19-2.75-1.13-5-2.57-5.56-6.11,8.06,0.49,15.7,1.71,22.85,5.17,3.14,1.52,6.21,3.23,9.65,4,1.58,0.37,3.35,1.3,4.64-.31,1.16-1.46-.24-2.82-0.75-4.15-0.81-2.13-2.48-3.92-2.59-6.66a34.7,34.7,0,0,1,12.38,3.56C3727.26,897.6,3726.28,903.4,3722.65,905.63Zm4.35-18.17a4.46,4.46,0,0,0-1.49.45c-1.71-2.08-3.69-4.13-5.34-6.26-0.84-1.08-1.48-2.27.26-3.25a2.51,2.51,0,0,0,1.19-2.56c-0.31-3.64-.17-7.43,3.91-9.13,0.19-.08.06-0.83,0.08-1.83h0A121.38,121.38,0,0,1,3716,854c-1.71-2-1.18-2.92,1.7-3.07,8.54-.46,9.33.72,9.33,9.52v27Zm-0.26-43.36c0,3.61-1,4.85-4.57,3.91a16,16,0,0,0-4.45-.5c-2.44.06-3.23-1.11-3.05-3.36,0.09-1.16,0-2.33,0-3.5,0.93-61.1.36-122.22,1.93-183.31,0-1.75-.44-3.61.81-5.66,2.32,2,4.54,3.95,6.71,5.91,0.54,0.49,1.68,1.36.66,1.91-5.18,2.82-.81,4.67.64,6.69,2,2.75,3.3,5.44,3.25,9.09Q3727.54,759.69,3726.74,844.11Zm-0.95-218.6a46.81,46.81,0,0,1,15.81,6.28C3729.23,633.93,3729.23,633.93,3725.79,625.5Zm10.36-1.55c4.69-1.28,7.43.45,9.17,5.26A23.87,23.87,0,0,1,3736.15,623.95Zm16.57,8.71c-2.66-.14-2.31-2.65-3.14-4.47,2.4-.41,4,1,5.92,1.31,1,0.14,2.58.8,2.77,0.49,4.43-6.83,8.25.39,12.32,0.52,0.81,0,1.59.89,3.55,2.08C3766.14,633.55,3759.42,633,3752.72,632.66Zm28.88-10.32c-0.22,7.28-1.95,8.15-8.5,5.42l-12.64-5.25c8.38-2.44,8.39-8.26,8.29-14.34q-0.24-14.69.31-29.45c1.08,1.54,4,2.5,1.08,5.12-1.09,1,0,2.12.8,3,1.68,1.84,3.33,3.71,5.06,5.51,0.86,0.9,1.57,2.55,3.18,1.7s0.82-2.27.36-3.51l-0.71-2c2.46,0.12,2.86,1.53,2.86,3.36C3781.66,602.07,3781.91,612.21,3781.6,622.34Z" transform="translate(-3373.07 -102.97)"/>
  <path class="logo-tho__shadow" d="M4011.78,710.43c-4.67-4.27-5.55-9.48-4.91-15.38,0.32-3,.22-6,0.3-9q1.26-45.71,2.51-91.42c0.15-5.59-1.26-10.44-5.79-14.22-4.3-3.59-9.16-6.86-9.91-13.2a3.28,3.28,0,0,0-1.27-1.46c-1-.88-2.14-2-3.47-1.08-1.16.81-.59,2.15,0,3.16,1.61,2.58,1.39,5.41,1.26,8.24-0.29,6.32-.63,12.63-0.85,18.95-0.91,26.3-1.86,52.61-2.52,78.92-0.07,2.65-2.86,4.65-1.77,6.73,2,3.9,1.29,7.85,1.17,11.74-1,30.81-.9,61.64-0.8,92.46,0,8.83-.26,17.67,0,26.49,0.82,23.81.31,47.65,1.89,71.44,0.3,4.59-.7,7.06-6.23,6.94-14.14-.3-28.3,0-42.45.1-5.15,0-6,1.19-4,6,3.86,9.3,11.79,12.87,21.08,13.5,10.63,0.72,21.3.93,32,1,12.13,0.07,15.87-3.83,16-15.8,0.2-24.15.27-48.3,0.64-72.44,0.53-34.15,1.29-68.3,2-102.45,0-2.33-.39-4.72,3.38-4.55C4014.47,715.3,4014.56,713,4011.78,710.43Zm-61.9,194.29c-4.83-1.35-8.92-3.67-11.12-8.44-0.33-.71-0.69-1.83-0.36-2.31,0.59-.87,1.79-0.62,2.77-0.42a2.72,2.72,0,0,1,.89.43,81.84,81.84,0,0,0,33,12C3966.56,906.33,3958.15,907,3949.88,904.72Zm26.85-2.42a56.32,56.32,0,0,1-26.48-8.87c8.79,0,17.57.13,26.36,0,5.27-.11,4.06,4,4.4,6.67C3981.43,903.43,3978.36,902.45,3976.73,902.31Zm29-311.17a24.76,24.76,0,0,1-5.66-8.7A10,10,0,0,1,4005.68,591.14Zm-17.3,301.13a22.51,22.51,0,0,0,3-5.09c0.89,2.51,3.15,4.86.86,7.37C3991,895.85,3987.43,893.58,3988.38,892.26Zm13.82-141.65c-0.49,47.79-1.7,95.58-1.56,143.37,0,11-3.75,13.61-18.28,12.27,4.19-2.58,1.57-6.34,2.62-9.43,1.52-.24,2.54.77,3.73,1.29,5.68,2.46,8.08.85,7.94-5.44-0.11-5.13-2.51-9.61-4.27-14.26a18.7,18.7,0,0,1-1.62-6.21c-1.19-44.11-2.78-88.22-1.73-132.36,0-1.46.19-2.91,0.36-5.4,4.94,4.25,7.69,9.19,12.23,12.37C4002.8,747.65,4002.22,749.33,4002.2,750.62Zm-0.33-8.8c-3.52-2.22-5.52-5.5-8.35-9C4003.22,731.82,4003.53,732.19,4001.87,741.82Zm0.78-13.76a24.12,24.12,0,0,1-5.09-11.25c-0.24-1.18-1.55-3.27,1.1-3.32,1.66,0,3.89.15,4,2.69C4002.73,719.72,4002.65,723.27,4002.65,728.07Zm-0.32-18.66c-1.17,2.22-3.36.29-4.82-.27-3.64-1.4-4.49-.09-4.17,3.33a42.65,42.65,0,0,0,3,12.07c0.52,1.29,2.31,3,.92,4-1.71,1.28-4.2.71-6.3,0.28s-1.62-2.28-1.6-3.7c0.07-7.66.24-15.32,0.33-23,0-4.12,0-8.23,0-12.35l1.35-.3c3.51,4.61,7,9.26,10.57,13.82A5.63,5.63,0,0,1,4002.33,709.4Zm2.7-80.09q-0.85,32.68-1.74,65.35a6,6,0,0,1-1,3.09c-4.9-7.23-12.66-12.34-12-23.05,1.38-22.4,1.76-44.87,2.55-67.31-0.28-7,.42-13.88.95-21.52a25.25,25.25,0,0,1,8.09,7.2c1.65,2.13-1.45,9.11-4.19,9.12-3.92,0-4.3,2.26-4.23,5.19,3.27,6.6,4.76,14.21,11,19.13C4005.38,627.25,4005.06,628.35,4005,629.31Zm1-6.11c-4-5.12-5.88-9.36-7.89-13.62-0.48-1-.65-3.1.34-3.09,4.85,0.09,5.55-3.93,7.55-7.95V623.2Z" transform="translate(-3373.07 -102.97)"/>
  <path class="logo-tho__shadow" d="M4469.86,517.41c-7.18-2.16-14.32-4.39-21.06-7.7-27.93-13.73-56.18-26.63-85.59-37-7.38-2.6-15.89-3.55-21.38-10.37a2.3,2.3,0,0,0-1.85-.29c-2.92.6-4.89-.76-7.11-2.53-4.76-3.79-8.51-2.17-9,3.86a134.71,134.71,0,0,0,0,20c0.31,4.71,2.52,6.89,7.08,8,16.88,4.26,33.62,9.06,49.68,15.89,16.5,7,31.88,16.55,49.4,22.89-9,3.43-17.95,7-27,10.27-25.12,9.22-49.66,20.15-76.07,25.51-4.72,1-6,4.51-6.16,8.51-0.25,8-.12,16-0.18,24,0,2.91,1.4,3.47,3.83,2.48,3.54-1.44,7-3.09,10.62-4.33s7.32-4.49,10.6-3.23c2.3,0.88,3.14,5.51,4.66,8.45,0.59,1.15,1,2.7,2.72,2.44a4,4,0,0,0,2.87-2.58,24.63,24.63,0,0,0,2-8.2c0.52-4.55,2.7-7.12,7.21-8.89,33.44-13.1,66.83-26.35,100.25-39.48,8.43-3.31,10.44-7.94,11.33-15.14,0.06-.5.11-1,0.16-1.49C4477.71,521.53,4476.55,519.43,4469.86,517.41Zm-127.9-32c-0.47,3.43-1.67,4.85-5.52,3.81-4.14-1.12-3.08-3.4-2.15-6,1.07-2.93,2.15-5.86,3.49-9.53,0.92,2.7-.16,4.32-0.34,6-0.13,1.24-1.23,2.73.72,3.32,1.7,0.52,2.19-.93,2.77-2.17s0.83-2.57,2.69-3.47C4343,480.36,4342.32,482.88,4342,485.45Zm5.51,5.45c-0.35-1.78,3.78-5,5.6-4.49,3,0.9.88,4.83,3.08,8.19C4352.16,493.07,4348.09,494,4347.48,490.9Zm26.7,9.17c-1.64,1.48-3.69-.87-6.44-1.49l5.43-4.78C4374.46,496.12,4375.67,498.73,4374.18,500.07Zm-48.43,96c-2.41.08-1.54-2.51-1.58-3.95-0.14-4.32.12-8.66,0-13-0.28-8.77,1.85-10.87,11.66-10.62a69.16,69.16,0,0,0-5.06,23.81C4330.61,595.59,4327.8,596,4325.75,596.1ZM4336.3,592c-2.6.82-1.69-2.15-1.65-3.48a38.21,38.21,0,0,1,4-16.37c2.11,6,4.6,10.58,5.08,15.33C4344.18,591.74,4339,591.13,4336.3,592Zm16.95,6.43c-4.89-6.82-4.71-7.76,1.83-9C4354.49,592.46,4355.12,595.57,4353.25,598.42ZM4378,576c-5.11,1.88-10.16,3.93-16.37,6.35a34.18,34.18,0,0,1,12.86-16c2-1.44,3.23-1.14,3.84,1.35a21.74,21.74,0,0,0,1.41,4.21C4380.74,574,4380.17,575.14,4378,576Zm95.24-46.46c-0.68,6.89-3.8,9.83-10.41,12.54-23.1,9.45-46.34,18.55-69.52,27.8-1.32.53-2.57,1.55-4.95,0.8,4.52-5.08,4-12.71,10.14-16.62a1.58,1.58,0,0,0,.27-2.58,2.9,2.9,0,0,0-3.64-.7c-2,.92-2.57,3-3.34,4.79-2.24,5.3-4.15,10.78-8.16,15.34-1.89-2-2.26-4.42-2.6-6.59-0.68-4.34-2.61-4.16-5.8-2.41-7.77,4.26-13.53,10.39-16.66,18.58-1.67,4.37-5.29,5.11-8.73,6.57-1.82.77-2.41-.56-2.84-1.84q-2.6-7.82-5.06-15.68c-0.66-2.09,0-3.32,2.29-4,31.39-10,61.81-22.77,92.75-34.05,1.33-.49,3.42-0.48,3.36-2.38s-2.21-1.62-3.55-1.92c-15.43-3.43-29.15-11-43.21-17.72a27.06,27.06,0,0,0-4.07-1.91c-7.7-2.2-12.39-6.44-12.64-15.22-0.13-4.81-1.7-5-5.44-1.69a39,39,0,0,1-6.33,4.81c-3.49,2-5.69.8-6.43-3.13-0.55-2.94-.87-5.93-1.35-8.89-0.55-3.38-2.21-3.76-4.77-1.71-2,1.63-4.11,3.19-7,5.43,0.85-5.41,1.6-9.64,2.15-13.9,0.39-3.05,2.12-1.81,3.57-1.25,24.68,9.49,49.89,17.67,73.38,30.11,14,7.4,28.33,14.08,43.51,18.73C4472.64,522.14,4473.65,524.86,4473.2,529.49Z" transform="translate(-3373.07 -102.97)"/>
  <path class="logo-tho__shadow" d="M3934.5,341.85q0-34.73,0-69.46c0-17.79-9.81-30.6-21.4-42.54-0.94-1-2.05-2-3.47-1s-0.1,2,.28,3a49.44,49.44,0,0,1,1.75,5.7c4.16,17.39,5.86,35.06,6.27,52.92,0.63,27.47,1.78,54.94,1.17,82.41-0.28,12.91-1.69,26-9.62,37a61.6,61.6,0,0,1-7.06,8.24c-6.55,6.24-14.57,11-24.55,7.69a1.7,1.7,0,0,0-2.15.72c-1.23,1.9-3.18,1.64-5,1.61-12-.23-24,0.22-35.52-4.14-3.32-1.26-4,.32-3.17,3.15,1.38,4.82,4,9,8.32,11.46a51.17,51.17,0,0,1,11.81,8.91c3.1,3.25,6.22,2.83,8.63-.95,1.42-2.23,3.12-2.1,5.08-2,13.11,0.7,26.57-1.68,39,5.14,3.44,1.89,6.68.22,7.41-3.92,0.37-2.15,1.89-2.38,3.17-3.32,4-3,9.53-3.3,11.55-9.65,2.42-7.61,6.08-14.58,6.15-23,0.19-22.63,1.16-45.26,1.82-67.89h-0.51Zm-75.34,95.7c0.11,2.58-.92,3.52-4,3.2-7-.71-9.54-6.33-14.26-10.92,5.84,0.58,10.73,1,15.61,1.57C3861,431.88,3859.06,435.27,3859.16,437.56ZM3930,281.83V294c-2-2.59-6.87-3.7-7.06-6.65C3922.72,284.1,3929,284.83,3930,281.83Zm-8.13-10.22c1.11-.82,3.58-0.42,3.88,1.08,0.64,3.24-3.15,3.53-4.37,5.78C3920.87,275.93,3919.53,273.35,3921.87,271.61Zm4.57,118.09c-1.75,2.1-3.55,2.09-5.41,1.08a1.85,1.85,0,0,1,0-1.7C3923,387.34,3924.53,389.07,3926.44,389.7Zm-6.6-129c1,2,4,3.08,2.8,5.84a1.89,1.89,0,0,1-1.77.46C3918.51,265.37,3920.07,262.85,3919.84,260.71ZM3918,241a44.1,44.1,0,0,1,10.66,17.41C3922.82,252.29,3919.16,246.37,3918,241Zm-7.68,174.25c1.24-.65,1.61.84,2.05,1.58,2.1,3.52,4.09,7.09,6.12,10.65-3.79-2.32-6.13-5.71-8.35-9.2C3909.45,417.21,3909,415.91,3910.29,415.21Zm-36.95,26.17c-2.63,0-5.25,0-7.88,0-1.09,0-2.54.23-2.67-1.42-0.1-1.29-.29-2.9.34-3.83,0.79-1.15,2.06.11,3,.57,2.49,1.19,4.93,2.48,7.39,3.73Zm-8.29-9.46c12.68-1.17,12.68-1.17,14.53,6.53C3874.41,437.39,3870.32,434.95,3865.05,431.93Zm18.18,4c2.81,1,4.44,3.12,6.71,4.95C3884.28,442,3884.24,442,3883.23,436Zm33.88,1.8c-2.17.88-4.37,4.84-7,.66-2.18-3.53-4.1-7.22-6.16-10.82-0.6-1.05-1.44-2.1-2.75-1.32s-0.85,2.05-.28,3.11c1.56,2.93,3.06,5.91,4.84,8.71s0.62,3.66-2.19,4c-3.26.36-6.24,0.05-8.93-2.08-3.49-2.77-7.26-5.19-10.7-9.23,8-1.85,14.89-4.73,20.54-9.91,2-1.82,2.76-.56,3.77.94a64.55,64.55,0,0,0,9.49,11.52C3920,435.33,3919.36,436.85,3917.11,437.77Zm10.3-15.08c-0.84,2.3-1.75,4.58-3.06,8l-9.48-16.38c4.56,1.81,7.36,3.86,10.74,4.57C3927.62,419.28,3928.08,420.84,3927.41,422.68Zm1-7.85c-1.15,1.34-2.72.73-4.09,0l-0.43-.25c-10.46-5.42-10.46-5.42-3.61-20.24a61.12,61.12,0,0,0,7.47,16.9C3928.48,412.35,3929.4,413.66,3928.39,414.83Zm1.2-7.58c-6.52-11.16-6.4-12.43,1-14.06Zm1.18-27c0.18,5.34-3.33,3-5.65,3.37-3.2.55-3.5-1.07-3.21-3.73,1.3-12.13.72-24.3,0.64-36.46,0-1.78-.52-3.62.89-6.31,4.08,5.88,7.53,11.25,7.47,18.14C3930.81,363.64,3930.48,372,3930.77,380.3ZM3922,323.85v-8.2C3927,319.22,3927,319.42,3922,323.85Zm9,16.27a8,8,0,0,1-1,.15,21.78,21.78,0,0,0-2.59-3.67c-3.84-3.72-3.34-7.6-.82-11.73,3.9-6.37,4-7.1-1.11-12.25a11.88,11.88,0,0,1-3.8-9.7c0.39-8.44-.8-6.14,7.21-5.23,1.5,0.17,2.14.81,2.14,2.17v40.26Z" transform="translate(-3373.07 -102.97)"/>
  <path class="logo-tho__shadow" d="M4239.92,442.58c-2.92-8.69-6.93-16.93-10.58-25.32-5.32-12.22-13.72-23-18-35.58-4.81-14-9.9-27.85-17.83-40.5-3.26-5.19-2.62-10.31,1.3-15.25,5-6.33,9.75-12.9,12.64-20.6a267.27,267.27,0,0,1,26.37-51.92c5.12-7.86,3.57-15.85-2.08-23.16-2.75-3.55-6.8-5.93-8.84-10.1-0.58-1.18-1.33-2.53-3-2s-0.83,1.76-.47,2.82a0.91,0.91,0,0,1-.94,1.33c-4.24-.52-3.58,1.48-2.17,4,1,1.71.07,3.28-.68,4.73-2.66,5.18-5,10.61-8.2,15.41A142.76,142.76,0,0,0,4189,284c-1.69,5.42-4.59,10.33-7.12,15.38-1.34,2.67-2.11,5.64-3.62,8.2-4.83,8.22-2.07,16,1.12,23.75,2.08,5.08,4,10.24,6.44,15.15,9.43,19.11,18.61,38.33,26.42,58.18,2.85,7.25,5.6,14.54,8.63,22.43-11.49.81-22.12,1-32.65-1.35-1.44-.32-3.31-1-4.18.36-1.17,1.79.71,3,1.83,4.14,5.33,5.5,10.7,11,16,16.47,2.39,2.46,5.14,4.42,8.61,4.62,7.64,0.43,15.31.88,23,.76C4240.2,452,4242.05,448.92,4239.92,442.58Zm-11.87-186.93L4226.57,245C4230.78,247.91,4232.42,251.2,4228.05,255.66Zm-35.65,67.66-3.68,5.84c-2-1.86-2.77-3.91-3.81-6.26,2.56,0,4.7,2,7,.5-0.61-3.37-4.11-4.63-5.2-6.87,3.23-4.17,7-6.68,12.7-4.39C4197.69,316.28,4195,319.75,4192.41,323.32Zm22.88-82.52,1.55,20.56C4208.09,250.89,4208.09,250.89,4215.29,240.8Zm-32.36,63.69c0.54-1.51,1.69-2.8,2.5-4.22a106.76,106.76,0,0,0,10-23.26,61.64,61.64,0,0,1,10.73-21.37c1.81,4.85,3.31,9.07,5,13.22,0.58,1.43.76,3.86,2.87,3.53,3-.47.42-3.05,1.2-4.6,3.35,1.89,3.08,4,1.54,7.26-4.27,9-8.16,18.17-11.93,27.39-1.72,4.19-4,6.43-8.9,5.81a47.91,47.91,0,0,0-10.46.12C4181.8,308.71,4182.16,306.62,4182.92,304.49Zm-0.56,22.29c7.74,16.88,18.92,32.2,22.92,50.79C4197.23,360.83,4187.54,344.83,4182.36,326.78Zm38.82,104.58c2.42,0.19,3.42,1.24,3.4,3.26,0,2.55-2.37,2.79-4,2.48-5.67-1.09-11.41-2.07-16.62-5.17A88.64,88.64,0,0,1,4221.18,431.36Zm-19.53,10-7.51-7.39,0.71-.72,7.89,7h0c1,0.5,2.08,1,3.14,1.51s2.24,1.13,3.26.23c1.28-1.14-.09-2.24-0.62-3.93,7.21,2.34,15.94.33,19.81,10.27C4218.76,447.25,4208.57,451.22,4201.65,441.4Zm33.5,6.64c1.28-3.79-1.08-5.72-3.32-7.89-3.65-3.53-4.86-8.62-6.9-13-5.18-11.07-9.05-22.75-12.56-34.64,3.58,6.6,7.43,13.08,10.68,19.84,4.47,9.29,8.53,18.77,12.66,28.21C4236.77,443,4237.56,445.63,4235.15,448Z" transform="translate(-3373.07 -102.97)"/>
  <path class="logo-tho__shadow" d="M3522.77,488.27c3.79-1.44,4.89-3.32,5.64-6.79,1.48-6.79.44-13.79,2.83-20.61,1.56-4.44-3.89-8.48-8.86-7.26-4,1-8,2.25-11.93,3.62-23.73,8.29-47.06,17.66-70.26,27.3-19.51,8.11-38.77,16.83-58,25.49-7.38,3.32-10.17,7.31-8.69,13.91,1.64,7.32,4.14,14.22,12.48,17.62,39,15.87,77.9,31.9,117.27,46.81,7.15,2.71,14.08,6,21.5,8,3.63,1,5.36.17,4.92-4-0.72-6.79-1-13.62-1.75-20.41-0.54-5-4-7.42-9-7.95-3.86-.41-7.95-1.22-10.86-4.4-0.79-.86-1.53-2.29-2.66-2.07-7.65,1.47-13.3-3.36-19.31-6.37-18.05-9-36.14-17.77-56.15-21.72A26.46,26.46,0,0,1,3418.1,524c1.31-.48,1.92-0.73,2.55-0.92C3455.15,512.8,3489.12,501,3522.77,488.27Zm-18.65-25a147.47,147.47,0,0,1,17.42-5.93,28.39,28.39,0,0,1,3.23-.32l-6.06,10.19c-1.65-1-.32-3.4-2.32-3.63s-2.43,1.55-3.22,2.7c-1.88,2.71-3.59,5.54-5.65,8.77-1.66-2.31-.9-4.53-1.25-6.5-0.2-1.12,0-2.55-1.3-3-1.62-.54-2.39.82-3,2-2.35,4.16-4.64,8.36-7.4,13.35a15,15,0,0,1-.65-2C3493.24,467.38,3493.26,467.42,3504.12,463.3Zm18.77,126.17c0.24-5.43.53-10.85,0.8-16.28,2.11,5.31,2.15,10.73,2.06,16.16,0,1.13.89,3-1.3,3S3522.83,590.71,3522.89,589.47Zm-23.48-26.8a2.63,2.63,0,0,1-1.25,1.75c-2.06-.66-2.33-2.83-3.31-4.5C3496.69,560.51,3499.11,560.21,3499.41,562.67Zm-87.13-37.32a92,92,0,0,0,24.54,9.34c17.42,3.84,33,12.32,48.61,20.44,4,2.06,5.71,6.74,8.45,10.23,4.06,5.2,4.6,5.32,8.22-.2,2.17-3.31,4.32-1.27,5.56.32,2.79,3.56,5,7.19,10.46,4,1.69-1,1.66,1.06,1.66,2.07,0,5.49,0,11-.19,16.48-0.15,4.11-2.77,1.73-4.19,1.19-14-5.3-28-10.58-41.92-16.14-28.11-11.23-56.06-22.86-84.28-33.81-7.48-2.9-10.07-8.71-12.21-15.13-1.37-4.11,1-7.38,4.31-9.82,4.5-3.29,9.88-4.72,14.88-7,29.47-13.19,59.2-25.76,89.4-37.18,1.22-.46,2.47-0.83,4-1.33,0.48,4.32-.52,8.14-1.17,11.93-1.42.4-1.55-.49-1.65-1.3-0.12-1-.22-2-1.62-2-1.78.07-1.56,1.5-1.56,2.56,0,4.16.11,8.32,0.14,12.49a2.5,2.5,0,0,0,1.38,2.45,1.9,1.9,0,0,0,2.65-1.55c0.71-4.72,7-2.81,8.24-7.41,1.06-3.81,3.83-7.15,6-11.05,1.41,2.41.78,4.45,1.13,6.34,0.21,1.12.12,2.48,1.61,2.77s2-1,2.62-1.92a93.56,93.56,0,0,1,6.75-9.82c-0.1,5-1.06,9.73-.92,14.6,0.06,2-2.76,2-4.38,2.64q-45.75,17.41-92.76,31c-1.27.37-2.56,0.72-3.79,1.21a1.92,1.92,0,0,0-1.51,1.77C3410.78,524.63,3411.51,524.93,3412.28,525.36Z" transform="translate(-3373.07 -102.97)"/>
  <path class="logo-tho__shadow" d="M4159.4,631.79c-1.42-6.73-4.88-11.9-11.67-14.35-7.83-2.82-15.78-3.95-24-2.19-8.94,1.91-13.55,6.39-14.28,15.48-1.28,16-.29,32-0.52,48-0.34,23.48-.13,47-1.2,70.44-0.23,4.93.65,10-2.24,14.56a3.49,3.49,0,0,0,.22,4.25c1.84,1.84,1.37,3.93,1.36,6.06,0,5.83,0,11.66,0,17.48-0.4,8.14-1.85,16.28-.52,24.44,0.6,3.68,1.49,7.22,4,10,2.81,3.09,6.51,4.4,10.42,3,3.63-1.3,2.7-4.93,2.7-7.83q0-63.71-.09-127.41c0-4.16.65-7,4.79-9.16,4.5-2.33,4.26-5.51-.48-7.28s-4.61-5.79-2.89-7.89c2.83-3.44,5.69-5.69.75-9.36-0.3-.22,0-1.28.07-1.93a49.32,49.32,0,0,1,5.93-17.37,12.84,12.84,0,0,1,9.4-6.16,39,39,0,0,1,14.37.36C4158,635.57,4160.06,634.93,4159.4,631.79ZM4118.78,825.3c-2.14,1-3.81-.47-5.27-1.87a12.33,12.33,0,0,1-3.79-9.45c0.31-16.94.47-33.89,1.25-50.81,0.25-5.42,6-8.55,7.35-13.86l1.57,0.37q0,17.37,0,34.74c0,12.13,0,24.26,0,36.39C4119.86,822.35,4120.68,824.42,4118.78,825.3Zm-0.44-139.56-4.72,2.59q0,1,0,2.07c0.89,0.88,2.88.9,1.38,3.06-0.88,1.27-1,2.43-1.48,4.43h0c-1.14,6-.73,12.32-1,18.39,0.17,4.08,1.14,8.12,3.82,11.22,3.09,3.56,3.56,7.42,2.3,11.67a50.33,50.33,0,0,1-6.66,14.3v-37c0-9.6-.69-19.22.32-28.8-0.35-.65.14-1.63,0.19-2.42a34,34,0,0,1,.19-4.42c0.3-1.75-1.16-4.73,1.19-5,2-.21,5.4.42,6.24,2.92C4120.89,681,4121.39,684.07,4118.35,685.74Zm0.65,8.43v30.2C4115,718.18,4115,702.46,4119,694.16Zm1.36-20.95c-2.18,1.47-3.61-1.16-5.67-1.68,1.84-1.14,3.55-2.93,5.6-1.46A2.35,2.35,0,0,1,4120.36,673.22Zm-5.71-6.13c-3.06.66-1.48-2.37-2.09-3.7,0.6-1.12-.94-3.66,1.69-3.14s6.61,0.95,6.73,3.82C4121.14,667.38,4116.91,666.6,4114.66,667.09Zm13.84-28c-2.29.52-2.63-1.73-4.86-3.73,3,0.49,5-.22,6,1.77A2.35,2.35,0,0,1,4128.5,639.12Zm9.68-14.82a27.38,27.38,0,0,1-8.4-5.6c3.14-1,6-1,8.24.31C4139.46,619.85,4138.76,622.19,4138.17,624.29Zm16.36,4.91c-0.8,2.8-3.73.88-5.68,1.13-4.15.54-7.68,0.06-6.18-5,0-6.39.36-6.62,5.35-4.13a16.72,16.72,0,0,1,3,1.81C4153,624.65,4155.27,626.64,4154.53,629.2Z" transform="translate(-3373.07 -102.97)"/>
  <path class="logo-tho__shadow" d="M3800.74,303.33c-1.61-1.69-3.23-3.37-4.88-5-2.84-2.82-4.32-5.62-3.12-10.11,2.81-10.45,4.65-21.13,3.92-31.51,0.24-7.91.1-15.23-2.15-22.31-1.46-4.62-4.14-8.32-8.79-10.31-3.35-1.43-5.5-.83-5.92,3.16-0.35,3.31-.75,6.61-1.12,9.92-2.85,25.3-5.6,50.61-8.58,75.9-2.71,23-5.69,45.92-8.5,68.89-1.5,12.23-2.85,24.47-4.35,36.7-0.6,4.89-2.89,7.54-8.41,7.9-8.49.55-17,.89-25.47,0.84-1.73,0-3.35,0-4,2.14-0.66,2.29,1.09,2.81,2.47,3.68,3.38,2.13,7.07,3.92,10,6.55,4.71,4.22,10.14,5.54,16.12,5.34,6.32-.21,12.65-0.54,19-1.06,3.27-.27,8.3.7,5.55-5.73-0.27-.63.24-1.62,0.44-2.42,5.17-20.6,7-41.66,8.75-62.74,1.7-20.57,2.06-41.27,5.78-61.65,1.83-10,1.84-10.05,11.18-5.31,0.91,0.46,1.79,1.15,2.66.15C3802.39,305.17,3801.56,304.2,3800.74,303.33Zm-57.93,134c-5.24-.91-10.12-3-15.05-4.85l0-1.32,21.73-1C3750.1,436.89,3748.71,438.36,3742.8,437.33ZM3793,243.6l-1.14.63c-2.75-4.06-5.47-8.13-6.27-13.16Zm-12.44,9.72c0.17-1.93.27-3.87,0.46-6.71,2.57,2.21,2.52,4.5,3.25,6.42,0.44,1.14.61,2.35-1.24,2.4C3781.6,255.47,3780.42,255.23,3780.58,253.31Zm0.86,70.09c-1.33-2.31-1.83-4.53.76-7.09A9.44,9.44,0,0,1,3781.44,323.4Zm5.61-27.08c-1.5,1.69-2.6-.29-3.83-0.82s-2.07-2.79-3.74-1.5-0.59,3-.14,4.61c0.73,2.56,1.39,5.14,2,7.72s0.49,4.89-2,7.1c-4.3,3.88-3.67,11,1.08,14.5,1.34,1,1,1.94,1,3-2.61,33.32-3.37,66.84-10.78,99.63-0.58,2.57-1.3,5.12-2.16,8.46-2.85-5.16-3.68-10.7-8.49-13.72-0.45-.28-0.19-1.88-0.07-2.84,3.57-28.37,7.2-56.74,10.73-85.11,2.44-19.64,4.75-39.29,7.12-58.93q0.44-1.26,1.12-.11c2.59,4.64,5.13,9.31,7.79,13.91C3787.56,293.59,3788.19,295,3787.05,296.32Zm4.51-18.93-1,0c0.85-4.31-2.25-7.45-3.35-11.19-0.59-2-1.51-3.93-2.42-6.22C3790.24,262.46,3793.29,270.82,3791.57,277.4Z" transform="translate(-3373.07 -102.97)"/>
  <path class="logo-tho__shadow" d="M4083.83,264.86a1.41,1.41,0,0,0,.76-2.08c-2.12-2.23-.64-5.46-2.36-7.73-4.88-6.44-7.17-14.22-11-21.22a39.53,39.53,0,0,0-9.85-12.46c-3.18-2.54-6.6-4.31-10.92-4.18-3.41.1-3.82,1.5-2.3,4,2.25,3.69,4.27,7.65,7.14,10.8,4.89,5.37,6.68,11.72,7.43,18.59,2.94,26.75,2,53.54.72,80.32a27.22,27.22,0,0,1-3.71,13.35c-2.38,3.81-7,4.55-10.3,7.3-4.58,3.82-5.91,4.42-3.41,9.95a125.69,125.69,0,0,1,7.8,23.65c2.84,12.29,4.08,25,8.9,36.78,1.53,3.74.67,5-3.15,5.35-9.3.94-18.59,1.56-27.92,0.63-1.13-.11-2.44-0.52-3.12.83s0.25,2.18,1.33,2.76c12.62,6.9,25.43,13.23,40.25,13.6,9.53,0,11.68-2.23,10.42-11.66-1.21-9.06-2.53-18.14-5.46-26.86-3.17-9.46-6.3-18.94-9.6-28.36-1.61-4.6-.57-7.71,3.64-10.55,9.27-6.27,14.12-15.34,14.71-26.51,1.22-23.17-.23-46.25-2.64-69.29C4081,269.15,4079.19,265.85,4083.83,264.86Zm-8.07-4.49c-0.53,1-1.41.32-2.16,0.2-6.79-1-7.23-1.63-6.56-9.88,3.12,2.85,5.66,5.12,8.13,7.46A1.87,1.87,0,0,1,4075.75,260.37Zm-2.53-10.56c-3.32-2.18-7.29-3.66-8.14-8.36C4068.55,243.52,4071.85,245.7,4073.23,249.81Zm-20.73-27.92c6.71,0.09,14.44,8.24,16.68,17C4060.9,235.72,4059.6,226,4052.5,221.89Zm13.64,168.83c5.4,14.22,9.46,28.74,10.84,44,0.41,4.57-1.36,6.54-5.74,6.7-11.33.42-21.33-3.7-31-9.05,8.49-.7,16.82-0.86,25-2.55,2-.42,4.28-0.76,2.85-3.76-5.58-11.73-7.39-24.47-9.9-37a147.78,147.78,0,0,0-7.85-26.77,16.35,16.35,0,0,1-1.18-3.79c-0.28-2,1.15-2.9,2.77-3.63,1.87-.85,2.82.08,3.49,1.62,2.4,5.53,6.12,10.32,5.76,17.13C4060.91,379.48,4064,385.12,4066.14,390.72Zm14.49-51.6a31.12,31.12,0,0,1-12.43,25c-2.43,1.91-4,2.41-5.34-1.28s-3.29-7-5.36-11.33c4.4,0.92,7.9,1.71,11.43,2.37,1.48,0.27,3.19.37,4.12-1.05,1.14-1.75-.79-2.62-1.55-3.75-1-1.5-2.24-2.86-3.39-4.3,1.28-1.79,3.25-1.77,4.94-2.28,1.13-.34,2.63-0.41,2.47-1.89-0.2-1.87-2-1.52-3.18-1.36-2.12.3-4.2,0.95-6.75,1.56,3.41-22.8,2-45.54,2.25-69,2.07,2.2,3.61,4,5.35,5.59,0.8,0.72,2.07,1.48,3,.15s0.14-2.11-.93-2.86c-3.91-2.74-4.69-7.45-7.63-11.21,8.47-.19,9.18.65,10.06,8.32A516.94,516.94,0,0,1,4080.63,339.12Z" transform="translate(-3373.07 -102.97)"/>
  <path class="logo-tho__shadow" d="M4116.54,135.07c-14,.77-27.93,2-41.89,2-8.73,0-17.66,3.73-26.29-.69a1.77,1.77,0,0,0-1.41.33c-4.91,3.41-10.63,1.92-16,2.78-8.13,1.32-16.21-2.64-24.48.82-5.7,2.39-6.88,3.37-4.41,9.32a66.69,66.69,0,0,0,8.34,14.15,18.88,18.88,0,0,0,13.31,8c3.48,0.4,6.79.83,9.69,3.27,1.81,1.53,4.41,2.28,3.64-1.92-0.46-2.51,1.48-2.26,2.74-2.53a175.66,175.66,0,0,1,28.21-3.29c14.62-.65,29.29-0.63,43.83-2.69,14.3-2,14.3-2,14.86-16.46q0.09-1.5.18-3C4127.5,135.79,4126.16,134.53,4116.54,135.07Zm-64.45,8.24c1.61-3.09,4.51-1.25,6.83-1.75,1.23,5.57-3.6,2.66-5.38,3.95C4052.36,146.37,4051.82,143.84,4052.09,143.31Zm-12.48,1.26c-1.58,4.56-2,9.32-2.3,14.81-3.34-2.33-4.6-5-4.41-8.14,0.33-5.46,0-6-5.42-5.59-1.82.12-3.68,0.53-5.36-2,5.34-.39,10.1-0.79,14.86-1.05C4038.26,142.52,4040.55,141.89,4039.62,144.57Zm3.93,0.11c0.64-1.17,1.37-2.3,3-2.26,1.84,0,1.85,1.53,2.26,2.76,1.9,5.72.25,8.83-7.9,14C4040.85,153.78,4041.17,149,4043.55,144.68Zm58.8,16.64c-1.22,2.72-6.6,1.22-10.12,1.45-15.4,1-30.87.91-46.22,2.85-0.86.11-2.15,0.86-2.39-.68-0.16-1.05-.46-2.24.55-3.26,2.19-2.21,4.28-4.54,6.92-7.37,0.92,3.09,1.49,5.13,2.14,7.15,0.3,0.94.63,1.86,2,1.89a2,2,0,0,0,2.08-1.77c0.94-4.56,4.8-7,7.3-10.45,1.51-2.07,2.88-2.72,4.29,0a2.23,2.23,0,0,0,.31.39c9.67,11.39,10.86,11.42,20.66.54,3.91-4.35,4-4.41,7.15.35C4099,155.44,4103.53,158.69,4102.35,161.32Zm20.91-6.84c-0.5,3.25-2.08,5.49-5.61,5.91-2.43.29-4.84,0.67-8.62,1.2a48.35,48.35,0,0,1,11.47-9.26c0.67-.41,1.43-1.11,2.24-0.56C4123.72,152.44,4123.4,153.54,4123.26,154.48Zm-3.57-5.57a37.08,37.08,0,0,0-9.73,6.88c-3.26,3.17-5,2.25-7-1.07s-4.4-6.26-6.55-9.41c-1.65-2.41-3.25-2.51-5.11-.23-2.32,2.83-4.73,5.58-7.07,8.4-2.5,3-5.09,3.54-7.91.43-1.56-1.72-3.22-3.36-4.67-5.18-4.37-5.48-4.34-5.51-9.58-.85-0.63-5.45,1.86-6.74,6.6-6.92,16.12-.61,32.22-1.69,48.33-2.56,2.62-.14,5.65-0.79,6.41,2.94C4124,144.69,4123.33,147.18,4119.69,148.91Z" transform="translate(-3373.07 -102.97)"/>
  <path class="logo-tho__shadow" d="M3826.5,500.3c-1-12.34-7.82-21.65-15.78-30.35-0.73-.8-2-2.13-2.94-1.07-3.92,4.37-9.28,3-13.94,3.36-30.32,2.6-60.67,4.82-91,7.19-4.39.34-6.76,2.6-6.16,7.22,0.62,4.77,1.28,9.55,2.08,14.29,1.19,7,2.75,8.29,10,7.9,9.47-.5,18.93-1.17,28.39-1.68,8.06-.43,16.34.24,24.14-0.54,9-.9,18.09-1.63,27.12-2,5-.21,10.65-2.68,15.37,1.59a1.57,1.57,0,0,0,1.36-.32c5.2-4.8,12.1-.72,17.18-3.6C3824.85,503.09,3826.81,504,3826.5,500.3Zm-80.9,1.21c-0.78,3-3.51.43-4.89,1.7L3709.79,505c-5.92.34-7.31-.87-8-6.84-0.25-2.14-.53-4.29-0.88-6.42-1.13-6.95-.08-8.36,7.12-9.11,1.8-.19,3.63,0,5.74,0-0.76,4-3.74,6.64-5.38,10-0.58,1.18-1.73,2.56-.34,3.56,1.76,1.27,2.6-.45,3.4-1.72,1.77-2.82,3.67-5.57,5.26-8.5,1.47-2.7,2.71-3.45,5-.69,3.7,4.48,7.86,8.56,10.78,13.7,1.45,2.55,3.33,4.26,6.42,1.13,1.64-1.66,4.4-2.2,7.08-3.45Zm5.62-4.69c-0.61-2.27.63-3.85,1.84-5.77C3755.27,494,3756.48,496.25,3751.22,496.82ZM3790,500c-0.91,2.05-4.51,1.17-6.94,1.24-4.9.15-9.8,0-16,0,4.71-4,8.44-7.45,12.52-10.47,3.11-2.3,5.56-.68,7.31,2.33C3788.17,495.37,3791,497.78,3790,500Zm2.78-4.15c-2.42-3.48-4-5.77-5.61-8.11-2.34-3.48-5.46-4.31-8.29-1.23-5,5.5-12.58,4-18.37,7.26-1.45.81-2.09-.47-2.61-1.51-1.05-2.08-2-4.2-3-6.3-2.74-5.72-3.09-5.84-7.91-1.42-3.19,2.92-6.22,6-9.24,9.12-1.77,1.82-3.05,2-4.72-.28-2.84-3.83-6-7.43-9.81-12.08l77.54-6C3798.16,482.24,3794.64,488,3792.79,495.83Zm25.81,2.31c-0.57,1.18-2.71,1.09-3.49-.1-1.5-2.29-1.57-4.67,1.4-6.48C3817.64,493.67,3819.88,495.52,3818.6,498.14Z" transform="translate(-3373.07 -102.97)"/>
  <path class="logo-tho__shadow" d="M3919.39,753.46a18.55,18.55,0,0,0-8.36-1c-5.82.33-11.65,1.08-17.44,0.84-7.06-.29-12,3.88-17.49,7.07a1.55,1.55,0,0,0-.08,2.58c5.21,2.68,2.45,7.66,3.66,11.45,1.28,4-4.81,5.2-3,7.29a11.78,11.78,0,0,1,2.9,8.47q-0.06,46.71,0,93.42c0,7.85-.77,8.75-8.75,9.42-14.17,1.18-28.28-.24-42.4-1-1.52-.08-3.86-1-4,1.45s2.32,2,3.84,1.91c4.72-.43,7.81,1.79,10.41,5.45,3.62,5.09,8.48,8.65,14.81,9.22a198.18,198.18,0,0,0,37.4.27,5.73,5.73,0,0,0,5.48-5.54,61,61,0,0,0,.32-6.47q0-29,0-57.94c0.37-22.45-2.69-44.93.13-67.43,0.6-4.76,2-5.2,5.3-5.27a60.85,60.85,0,0,1,8,.57,19.39,19.39,0,0,0,9.35-1c3-1.16,5.2-3.13,5.22-6.6S3922.57,754.79,3919.39,753.46Zm-35.63,14.59a6.88,6.88,0,0,1,7.48,3.92c-3.5,1.46-9.22,1.44-5.05,8.41-4.68-1.18-3.29-4.2-3.27-6.23S3881.43,768.5,3883.75,768.05Zm8,17.76a2.38,2.38,0,0,1-.32,1.79c-2.63.32-3.71-2-5.29-3.5C3888.14,784.66,3890.75,783.13,3891.79,785.81ZM3841,896.33c3.93,3.75,8.82,6,13.68,9.23C3848.88,906.32,3845,903.78,3841,896.33Zm31.93,8.51c-1.38-1.24-4.13-1-6.25-1.37a61,61,0,0,1-17.59-6c5.74-1.47,11.59-.9,20.8,2.07,6.77,2.18,13.89,3.24,20.24,7.07C3884.42,906.4,3878.47,909.8,3873,904.84Zm19.71-4.51c-7-7.21-9.64-15.55-9.72-24.47-0.27-28.12-.11-56.24-0.09-84.35,0-1.12-.51-2.61.54-3.26,1.37-.86,2.36.68,3.49,1.23,3.87,1.89,5.18,4.89,5.18,9.27,0.06,29.78.37,59.56,0.59,89.34C3892.7,891.87,3892.68,895.66,3892.68,900.33ZM3917,764.51c-3.17.83-6.25,0.1-9.38-.08-6.45-.38-13.85,2-16.82-6.85,6.82-.47,14.23-1,21.64-1.46a22.88,22.88,0,0,1,4.45.27,3.88,3.88,0,0,1,3.59,4.06C3920.56,762.85,3919.2,763.92,3917,764.51Z" transform="translate(-3373.07 -102.97)"/>
  <path class="logo-tho__shadow" d="M4083,472.64c-14.81.16-29.62,0.34-44.43,0.66-3,.06-5.26-0.13-5.58-3.76-0.09-.95-0.4-2.06-1.75-2a1.77,1.77,0,0,0-1.72,1.55c-0.5,4.79-3.9,4.45-7.29,4.31a29.27,29.27,0,0,0-7,.05c-7.51,1.53-15.07-2.61-22.59.47-2.08.85-4,0-5-2.67s-2.93-2.84-3.95.11c-0.77,2.24-2,2.93-4.3,3.17-2.86.3-5.85,2.1-5.47,5.14a68,68,0,0,0,2.93,13.6c2,5.92,5.75,8.9,12.05,9.07,12,0.33,23.86,1.65,35.91,1.36,18.81-.46,37.56-1.31,56.29-3.23,12.76-1.31,12.94-1.18,12.88-13.84,0-.83,0-1.66,0-2.49C4094.42,473.68,4093.37,472.52,4083,472.64Zm-87.9,26.21a5.82,5.82,0,0,1-3.29-.12c-1.25-.27-1.26-1.28-1-2.33,0.41-1.67.79-3.34,1.22-5.19,2,1.35,2.15,3.44,3,5.12C3995.48,497.17,3996.26,498.32,3995.11,498.84Zm20.6-11.86c-4.11-2.23-7.6-4.55-9.7-9.27C4016.35,476.83,4016.35,476.83,4015.71,487Zm-4.5,12c-2.84,1.31-5.83.4-8.76,0.35-2.27,0-1.91-1.87-1.87-3.32,0.13-4.6.34-9.2,2.32-14,4,4.67,5.92,10,8.15,15.11A2.79,2.79,0,0,1,4011.21,499Zm3.81-4.15,6,4.69C4016.1,500.34,4015.26,498,4015,494.81Zm8-.82c-0.44.69-.76,1.6-1.79,1.1s-2.2-.88-2.12-2.36c0-.14.21-0.28,0.22-0.42,0.2-3.7.39-7.41,0.62-11.76C4025.38,484.72,4026.19,489,4023,494Zm0.2-16.45c3.92-.68,3.92-0.68,2.83,3.08C4024.75,479.91,4023.57,479.13,4023.22,477.53Zm17.71,21.76c-4,1.59-8.17.72-12.26,0.85-2.22.07-2.36-1.73-1.85-3.15,0.67-1.87-.55-5,2.57-5.37,3.68-.49,4-0.56,1.88-3.57-2.23-3.17-1.92-6.05,0-9.58,1.92,6.25,3.81,12.08,6.73,17.47,0.68,1.26.71,3.59,3,3.35l0.46-.19,0.08,0.09A4,4,0,0,1,4040.93,499.3Zm12.74-.08c-4,.09-8.1,1.1-12.14-0.07l0,0.06-0.08-.09,0.13,0c2.58-3.51,3.54-8.13,7.41-11.19l4.93,10h0c3.49,1.37,4.58-1.87,6.31-3.51,5-4.75,4.93-4.84,8.82.89,0.45,0.67,1,1.26,2.3,2.8Zm36.71-7.27c-0.15,2.69-1.84,4.14-4.56,4.38-2.14.2-4.28,0.47-7.14,0.8l7.87-10.27c0.68-.89,1.89-1.89.74-3s-2.52-.38-3.4.75c-1.83,2.36-3.38,5-5.41,7.15-3.22,3.45-5.36,3.12-7.79-.76-3.68-5.88-6.17-6.17-11.23-1.32-4.14,4-4,3.92-6.28-1.18-0.94-2.12-.46-5.79-3.47-5.92-2.79-.12-4,3.16-5.6,5.19-1.12,1.4-2,3-3.48,5.05-2.74-4.56-3.93-8.86-5.29-13.11-0.71-2.22-.06-3.1,2.2-3.11q24.45-.1,48.9-0.24c2.82,0,3.93,1.76,4,4.1C4090.64,484.3,4090.58,488.14,4090.38,491.95Z" transform="translate(-3373.07 -102.97)"/>
  <path class="logo-tho__shadow" d="M3808.36,144.24c-6.49-.65-14,2.69-19-4.79-0.84-1.28-3.06-.85-4.75-0.53a42.67,42.67,0,0,0-11.26,4c-1.48.75-2.92,1.58-4.69,1.48-10.4-.59-20.81-1.09-31.2-1.73-11-.68-21.9-1.68-32.87-2.17-5.41-.24-10.66.94-14.6,5.19-0.84.9-2.22,2.08-.76,3.35,1,0.86,2.11.21,3-.75,4.17-4.47,9.72-5.18,15.23-4.55,17.37,2,34.83,2.51,53.23,4-1.76,2.54-3,4.43-4.36,6.3-4.85,6.86-5,6.93-9.27-.32-1.92-3.24-3.36-2.48-5.14-.15s-3.43,4.5-5.11,6.78c-2.19,3-4.7,3.35-7.72,1.17-3.78-2.73-7.59-5.41-11.45-8-3.08-2.08-6.77-2.37-9.16.29-4.87,5.43-9.15,4.22-13.77.06a6.64,6.64,0,0,0-2.18-1.18c-1.25-.45-2.36-0.19-2.82,1.2-1.5,4.5-2.45,9.15-.19,13.58,2.09,4.08,6.27,3.86,10.1,3.89,5,0,10-.09,15,0,24.31,0.28,48.62-.28,72.92,1,4.84,0.26,10-.14,13.88-2.93,6.39-4.58,10-11.47,12.13-18.95C3814.91,145.73,3813.52,144.76,3808.36,144.24Zm-89.94,23.35c-7.14-.05-14.29,0-21.43-0.25-4.22-.12-6.93-5-5-8.72a1.47,1.47,0,0,1,2.39-.7,33.46,33.46,0,0,1,4.2,2.67c2.6,2.17,4.69,2,7.42-.17,6.69-5.41,8.45-5.27,15.25-.17,2.86,2.15,5.71,4.33,9.68,7.34C3725.87,167.59,3722.14,167.62,3718.42,167.59Zm55.81,0.07a6.72,6.72,0,0,1-1.18.08c-12.31.72-24.69,0.3-37.81,0.1,2.07-2.45,3.45-4.06,4.8-5.7s2.67-3.36,4.29-5.4c1.78,2.73,3.38,5.21,5,7.66,0.79,1.17,2,2.4,3.19,1,4.27-5,11.64-5.3,15.4-11.09,2.38,3.22,4.06,5.82,3.45,9.85-0.43,2.85.42,3.55,1.68,3.61l1.18-.08a9.58,9.58,0,0,1,3-.2C3776.25,167.53,3775.24,167.59,3774.23,167.66Zm2.6-5.38a10.08,10.08,0,0,1,1.8-5.57C3781.33,160,3781.33,160,3776.83,162.28Zm12.29-11.55c-0.31,3-2,6.34-4.65,6.13-3-.24-3.62-4.54-4.14-7.07-0.59-2.88,2.72-1.7,4.35-2.07C3786.74,148,3789.48,147.16,3789.12,150.73Z" transform="translate(-3373.07 -102.97)"/>
  <path class="logo-tho__shadow" d="M3691.74,332.25c-0.67-1.28-1.21-3-3.1-2.78-1.6.16-1.88,1.74-2.42,2.9a40,40,0,0,0-3.53,11.41c-1.32,9.18-2.06,18.42-2.68,27.68-1.1,16.53-7.32,31.67-13.28,46.86-1.12,2.85-2.34,5.09-6.14,3.24-1.19-.58-4.32-0.43-2.26,2.22,3.18,4.08-.55,3.3-2,3.38-4.48.26-9.31,0.09-13.31,0.09v0.14c-4,0-7.18-.13-10.67,0-2.16.11-5.32-1.2-6.22,1.7-0.73,2.37,2.38,2.71,3.67,4.09a13.26,13.26,0,0,1,1.4,1.38c4.63,6.82,11.61,8.91,19.28,10s15.64,0.41,23.27,2.65c3.28,1,5.69-.76,7.22-3.88,2.07-4.23,3-8.83,4.24-13.29,5-17.37,12.36-34.05,15-52.12C3702.55,361.72,3699.24,346.61,3691.74,332.25Zm-6.84,23.59c2.64,1.59,3.5,3.53,3.53,5.67,0,1-1.29.69-2,.41C3683.5,360.73,3684.91,358.41,3684.9,355.84Zm-1.08,18.8a91.84,91.84,0,0,1,8.53,14.35c-4.69-1.29-8.36-.34-12.24,3.17Zm-40.13,61.71c-0.6,1.28-1.64.84-2.51,0.27-2.64-1.71-5.24-3.46-9-6,4.59,0,7.71,0,10.84,0,1,0,2.5-.08,2.4,1.08A14.52,14.52,0,0,1,3643.69,436.35Zm16.09,5.5c-3.26-.33-6.54-0.53-9.77-1.07-1.12-.19-3,0.29-3.26-1.42a5.91,5.91,0,0,1,2-4.89c1.24-1.14,2.33.49,3.33,1.13,2.74,1.75,5.39,3.63,8.08,5.45Zm16-.37c-0.47,1.51-2,.78-3,0.88a8.45,8.45,0,0,1-5.69-1.23c-4.15-2.73-8.37-5.35-12.55-8a26.29,26.29,0,0,1-2.1-1.79c4-1,7.35-.44,10.45-1.7,1.48-.6,2.49.51,3.45,1.42,2.65,2.5,5.29,5,7.89,7.57C3675,439.38,3676.13,440.21,3675.74,441.48Zm3.91-5c-1,2-1.87.38-2.59-.3-1.32-1.26-2.52-2.63-4.63-4.88l6.25,2.34C3680.14,434.2,3680.23,435.35,3679.65,436.48Zm-2.88-7.33c-0.31-.09-0.59-0.3-0.9-0.42-8.57-3.37-8.61-3.43-5.13-11.71,1.18-2.82,2.46-5.6,4-9.18,3.72,6,6.18,11.44,6.87,17.58C3682.08,429.24,3680,430.07,3676.77,429.16Zm15.6-33.53c-2.47,7.89-5,15.78-7.91,25-2.09-6.29-3.95-10.93-6.8-15.06-2.46-3.56.42-6.21,1.4-10.63,1.06,4.29,2.2,7.12,4.47,9.31,0.92,0.89,1.75,2.36,3.28,1,1.27-1.1.23-2.08-.4-3a26.66,26.66,0,0,1-2.14-3.36c-0.87-1.91-1.07-3.9.63-5.53,2-1.91,4.37-1.28,6.61-.67C3693,393.12,3692.71,394.51,3692.36,395.63Zm2.26-12.73a3.74,3.74,0,0,1-1.17-.52c-3.68-4.5-6.27-9.66-8.77-14.86a1.81,1.81,0,0,1,.54-1.68c1.45-.65,3.53-0.39,4.18.55,2.81,4.08,5.44,8.36,6.83,13.17C3696.45,380.33,3696.46,382.57,3694.63,382.9Z" transform="translate(-3373.07 -102.97)"/>
  <path class="logo-tho__shadow" d="M3873.29,256.34c-4.87-3-10.37-3.59-15.87-3.56-6.58,0-10.43,4.83-9.58,11.25a24.24,24.24,0,0,1,0,3.49c-0.45,33.77-.68,67.55-2.31,101.3,0.16,5-.18,9.94.91,14.87a6.24,6.24,0,0,0,3.93,4.74c7.21,3.08,13.18-.32,14-8,0.16-1.49.28-3,.3-4.48q0.58-43.93,1.1-87.86a48.59,48.59,0,0,1,1.12-10.4c0.72-3.1,1.94-5.8,5.93-5.33,2,0.24,3-1.13,4-2.46C3880.13,265.48,3878.63,259.6,3873.29,256.34ZM3861.78,262c-4,.62-5.7-2.34-8.18-3.39C3858.09,255.08,3858.73,260.15,3861.78,262Zm1.55,15.22c-1.12,4.45-1.14,9.22-1.22,13.86q-0.78,44.66-1.31,89.32c0,3.19-.85,5.24-4.33,5.25-3.24,0-6.53-.07-7.32-4.28a12.56,12.56,0,0,1-.23-3c1.83-32.91,1.49-65.86,2.39-98.79a33.71,33.71,0,0,1,.42-3.37c2.21,0,3.5,1.53,5.2,2.1,1.35,0.45,2.75,1.82,4.11.38s-0.14-2.67-.94-3.84c-0.36-.53-0.7-1.09-1.31-2C3863.51,271.64,3864.43,272.78,3863.32,277.2Z" transform="translate(-3373.07 -102.97)"/>
  <path class="logo-tho__shadow" d="M3909,674.66a14.68,14.68,0,0,0-3.29-3c-3.33-1.92-4.05-5.15-4-8.82,0.21-11.48.08-22.92,0.08-34.92h0c0-11-.11-22.18,0-33.5,0.18-14.95-10.43-22.74-20-31.43a1.73,1.73,0,0,0-2.65,0,1.68,1.68,0,0,0,0,2.32c1.95,2.17,1.15,4.77,1.09,7.2q-0.53,24.71-1.17,49.43c-0.37,14.23-.86,28.47-1.2,42.7-0.17,7.15-.1,14.32-0.17,21.47,0,3.94,1.76,6.2,5.72,6.84,5.34,0.87,10.62,0,15.92-.38,1.87-.15,2.52-1.26,2.47-3s0.18-3.35,0-5c-0.51-4,.78-6,5.15-5.22,1.18,0.2,2.83.68,3.6-.81C3911.35,676.87,3910,675.74,3909,674.66Zm-10.53,14c-4.23-1.67-8.46-1.77-11-5.27,1.46,0.27,2.91.62,4.39,0.78,2.22,0.24,4.25.19,3.23-3.08-0.32-1-1-2.38.91-2.64,1.71-.22,2.47.72,2.48,2.32C3898.48,683.25,3898.46,685.71,3898.46,688.69Zm-0.29-14.87c-0.6,1.44-2,.81-3.06.74a8.94,8.94,0,0,1-4.66-1.46c-1.78-1.22-3.8-1-5.72-.23-0.91.37-1.85,1-1.69,2.15,0.13,0.93,1,1.23,1.84,1.4s1.94,0.42,2.91.66c1.13,0.29,2.58.59,2.39,2-0.28,2-1.8.79-2.71,0.57-2.19-.54-4.14.75-6.76,0.75,1.39-7.47.73-14.89,1.18-23.14,5.68,4.59,10.78,8.63,15.78,12.8A3.17,3.17,0,0,1,3898.17,673.81Zm-1.56-9.4c-5.06-3-9-7.24-13.11-11.3a4.77,4.77,0,0,1-1.55-3.53c0-8.87,0-17.75,0-28.07,4.2,2.92,6.78,4.91,9.55,6.57,1.55,0.93,3,2.84,5.28,1.34,0.15-3.31-2.82-4-4.79-5.09-7-4-10.3-9.07-9.37-17.73,1-9.66.24-19.52,1-29.53,4.66,3.5,8.91,6.77,13.13,10,2.07,1.61,1.77,5.25,1.78,8q0.05,33.41-.12,66.81C3898.38,662.88,3899.45,665.28,3896.62,664.42Z" transform="translate(-3373.07 -102.97)"/>
  <path class="logo-tho__shadow" d="M4011.24,377.33c-0.93-6.6-3.51-12.47-8.66-16.82-5.45-4.61-11.31-2.3-12.28,4.69a38.09,38.09,0,0,0-.18,6.46c0.58,17.13,1.13,34.27,1.86,51.4,0.19,4.46-1.49,5.82-5.86,5.44-8.62-.74-17.27-1.08-25.91-1.49-1.82-.09-4.44-1.51-5.25,1.09-0.75,2.39,2.06,1.9,3.32,2.68a4.46,4.46,0,0,1,1.07,1.62c1.89,3.27,3.88,6.38,7.52,8.08,1.66,0.78,3,2,2.87,4.23a1.48,1.48,0,0,0,2.38,1.43c2.7-1.8,5.12-.38,7.65.17,8.74,1.92,17.49,1.62,26.3.41,3-.42,3.76-1.84,3.88-4.56,0.47-10.31,1.12-20.61,1.75-31.67C4011.44,399.94,4012.82,388.61,4011.24,377.33Zm-16.88-9.13c1.71-.72,3.36,1.07,4.63,2.29,2.16,2.1,2.88,5,4.52,8.24-3.56-.62-6.49-3-9.85.13,0-2,0-4.1,0-6.15C3993.71,371.14,3992.73,368.88,3994.35,368.2Zm5.86,20.06c-3.69,1-6.59,1.75-5.84-3.58C3996.62,385.6,3998.49,386.33,4000.21,388.25Zm-25.51,45a1.25,1.25,0,0,1,.94-1.66,39.33,39.33,0,0,1,10.15.8c-1.24,2.14-3.22,2.61-4.76,3.6-0.54.34-1.85,0.95-1.75-.35C3979.66,430.91,3976.34,433.76,3974.7,433.21Zm33-21.39c-0.28,9.13-.85,18.25-1,27.38,0,3.7-1.64,4.66-4.85,4.26a5.65,5.65,0,0,1-2.79.49,48.93,48.93,0,0,1-20.36-1.56c2.1-2.68,4.79-3.58,7-5.06,1.37-.92,2,0,2.78,1,1.19,1.57,2.28,3.4,3.86,4.46,2.39,1.61,4.5,1.35,4.55-2.3-1.66-1.25-4-1.5-5.1-3.63s-3.25-3.82.95-5.19c3-1,3-4.07,2.91-6.8-0.42-10.27-1.49-20.52-.84-30.93a5.39,5.39,0,0,1,1.51.16C4008,399.17,4008.06,399.18,4007.67,411.83Zm1-19.11c-0.1.76,0.24,1.87-.8,2.1-1.39.3-2.55-.61-3.54-1.41-1.33-1.06.41-1.09,0.72-1.57,1.54-2.31.49-4.12-1.2-5.63a52.13,52.13,0,0,0-5.16-3.47C4007.52,383.9,4009.5,386.16,4008.63,392.71Z" transform="translate(-3373.07 -102.97)"/>
  <path class="logo-tho__shadow" d="M4157.06,372.17c-3.26-5.43-6.78-10.68-8.34-16.93-0.34-1.36-.81-2.64-2.66-2.07-1.52.47-7.27,9.39-7.12,11,1.53,16.58.42,33.25,1.49,49.83,0.15,2.4-3,3.86-1.14,6.4,2.08,2.91-.08,3.83-2.37,4.37a29.25,29.25,0,0,1-4.95.58c-7,.43-14,0.72-20.94,1.29-1.64.13-5.16-.17-3.89,2.78,2.71,6.31,7.89,12.14,13.46,14.44,8.55,3.53,18.47,3.76,26.09,5.09,8.08,0.19,14.93-4.55,13.6-9.25-2.06-7.31.15-14.35-.36-21.52-0.72-10.08-.05-20.32.73-30.44A25.5,25.5,0,0,0,4157.06,372.17Zm-7,.29,5,8.1C4146.74,379.7,4145.91,378.48,4150.09,372.45Zm-6.22-10.76c4.82,3.77-.41,7.59.41,11.17A15.8,15.8,0,0,1,4143.88,361.7Zm8.76,82.72a4.77,4.77,0,0,1-2.78.88c-9.89-.77-19.88-1.29-28.8-6.31a27.8,27.8,0,0,1-9.15-8.58c8-.66,15.26-0.92,22.39-2,4.44-.65,7.67-0.3,10.36,3.79,1.9,2.89,5.18,4.62,8.22,6.35C4156.65,440.74,4155.26,442.64,4152.63,444.42Zm2.77-13.55c-3.79-1.77-5.78-5.13-9-8C4155.69,423.47,4155.93,423.69,4155.41,430.87Zm1.27-35.23c0,2.16,0,4.26,0,6.26h-0.43c0,5,0,9.89,0,14.71,0,3-1.25,3.1-3.78,2.34-3.58-1.07-4.4-5.66-8.53-6.13-0.36,0-.23-4.63-0.26-7.12-0.09-7.16-.1-14.3-0.25-21.45-0.06-2.68.45-3.67,3.39-2.54C4156.65,385.5,4156.69,385.28,4156.67,395.64Z" transform="translate(-3373.07 -102.97)"/>
  <path class="logo-tho__shadow" d="M4021.11,263c-0.86-4.41-3-6.85-7.58-7.09-3-.16-6-0.44-9-0.67v0.16h-4c-7.73,0-9.32,1.41-8.82,9,0.87,13.41-.33,26.8.26,40.21,0.57,12.92.41,12.93,13.45,12.78,0.5,0,1,0,1.5,0,2.4,0.16,4.17-.71,3.68-3.34-0.61-3.29,2.6-3.87,3.52-5.83,1.32-2.82-4.68-2.65-3.39-6.15a1.53,1.53,0,0,0,0-.5c0-8.33.09-16.66,0-25,0-2.61.63-3.87,3.56-4.09C4022.79,271.84,4022.77,271.54,4021.11,263Zm-24.64-.57c1.3-.62,2.39.89,3.4,1.65,2.49,1.86,5.32,3.34,7.53,6.08-3.5,1.31-6.72.17-9.91-.23-2-.24-2.08-2-2-3.48S3994.92,263.15,3996.47,262.42Zm1.76,11.32c8.17-.74,9.23.48,9.26,6.81,0,6.69,0,6.49-8.19,6.82-5.15.2-3.84-3.4-3.47-5.68C3996.25,279,3993,274.21,3998.23,273.74Zm0.16,38.48c0.21,0.79-.46,1.18-1.22,1a1.76,1.76,0,0,1-1.2-.61,4,4,0,0,1-.29-1.94c0.22-2.42-1.24-5.86.73-7s4.77,1.06,7.74,2.41C4001.07,307.65,3997.25,307.86,3998.39,312.22Zm8.27-10.21c-2.31,2-6.19-1.37-9.91-3,8.68-3.66,8.68-3.66,5.83-8.24,1.8-.34,4.08-1.33,4.55.78C4007.9,295.07,4009,300,4006.66,302Z" transform="translate(-3373.07 -102.97)"/>
  <path class="logo-tho__shadow" d="M3731.46,261.59c-1.12-13.57-4.52-26-17.13-33.74-2.24-1.38-3-3.85-3.24-6.48-0.1-1.25-.08-3-2-2.8s-1.48,2-1.39,3.14c1,13.61,1.12,27.42,5.6,40.45,5.49,16,9.59,32.21,11.3,49,0.14,1.42-.11,3.42,2,3.4s1.84-2,2.19-3.4c2.58-10.39,3.64-21,4-33.43C3732.41,273.54,3732,267.56,3731.46,261.59Zm-19-28.13,4,6C3710.74,240.55,3713,235.94,3712.47,233.46Zm7.9,38.94c-2.37-7.58-5.6-14.92-6.44-22.93-0.37-2.05-1.74-4-.89-6.28,1.86,0.37,3.12,1.63,4.89,3.26-2,.26-3.93.49-3.21,2.9,0.58,0.32,1.14.66,1.73,0.95,3.35,1.64,8.57,1,10,4.52,2.16,5.3,2.18,11.35,2.3,17.18,0,1.77-.84,2.47-2.46,2.14C3724.28,273.74,3721.46,275.87,3720.37,272.4Zm7.35,27.73c-2.17-2.6-2-4.71-2.38-6.54-0.94-4.2-1.78-8.42-2.63-12.63-0.27-1.34-.48-2.82,1.4-3.1,2.51-.37,1.42,1.48,1.47,2.62,0,0.66-.18,1.62.18,1.92C3731.51,287.37,3727.49,293.28,3727.73,300.13Z" transform="translate(-3373.07 -102.97)"/>
  <path class="logo-tho__shadow" d="M3660.94,269.82c-0.23-7-1.13-14-.72-20.95,0.74-12.43-7.22-19.77-14.78-27.51a2,2,0,0,0-2.21-.75,1.61,1.61,0,0,0-.92,2c1,5.46-.34,11,0.14,16-0.29,14.77,1.38,29,3.65,43.09,1.13,7.05,2.38,14.09,3.63,21.13,0.28,1.58.19,3.92,2.14,4.06,2.4,0.17,2.11-2.48,2.79-4a4.2,4.2,0,0,0,.2-1c1.51-9.13,1.93-18.47,5.69-27.15C3661.17,273.33,3661,271.47,3660.94,269.82Zm-14.46-39.31c3.78,4.92,9,9,9.36,15.51s-7.16,9.32-8.58,16.5A125.15,125.15,0,0,1,3646.49,230.51Zm2.26,45.52-1.47-10.75C3652.4,270.75,3652.63,272.2,3648.75,276Zm4.95,6.85c-1.88-2.58-1.27-4.62,0-6.56a10.31,10.31,0,0,0,2.19-6,33.67,33.67,0,0,0-1.68-3c-4-5.46-3.24-7.49,2.76-12.6v7.19h0C3659,269.18,3657.75,276,3653.7,282.87Z" transform="translate(-3373.07 -102.97)"/>
  <path class="logo-tho__shadow" d="M3648.38,630.13a85.69,85.69,0,0,1-.38-9.41c0-3.86-1.94-5.37-5.58-5.34-5.66,0-11.32,0-16.6,0-7.69.58-15,1.11-22.28,1.71-2,.16-4.33,1-2.28,3.26,4.93,5.31,9.44,11.48,17.15,13.06,8,1.64,16.25,1.14,24.38,1.61C3645.93,635.22,3648.7,633.33,3648.38,630.13Zm-20.55.36c-0.09,0-.17,0-0.26,0l-0.06,0c-8.81,1.23-15.19-2.6-20.49-9.81a37.65,37.65,0,0,1,11.62-1.09c7.4-.41,7.4-0.41,7.45,5.86l-8.41-4.1c-1.45,0-3.3-2.22-4.27.27-0.91,2.34,1.56,2.4,2.88,3.1,3.71,2,7.91,3,11.22,5.76h0.11l0.2,0.07a3.65,3.65,0,0,0,2.87-1c2.06-1.75,2.11-1.69,4.54,1.31A12,12,0,0,1,3627.83,630.49Z" transform="translate(-3373.07 -102.97)"/>
  <path class="logo-tho__shadow" d="M4144.73,220.76c-1.49-.94-2.89-1.87-4.58-1.13-1.91.84-1,2.57-.84,4q1.2,14.69,2.45,29.37h0.3c0,5.79,0,11.59,0,17.38a41.32,41.32,0,0,0,.58,4.94c0.15,1.08.6,1.91,1.86,1.92,1.05,0,1.34-.85,1.63-1.61,1.13-3,3.27-5.2,5.2-7.68,3.09-4,6.69-8.46,7-13.5C4159.3,241.21,4157.36,228.73,4144.73,220.76Zm0.18,30.8c-0.22-3.9-.25-7.82-1.3-11.66l1.26-.34c2.12,3.44,4.28,6.85,6.32,10.34,0.51,0.88,1.75,2.21.31,3a13.2,13.2,0,0,1-4.78,1.05C4145.07,254.1,4145,252.7,4144.91,251.56Zm4.38,10.55c-1.24-.19-3.34-2.9-3.09-3.33,1.44-2.52,4.25-1.24,6.77-1.44C4152,259.28,4152.44,262.59,4149.29,262.11ZM4154.2,248c-5.7-7.32-6.18-16-11.32-22.45C4151.46,230.22,4155.32,237.3,4154.2,248Z" transform="translate(-3373.07 -102.97)"/>
  <path class="logo-tho__base" d="M3865.28,103a1.49,1.49,0,0,1,1.67,1.67v10.43a1.49,1.49,0,0,1-1.67,1.67h-12.09v68a1.45,1.45,0,0,1-1.67,1.67h-10.84a1.49,1.49,0,0,1-1.67-1.67v-68h-12.09a1.53,1.53,0,0,1-1.67-1.67V104.64a1.53,1.53,0,0,1,1.67-1.67h38.37Z" transform="translate(-3373.07 -102.97)"/>
  <path class="logo-tho__base" d="M3909.28,104.64a1.53,1.53,0,0,1,1.67-1.67h10.74a1.52,1.52,0,0,1,1.77,1.67v80.07a1.52,1.52,0,0,1-1.77,1.67h-10.74a1.53,1.53,0,0,1-1.67-1.67V151.56h-13.35v33.16a1.53,1.53,0,0,1-1.67,1.67h-10.74a1.52,1.52,0,0,1-1.77-1.67V104.64a1.52,1.52,0,0,1,1.77-1.67h10.74a1.54,1.54,0,0,1,1.67,1.67V137.8h13.35V104.64Z" transform="translate(-3373.07 -102.97)"/>
  <path class="logo-tho__base" d="M3982,115.07a1.52,1.52,0,0,1-1.67,1.77h-26.07v20.85h19.92a1.57,1.57,0,0,1,1.67,1.77v10.32a1.57,1.57,0,0,1-1.67,1.77h-19.92v21.06h26.07a1.41,1.41,0,0,1,1.67,1.67v10.43a1.45,1.45,0,0,1-1.67,1.67h-38.37a1.51,1.51,0,0,1-1.56-1.67V104.64a1.51,1.51,0,0,1,1.56-1.67h38.37a1.45,1.45,0,0,1,1.67,1.67v10.43Z" transform="translate(-3373.07 -102.97)"/>
  <path class="logo-tho__base" d="M3854.49,460c0-9.8,5.21-15,15-15h11.68c9.8,0,15,5.21,15,15v53.38c0,9.8-5.21,15-15,15H3869.5c-9.8,0-15-5.21-15-15V460Zm24.08,54.95c2.71,0,4.17-1.35,4.17-4.17V462.59c0-2.71-1.46-4.17-4.17-4.17h-6c-2.71,0-4.17,1.46-4.17,4.17v48.17c0,2.82,1.46,4.17,4.17,4.17h6Z" transform="translate(-3373.07 -102.97)"/>
  <path class="logo-tho__base" d="M3954.79,457.07a1.53,1.53,0,0,1-1.67,1.67h-25.86v21h19.6a1.53,1.53,0,0,1,1.67,1.67v10.43a1.49,1.49,0,0,1-1.67,1.67h-19.6v33.26a1.53,1.53,0,0,1-1.67,1.67h-10.84a1.49,1.49,0,0,1-1.67-1.67V446.64a1.49,1.49,0,0,1,1.67-1.67h38.37a1.53,1.53,0,0,1,1.67,1.67v10.43Z" transform="translate(-3373.07 -102.97)"/>
  <path class="logo-tho__base" d="M3768.62,216.24c3.35,0,5.16,2.06,4.9,5.42l-22.19,196.13c-0.26,3.35-2.06,4.9-5.42,4.9h-25.29c-3.1,0-4.9-1.55-5.68-4.65L3688.1,301.4,3661,418.31a5.37,5.37,0,0,1-5.68,4.39h-25.81c-3.35,0-5.16-1.55-5.42-4.9l-21.16-196.13c-0.26-3.35,1.55-5.42,4.9-5.42h24.52a5,5,0,0,1,5.42,4.9l10.06,120.78h1.29l25.55-121c0.77-3.1,2.58-4.65,5.68-4.65h15.48c3.1,0,4.9,1.55,5.68,4.65l25.29,121h1.29l10.58-120.78a5,5,0,0,1,5.42-4.9h24.52Z" transform="translate(-3373.07 -102.97)"/>
  <path class="logo-tho__base" d="M3807.59,253.4c0-24.26,12.9-37.16,37.16-37.16h28.9c24.26,0,37.16,12.9,37.16,37.16V385.53c0,24.26-12.9,37.16-37.16,37.16h-28.9c-24.26,0-37.16-12.9-37.16-37.16V253.4Zm59.62,136c6.71,0,10.32-3.35,10.32-10.32V259.85c0-6.71-3.61-10.32-10.32-10.32h-15c-6.71,0-10.32,3.61-10.32,10.32V379.08c0,7,3.61,10.32,10.32,10.32h15Z" transform="translate(-3373.07 -102.97)"/>
  <path class="logo-tho__base" d="M4058.69,316.37c0,17.29-6.45,28.65-18.84,34.06L4057.66,418c0.77,3.1-.77,4.65-3.61,4.65H4027.2c-2.58,0-3.87-1.29-4.39-3.61l-17.29-65.55h-17.81v65a3.8,3.8,0,0,1-4.13,4.13h-26.84a3.8,3.8,0,0,1-4.13-4.13V220.37a3.8,3.8,0,0,1,4.13-4.13h64.78c24.26,0,37.16,12.9,37.16,37.16v63Zm-45.42,3.1c6.71,0,10.32-3.61,10.32-10.32V260.63c0-6.71-3.61-10.32-10.32-10.32h-25.55v69.16h25.55Z" transform="translate(-3373.07 -102.97)"/>
  <path class="logo-tho__base" d="M4183.59,422.69c-3.1,0-4.9-1.29-5.94-3.87l-32.52-76.65-9.55,18.32v57c0,3.35-1.81,5.16-5.16,5.16h-24.77c-3.36,0-5.16-1.81-5.16-5.16V221.4c0-3.35,1.81-5.16,5.16-5.16h24.77c3.36,0,5.16,1.81,5.16,5.16v80l39.74-81.29c1.29-2.58,3.1-3.87,5.94-3.87h27.1c3.87,0,5.42,2.58,3.61,6.19l-43.87,90.07,46.71,104.26c1.81,3.35.26,5.94-3.87,5.94h-27.36Z" transform="translate(-3373.07 -102.97)"/>
  <path class="logo-tho__base" d="M3753,558.69c4.51,0,6.56,2.46,6.56,6.56v41c0,4.1-2.05,6.56-6.56,6.56h-47.56V880.14c0,4.51-2.05,6.56-6.56,6.56h-42.64c-4.1,0-6.56-2-6.56-6.56V612.81h-47.56c-4.1,0-6.56-2.46-6.56-6.56v-41c0-4.1,2.46-6.56,6.56-6.56H3753Z" transform="translate(-3373.07 -102.97)"/>
  <path class="logo-tho__base" d="M3926,565.25c0-4.1,2.46-6.56,6.56-6.56h42.23c4.92,0,7,2.46,7,6.56V880.14c0,4.1-2.05,6.56-7,6.56h-42.23c-4.1,0-6.56-2.46-6.56-6.56V749.75h-52.48V880.14c0,4.1-2.46,6.56-6.56,6.56h-42.23c-4.92,0-7-2.46-7-6.56V565.25c0-4.1,2-6.56,7-6.56H3867c4.1,0,6.56,2.46,6.56,6.56V695.63H3926V565.25Z" transform="translate(-3373.07 -102.97)"/>
  <path class="logo-tho__base" d="M4048.19,617.73c0-38.54,20.5-59,59-59h45.92c38.54,0,59,20.5,59,59V827.65c0,38.54-20.5,59-59,59h-45.92c-38.54,0-59-20.5-59-59V617.73ZM4142.9,833.8c10.66,0,16.4-5.33,16.4-16.4V628c0-10.66-5.74-16.4-16.4-16.4h-23.78c-10.66,0-16.4,5.74-16.4,16.4V817.4c0,11.07,5.74,16.4,16.4,16.4h23.78Z" transform="translate(-3373.07 -102.97)"/>
</svg>
