<svg width="56" height="42" viewBox="0 0 56 42" xmlns="http://www.w3.org/2000/svg"><title>Group</title><g fill="none" fill-rule="evenodd"><path fill="#32BABF" d="M0 0h56v42H0"/><path d="M12.5 13c3.038 0 5.5-2.462 5.5-5.5S15.538 2 12.5 2 7 4.462 7 7.5 9.462 13 12.5 13zm13.6 7.53L9.7 35.13h30.82L26.1 20.53z" fill="#258C8F"/><path d="M54 26.8l-.96-1.1L41.48 15l-10.1 11.2 9.14 9.26H54V26.8zM2 39.36h23.1l-3.86-3.92-10.56-10.67L2 32.49v6.87z" fill="#289498"/><path fill="#1F7377" d="M2 35h52v4.87H2"/></g></svg>